<?xml version="1.0" encoding="utf-8"?>
<!-- Generator: Adobe Illustrator 17.0.2, SVG Export Plug-In . SVG Version: 6.00 Build 0)  -->
<!DOCTYPE svg PUBLIC "-//W3C//DTD SVG 1.1//EN" "http://www.w3.org/Graphics/SVG/1.1/DTD/svg11.dtd">
<svg version="1.1" id="Calque_1" xmlns="http://www.w3.org/2000/svg" xmlns:xlink="http://www.w3.org/1999/xlink" x="0px" y="0px"
	 width="27px" height="27px" viewBox="0 0 412 412" enable-background="new 0 0 412 412" xml:space="preserve">
<path id="facebook-circle-icon" fill="#FECD08" d="M206,1.311C92.953,1.311,1.311,92.953,1.311,206S92.953,410.689,206,410.689
	S410.689,319.047,410.689,206S319.047,1.311,206,1.311z M266.58,121.732c0,0-20.473,0-28.606,0
	c-10.097,0-12.202,4.137-12.202,14.585c0,8.694,0,25.242,0,25.242h40.808l-3.926,44.312h-36.882V338.25h-52.861V206.432h-27.49
	V161.56h27.49c0,0,0-6.452,0-35.339c0-33.167,17.735-50.484,57.071-50.484c6.443,0,36.599,0,36.599,0v45.994H266.58z"/>
<circle fill="none" cx="206" cy="206" r="204.759"/>
<g>
	<rect x="0" y="0" fill="none" width="412" height="412"/>
</g>
</svg>
