<?xml version="1.0" encoding="utf-8"?>
<!-- Generator: Adobe Illustrator 17.0.2, SVG Export Plug-In . SVG Version: 6.00 Build 0)  -->
<!DOCTYPE svg PUBLIC "-//W3C//DTD SVG 1.1//EN" "http://www.w3.org/Graphics/SVG/1.1/DTD/svg11.dtd">
<svg version="1.1" id="Calque_1" xmlns="http://www.w3.org/2000/svg" xmlns:xlink="http://www.w3.org/1999/xlink" x="0px" y="0px"
	 width="40px" height="40px" viewBox="820 236 40 40" enable-background="new 820 236 40 40" xml:space="preserve">
<circle fill="#FFFFFF" cx="840" cy="256" r="17.971"/>
<path id="twitter-4-icon" fill="#333333" d="M840,236c-11.046,0-20,8.954-20,20c0,11.046,8.954,20,20,20s20-8.954,20-20
	C860,244.954,851.046,236,840,236z M850.058,252.554c0.293,6.524-4.572,13.798-13.185,13.798c-2.62,0-5.058-0.768-7.11-2.084
	c2.461,0.29,4.917-0.393,6.867-1.921c-2.03-0.037-3.743-1.378-4.333-3.221c0.727,0.139,1.442,0.098,2.095-0.079
	c-2.231-0.448-3.771-2.458-3.72-4.607c0.625,0.348,1.341,0.556,2.101,0.58c-2.066-1.381-2.651-4.109-1.435-6.193
	c2.288,2.806,5.706,4.653,9.561,4.847c-0.677-2.902,1.524-5.696,4.519-5.696c1.334,0,2.54,0.563,3.386,1.465
	c1.057-0.208,2.049-0.594,2.946-1.126c-0.346,1.083-1.082,1.992-2.04,2.566c0.938-0.112,1.832-0.361,2.664-0.73
	C851.751,251.083,850.965,251.9,850.058,252.554z"/>
</svg>
