<?xml version="1.0" encoding="utf-8"?>
<!-- Generator: Adobe Illustrator 17.0.2, SVG Export Plug-In . SVG Version: 6.00 Build 0)  -->
<!DOCTYPE svg PUBLIC "-//W3C//DTD SVG 1.1//EN" "http://www.w3.org/Graphics/SVG/1.1/DTD/svg11.dtd">
<svg version="1.1" id="Calque_1" xmlns="http://www.w3.org/2000/svg" xmlns:xlink="http://www.w3.org/1999/xlink" x="0px" y="0px"
	 width="27px" height="27px" viewBox="0 0 412 412" enable-background="new 0 0 412 412" xml:space="preserve">
<path id="instagram-9-icon" fill="#FECD08" d="M162.551,205.995c0-24.55,19.899-44.443,44.449-44.443
	c24.549,0,44.453,19.894,44.453,44.443c0,24.547-19.904,44.454-44.453,44.454C182.45,250.449,162.551,230.542,162.551,205.995z
	 M278.113,205.995c0,39.283-31.838,71.12-71.113,71.12c-39.274,0-71.113-31.837-71.113-71.12c0-6.146,0.869-12.092,2.335-17.783
	h-20.123v97.793c0,4.904,3.981,8.881,8.898,8.881h160.008c4.917,0,8.899-3.977,8.899-8.881v-97.793h-20.123
	C277.248,193.903,278.113,199.849,278.113,205.995z M287.005,117.1h-26.663c-4.911,0-8.889,3.981-8.889,8.89v26.672
	c0,4.906,3.978,8.891,8.889,8.891h26.663c4.917,0,8.899-3.984,8.899-8.891V125.99C295.904,121.081,291.922,117.1,287.005,117.1z
	 M412,206c0,113.771-92.229,206-206,206S0,319.771,0,206S92.229,0,206,0S412,92.229,412,206z M322.566,117.1
	c0-14.729-11.936-26.665-26.662-26.665H118.099c-14.724,0-26.664,11.936-26.664,26.665v177.786c0,14.736,11.94,26.68,26.664,26.68
	h177.806c14.727,0,26.662-11.943,26.662-26.68L322.566,117.1L322.566,117.1z"/>
</svg>
