<?xml version="1.0" encoding="utf-8"?>
<!-- Generator: Adobe Illustrator 17.0.2, SVG Export Plug-In . SVG Version: 6.00 Build 0)  -->
<!DOCTYPE svg PUBLIC "-//W3C//DTD SVG 1.1//EN" "http://www.w3.org/Graphics/SVG/1.1/DTD/svg11.dtd">
<svg version="1.1" id="Calque_1" xmlns="http://www.w3.org/2000/svg" xmlns:xlink="http://www.w3.org/1999/xlink" x="0px" y="0px"
	 width="27px" height="27px" viewBox="0 0 412 412" enable-background="new 0 0 412 412" xml:space="preserve">
<path id="linkedin-circle-icon" fill="#FECD08" d="M206,0C92.229,0,0,92.229,0,206s92.229,206,206,206s206-92.229,206-206
	S319.771,0,206,0z M151.039,305.592H105.81V159.469h45.229V305.592z M128.209,140.333c-14.771,0-26.746-12.072-26.746-26.963
	s11.975-26.963,26.746-26.963c14.77,0,26.745,12.072,26.745,26.963S142.979,140.333,128.209,140.333z M320.536,305.592h-45.01
	c0,0,0-55.666,0-76.703s-7.991-32.781-24.626-32.781c-18.103,0-27.562,12.231-27.562,32.781c0,22.504,0,76.703,0,76.703h-43.38
	V159.469h43.38v19.679c0,0,13.047-24.137,44.032-24.137c30.986,0,53.165,18.918,53.165,58.058
	C320.536,252.209,320.536,305.592,320.536,305.592z"/>
</svg>
