<?xml version="1.0" encoding="utf-8"?>
<!-- Generator: Adobe Illustrator 17.0.2, SVG Export Plug-In . SVG Version: 6.00 Build 0)  -->
<!DOCTYPE svg PUBLIC "-//W3C//DTD SVG 1.1//EN" "http://www.w3.org/Graphics/SVG/1.1/DTD/svg11.dtd">
<svg version="1.1" id="Calque_1" xmlns="http://www.w3.org/2000/svg" xmlns:xlink="http://www.w3.org/1999/xlink" x="0px" y="0px"
	 width="13px" height="9px" viewBox="690.5 147.5 13 9" enable-background="new 690.5 147.5 13 9" xml:space="preserve">
<path id="email-icon" d="M170.544,239.052L50,146.454v213.142L170.544,239.052z M460.928,103.407H51.416l204.593,157.162
	L460.928,103.407z M313.355,260.696l-57.364,43.994l-57.454-44.135L50.5,408.593h410.751L313.355,260.696z M341.367,239.212
	L462,359.845V146.693L341.367,239.212z"/>
<path id="email-icon_1_" fill="#FFFFFF" d="M694.308,151.5l-3.808-2.731v6.286L694.308,151.5z M703.48,147.5h-12.936l6.463,4.635
	L703.48,147.5z M698.819,152.138l-1.812,1.297l-1.815-1.302l-4.676,4.366h12.975L698.819,152.138z M699.704,151.505l3.811,3.557
	v-6.286L699.704,151.505z"/>
</svg>
