<?xml version="1.0" encoding="utf-8"?>
<!-- Generator: Adobe Illustrator 17.0.2, SVG Export Plug-In . SVG Version: 6.00 Build 0)  -->
<!DOCTYPE svg PUBLIC "-//W3C//DTD SVG 1.1//EN" "http://www.w3.org/Graphics/SVG/1.1/DTD/svg11.dtd">
<svg version="1.1" id="Calque_1" xmlns="http://www.w3.org/2000/svg" xmlns:xlink="http://www.w3.org/1999/xlink" x="0px" y="0px"
	 width="17.113px" height="53px" viewBox="0 0 17.113 53" enable-background="new 0 0 17.113 53" xml:space="preserve">
<path fill="#FFFFFF" d="M-53.854,48.099c-0.17,0-0.335-0.086-0.429-0.243l-9.967-16.632l9.967-16.632
	c0.143-0.238,0.45-0.314,0.686-0.172c0.237,0.142,0.314,0.449,0.172,0.686l-9.658,16.118l9.658,16.118
	c0.143,0.237,0.065,0.544-0.172,0.686C-53.678,48.076-53.767,48.099-53.854,48.099z"/>
<path fill="#FFFFFF" d="M-33.403,67.42c-0.267,0-0.527-0.136-0.674-0.382L-49.75,40.885l15.673-26.153
	c0.224-0.374,0.708-0.494,1.078-0.27c0.373,0.223,0.494,0.706,0.27,1.078l-15.187,25.345l15.187,25.345
	c0.224,0.372,0.103,0.855-0.27,1.078C-33.125,67.384-33.265,67.42-33.403,67.42z"/>
<rect x="-49.75" y="14.349" fill="#FFFFFF" width="17.11" height="53"/>
<path fill="#FFFFFF" d="M-7.089,53.009c-0.267,0-0.526-0.136-0.673-0.382l-15.654-26.123L-7.762,0.382
	c0.224-0.373,0.707-0.493,1.077-0.27c0.373,0.222,0.494,0.705,0.27,1.077l-15.17,25.316l15.17,25.316
	c0.224,0.372,0.103,0.854-0.27,1.077C-6.812,52.973-6.951,53.009-7.089,53.009z"/>
<path fill="#FFFFFF" d="M0.786,53.009c0.267,0,0.526-0.136,0.673-0.382l15.654-26.123L1.459,0.382
	c-0.224-0.373-0.707-0.493-1.077-0.27C0.01,0.335-0.112,0.817,0.112,1.189l15.17,25.316L0.112,51.82
	c-0.224,0.372-0.103,0.854,0.27,1.077C0.508,52.973,0.648,53.009,0.786,53.009z"/>
</svg>
