<?xml version="1.0" encoding="utf-8"?>
<!-- Generator: Adobe Illustrator 18.0.0, SVG Export Plug-In . SVG Version: 6.00 Build 0)  -->
<!DOCTYPE svg PUBLIC "-//W3C//DTD SVG 1.1//EN" "http://www.w3.org/Graphics/SVG/1.1/DTD/svg11.dtd">
<svg version="1.1" id="Layer_1" xmlns="http://www.w3.org/2000/svg" xmlns:xlink="http://www.w3.org/1999/xlink" x="0px" y="0px"
	 viewBox="0 0 14.3 11.6" enable-background="new 0 0 14.3 11.6" xml:space="preserve">
<path fill="#FFFFFF" d="M13.8,9.4l-3.1-2.1c0.2-0.6,0.3-1.2,0.3-1.8c0-3-2.5-5.5-5.5-5.5S0,2.5,0,5.5S2.4,11,5.5,11
	c1.5,0,2.9-0.6,3.9-1.6l3.1,2c0.6,0.4,1.3,0.2,1.7-0.3C14.5,10.5,14.3,9.7,13.8,9.4z M5.5,9.5c-2.2,0-4-1.8-4-4s1.8-4,4-4s4,1.8,4,4
	S7.6,9.5,5.5,9.5z"/>
</svg>
