<?xml version="1.0" encoding="utf-8"?>
<!-- Generator: Adobe Illustrator 15.0.0, SVG Export Plug-In . SVG Version: 6.00 Build 0)  -->
<!DOCTYPE svg PUBLIC "-//W3C//DTD SVG 1.1//EN" "http://www.w3.org/Graphics/SVG/1.1/DTD/svg11.dtd">
<svg version="1.1" id="Layer_1" xmlns="http://www.w3.org/2000/svg" xmlns:xlink="http://www.w3.org/1999/xlink" x="0px" y="0px"
	 width="566.051px" height="75.961px" viewBox="0 0 566.051 75.961" enable-background="new 0 0 566.051 75.961"
	 xml:space="preserve">
<path fill="#FFFFFF" d="M29.349,25.814l-5.097-0.987c-8.715-1.809-11.427-3.946-11.427-8.632c0-4.439,3.452-7.234,10.523-7.234
	c9.289,0,12.495,3.535,12.907,9.782h10.768C46.612,7.728,39.625,0,23.184,0C9.125,0,1.479,6.823,1.479,16.524
	c0,10.605,7.482,15.619,18.827,17.757l4.932,0.987c8.961,1.808,12.003,3.864,12.003,8.466c0,5.509-4.193,8.469-11.839,8.469
	c-8.138,0-14.303-2.467-14.468-11.674H0c0.081,13.481,9.453,20.634,25.073,20.634c14.634,0,23.677-6.412,23.677-18.003
	C48.75,33.87,43.16,28.527,29.349,25.814"/>
<path fill="#FFFFFF" d="M75.431,16.442c-6.166,0-10.687,2.63-13.564,7.069v-6.083H51.92v58.533h10.358V54.34
	c2.878,4.11,7.234,6.494,13.153,6.494c11.674,0,18.99-8.714,18.99-22.196S87.105,16.442,75.431,16.442 M72.965,52.285
	c-6.741,0-10.934-4.688-10.934-13.647c0-8.961,4.193-13.647,10.934-13.647c6.742,0,10.935,4.357,10.935,13.318
	C83.9,47.27,79.707,52.285,72.965,52.285"/>
<rect x="97.771" y="17.428" fill="#FFFFFF" width="10.358" height="42.419"/>
<rect x="97.853" y="2.219" fill="#FFFFFF" width="10.193" height="9.701"/>
<path fill="#FFFFFF" d="M128.153,5.096h-10.276v12.332h-6.578v7.892h6.578v24.005c0,7.81,4.275,10.851,13.236,10.851
	c1.644,0,3.533-0.162,5.426-0.328v-7.892h-3.535c-3.455,0-4.851-0.905-4.851-3.698V25.32h8.386v-7.892h-8.386V5.096z"/>
<path fill="#FFFFFF" d="M152.666,51.873c1.811-2.137,3.618-4.355,5.344-6.494l16.771-21.129v-6.821h-34.61v8.055h12.989
	c2.878,0,5.754,0,8.714-0.082c-1.808,2.138-3.617,4.357-5.343,6.494L139.76,53.023v6.826h36.009v-8.059h-14.388
	C158.503,51.791,155.626,51.791,152.666,51.873"/>
<path fill="#FFFFFF" d="M196.139,16.442c-12.579,0-20.963,8.878-20.963,22.196c0,13.564,8.63,22.196,21.128,22.196
	c10.194,0,17.591-5.508,19.73-14.14h-9.947c-1.564,3.782-4.77,6.083-9.701,6.083c-6.001,0-10.277-3.37-11.016-10.934h31.731v-2.465
	C217.101,25.896,209.129,16.442,196.139,16.442 M185.452,34.609c0.985-6.987,5.098-10.111,10.604-10.111
	c6.166,0,9.867,4.11,10.688,10.111H185.452z"/>
<path fill="#FFFFFF" d="M242.026,16.77c-6.575,0-10.604,3.453-12.659,8.221v-7.563h-10.029v42.419h10.357V38.309
	c0-8.056,4.604-11.838,12.249-11.838h2.632v-9.536C243.672,16.77,242.931,16.77,242.026,16.77"/>
<polygon fill="#FFFFFF" points="265.881,35.053 268.658,35.053 268.658,19.354 274.674,19.354 274.674,16.908 259.865,16.908 
	259.865,19.354 265.881,19.354 "/>
<path fill="#FFFFFF" d="M278.564,27.637c0-2.65,1.758-3.797,3.313-3.797c1.784,0,2.778,0.866,2.778,2.752v8.461h2.549v-8.817
	c0-3.008-1.759-4.639-4.614-4.639c-1.784,0-3.16,0.892-4.025,2.116v-6.805h-2.55v18.145h2.55V27.637z"/>
<path fill="#FFFFFF" d="M295.295,21.597c-3.748,0-6.245,2.753-6.245,6.881c0,4.231,2.574,6.881,6.294,6.881
	c3.161,0,5.226-1.784,5.889-4.332h-2.574c-0.459,1.325-1.556,2.192-3.263,2.192c-2.114,0-3.543-1.224-3.771-3.9h9.914V28.58
	C301.538,24.63,299.269,21.597,295.295,21.597 M291.649,27.306c0.332-2.421,1.732-3.568,3.646-3.568
	c2.139,0,3.388,1.529,3.618,3.568H291.649z"/>
<path fill="#FFFFFF" d="M323.354,29.906c0-1.81-0.945-3.517-3.136-4.333c1.503-0.815,2.395-2.141,2.395-3.95
	c0-2.523-1.708-4.715-5.683-4.715h-7.824v18.145h8.181C321.339,35.053,323.354,32.989,323.354,29.906 M311.833,19.252h4.919
	c2.142,0,3.186,1.071,3.186,2.6c0,1.759-1.044,2.829-3.186,2.829h-4.919V19.252z M311.833,32.709v-5.76h5.301
	c2.166,0,3.467,0.892,3.467,2.906c0,1.783-1.173,2.854-3.467,2.854H311.833z"/>
<path fill="#FFFFFF" d="M330.794,21.597c-3.748,0-6.245,2.753-6.245,6.881c0,4.231,2.574,6.881,6.294,6.881
	c3.16,0,5.226-1.784,5.889-4.332h-2.574c-0.459,1.325-1.555,2.192-3.262,2.192c-2.116,0-3.543-1.224-3.772-3.9h9.914V28.58
	C337.037,24.63,334.769,21.597,330.794,21.597 M327.148,27.306c0.332-2.421,1.732-3.568,3.646-3.568c2.14,0,3.389,1.529,3.618,3.568
	H327.148z"/>
<path fill="#FFFFFF" d="M345.581,24.146h0.638v-2.421c-0.281-0.026-0.51-0.026-0.74-0.026c-2.088,0-3.389,1.122-4.102,2.549v-2.345
	h-2.446v13.15h2.547v-7.136C341.478,25.395,343.06,24.146,345.581,24.146"/>
<path fill="#FFFFFF" d="M350.161,27.637c0-2.65,1.758-3.797,3.313-3.797c1.783,0,2.777,0.866,2.777,2.752v8.461h2.549v-8.817
	c0-3.008-1.759-4.639-4.614-4.639c-1.859,0-3.261,0.969-4.129,2.269v-1.963h-2.445v13.15h2.549V27.637z"/>
<path fill="#FFFFFF" d="M372.11,35.129c0.407,0,0.866-0.025,1.249-0.076v-1.962h-0.714c-0.511,0-0.714-0.255-0.714-0.663v-6.957
	c0-2.294-1.428-3.874-5.199-3.874c-3.95,0-5.428,1.758-5.581,4.409h2.522c0.127-1.784,0.994-2.37,3.059-2.37
	c2.063,0,2.702,0.662,2.702,1.885c0,1.071-0.688,1.504-1.963,1.657l-1.936,0.204c-3.67,0.357-4.946,1.962-4.946,4.077
	c0,2.523,1.862,3.9,4.69,3.9c1.911,0,3.389-0.714,4.281-2.09C369.741,34.543,370.479,35.129,372.11,35.129 M369.435,29.854
	c0,2.472-1.912,3.517-3.771,3.517c-1.658,0-2.448-0.79-2.448-1.988c0-1.172,0.638-1.911,2.753-2.166l1.834-0.204
	c0.715-0.076,1.249-0.229,1.633-0.535V29.854z"/>
<path fill="#FFFFFF" d="M377.337,27.917c0-2.523,1.579-3.771,4.104-3.771h0.636v-2.422c-0.279-0.025-0.51-0.025-0.738-0.025
	c-2.091,0-3.391,1.121-4.104,2.549v-2.345h-2.446v13.15h2.55V27.917z"/>
<path fill="#FFFFFF" d="M392.948,23.688c-0.944-1.326-2.396-2.09-4.255-2.09c-3.671,0-6.016,2.676-6.016,6.881
	s2.345,6.881,6.016,6.881c1.935,0,3.415-0.841,4.357-2.243v1.937h2.445V16.909h-2.548V23.688z M389.177,33.167
	c-2.346,0-3.85-1.58-3.85-4.587c0-3.007,1.504-4.791,3.85-4.791c2.345,0,3.848,1.682,3.848,4.689S391.521,33.167,389.177,33.167"/>
<path fill="#FFFFFF" d="M415.934,35.053h3.339l-3.466-3.874c0.79-1.503,1.224-3.236,1.275-4.97h-2.446
	c-0.027,1.02-0.205,2.09-0.562,3.059l-3.467-3.874c2.321-1.3,3.696-2.981,3.696-4.842c0-2.574-2.141-4.052-4.715-4.052
	c-3.007,0-4.741,1.886-4.741,4.154c0,1.427,0.638,2.599,2.065,4.256c-2.625,1.402-4.104,2.854-4.104,5.403
	c0,2.829,2.143,5.148,5.813,5.148c2.421,0,4.308-0.867,5.683-2.243L415.934,35.053z M409.614,18.667
	c1.197,0,2.167,0.815,2.167,1.988c0,1.274-0.867,2.242-2.574,3.185c-1.173-1.299-1.734-2.318-1.734-3.185
	C407.473,19.432,408.417,18.667,409.614,18.667 M408.824,33.167c-2.115,0-3.313-1.478-3.313-3.033c0-1.758,1.07-2.701,2.802-3.644
	l4.436,4.995C411.832,32.504,410.507,33.167,408.824,33.167"/>
<path fill="#FFFFFF" d="M429.288,30.338h8.154l1.784,4.715h2.879l-7.186-18.145h-3.135L424.7,35.054h2.828L429.288,30.338z
	 M430.537,26.975c0.713-1.86,1.886-4.918,2.803-7.441c0.918,2.523,2.091,5.581,2.829,7.441l0.382,0.994h-6.397L430.537,26.975z"/>
<path fill="#FFFFFF" d="M445.929,27.637c0-2.65,1.759-3.797,3.313-3.797c1.784,0,2.777,0.866,2.777,2.752v8.461h2.549v-8.817
	c0-3.008-1.759-4.639-4.613-4.639c-1.86,0-3.262,0.969-4.129,2.269v-1.963h-2.446v13.15h2.549V27.637z"/>
<path fill="#FFFFFF" d="M465.712,26.592v8.461h2.549v-8.817c0-3.008-1.759-4.639-4.611-4.639c-1.863,0-3.264,0.969-4.129,2.268
	v-1.962h-2.448v13.15h2.548v-7.416c0-2.65,1.76-3.797,3.314-3.797C464.719,23.84,465.712,24.706,465.712,26.592"/>
<path fill="#FFFFFF" d="M476.353,21.597c-3.748,0-6.246,2.753-6.246,6.881c0,4.231,2.575,6.881,6.295,6.881
	c3.16,0,5.226-1.784,5.888-4.332h-2.573c-0.459,1.325-1.555,2.192-3.263,2.192c-2.115,0-3.542-1.224-3.771-3.9h9.913V28.58
	C482.595,24.63,480.327,21.597,476.353,21.597 M472.707,27.306c0.331-2.421,1.732-3.568,3.646-3.568c2.14,0,3.389,1.529,3.618,3.568
	H472.707z"/>
<path fill="#FFFFFF" d="M498.14,24.758l-1.58-0.332c-3.107-0.688-3.95-1.452-3.95-3.058c0-1.554,1.223-2.548,3.671-2.548
	c3.287,0,4.332,1.274,4.484,3.415h2.701c-0.076-3.161-1.987-5.734-7.213-5.734c-4.025,0-6.422,1.962-6.422,4.918
	c0,3.288,2.372,4.69,5.659,5.352l1.553,0.331c3.034,0.663,4.104,1.402,4.104,3.008c0,1.987-1.504,3.032-4.181,3.032
	c-2.753,0-4.892-0.943-4.943-4.077h-2.728c0.027,4.383,3.059,6.397,7.62,6.397c4.436,0,7.061-2.065,7.061-5.429
	C503.977,27.28,502.369,25.65,498.14,24.758"/>
<path fill="#FFFFFF" d="M512.683,21.598c-1.962,0-3.439,0.841-4.381,2.294v-1.988h-2.449v18.146h2.549v-6.831
	c0.944,1.351,2.396,2.141,4.281,2.141c3.646,0,6.016-2.676,6.016-6.881S516.328,21.598,512.683,21.598 M512.199,33.167
	c-2.346,0-3.849-1.682-3.849-4.689s1.503-4.689,3.849-4.689c2.345,0,3.849,1.58,3.849,4.587S514.544,33.167,512.199,33.167"/>
<rect x="520.593" y="21.903" fill="#FFFFFF" width="2.549" height="13.15"/>
<rect x="520.569" y="17.316" fill="#FFFFFF" width="2.6" height="2.727"/>
<path fill="#FFFFFF" d="M529.072,18.131h-2.55v3.772h-2.114v2.09h2.114v8.129c0,2.192,1.275,3.008,3.646,3.008
	c0.459,0,0.994-0.026,1.554-0.077v-2.039h-1.146c-1.122,0-1.504-0.357-1.504-1.121v-7.9h2.649v-2.09h-2.649V18.131z"/>
<path fill="#FFFFFF" d="M536.063,32.989c0.586-0.688,1.146-1.402,1.682-2.09l5.658-7.212v-1.784h-10.349v2.09h4.385
	c0.918,0,1.835,0,2.753-0.026c-0.587,0.689-1.148,1.402-1.684,2.09l-5.656,7.212v1.784h10.857v-2.089h-4.895
	C537.897,32.964,536.979,32.964,536.063,32.989"/>
<path fill="#FFFFFF" d="M550.627,21.597c-3.748,0-6.245,2.753-6.245,6.881c0,4.231,2.574,6.881,6.295,6.881
	c3.16,0,5.225-1.784,5.888-4.332h-2.574c-0.459,1.325-1.556,2.192-3.263,2.192c-2.114,0-3.543-1.224-3.771-3.9h9.914V28.58
	C556.87,24.63,554.601,21.597,550.627,21.597 M546.982,27.306c0.331-2.421,1.731-3.568,3.645-3.568c2.139,0,3.388,1.529,3.618,3.568
	H546.982z"/>
<path fill="#FFFFFF" d="M565.313,21.699c-2.091,0-3.391,1.122-4.104,2.549v-2.345h-2.447v13.15h2.55v-7.136
	c0-2.523,1.58-3.771,4.104-3.771h0.635v-2.422C565.771,21.699,565.542,21.699,565.313,21.699"/>
<path fill="#FFFFFF" d="M282.198,57.854c-2.038,0-3.618-1.479-3.618-4.663c0-3.187,1.528-4.664,3.618-4.664
	c1.555,0,2.904,0.843,3.263,2.677h2.599c-0.407-2.982-2.599-4.894-5.861-4.894c-3.771,0-6.27,2.676-6.27,6.881
	s2.548,6.882,6.27,6.882c3.135,0,5.479-1.887,5.888-4.996h-2.6C285.18,56.988,283.778,57.854,282.198,57.854"/>
<path fill="#FFFFFF" d="M296.383,46.31c-1.784,0-3.16,0.892-4.026,2.115v-6.804h-2.549v18.145h2.549V52.35
	c0-2.65,1.757-3.797,3.312-3.797c1.784,0,2.778,0.865,2.778,2.752v8.461h2.549v-8.818C300.995,47.94,299.237,46.31,296.383,46.31"/>
<path fill="#FFFFFF" d="M309.366,46.311c-3.849,0-6.522,2.674-6.522,6.881c0,4.205,2.674,6.879,6.522,6.879
	c3.822,0,6.499-2.674,6.499-6.879C315.865,48.984,313.188,46.311,309.366,46.311 M309.366,57.879c-2.345,0-3.873-1.682-3.873-4.688
	c0-3.008,1.528-4.69,3.873-4.69c2.318,0,3.849,1.683,3.849,4.69C313.215,56.197,311.685,57.879,309.366,57.879"/>
<path fill="#FFFFFF" d="M323.612,46.311c-3.85,0-6.523,2.674-6.523,6.881c0,4.205,2.674,6.879,6.523,6.879
	c3.821,0,6.498-2.674,6.498-6.879C330.11,48.984,327.434,46.311,323.612,46.311 M323.612,57.879c-2.346,0-3.874-1.682-3.874-4.688
	c0-3.008,1.528-4.69,3.874-4.69c2.318,0,3.848,1.683,3.848,4.69C327.46,56.197,325.931,57.879,323.612,57.879"/>
<rect x="332.021" y="41.619" fill="#FFFFFF" width="2.551" height="18.146"/>
<path fill="#FFFFFF" d="M348.484,46.311c-3.85,0-6.523,2.674-6.523,6.881c0,4.205,2.674,6.879,6.523,6.879
	c3.821,0,6.498-2.674,6.498-6.879C354.982,48.984,352.306,46.311,348.484,46.311 M348.484,57.879c-2.346,0-3.874-1.682-3.874-4.688
	c0-3.008,1.528-4.69,3.874-4.69c2.318,0,3.849,1.683,3.849,4.69C352.333,56.197,350.803,57.879,348.484,57.879"/>
<path fill="#FFFFFF" d="M357.525,45.417v1.198h-2.115v2.09h2.115v11.061h2.549V48.705h2.752v-2.09h-2.752v-1.198
	c0-1.121,0.56-1.731,1.707-1.731h1.146V41.62c-0.356-0.025-1.019-0.077-1.453-0.077C358.621,41.543,357.525,43.1,357.525,45.417"/>
<path fill="#FFFFFF" d="M376.052,41.619l-7.085,18.146h2.831l1.756-4.715h8.157l1.783,4.715h2.88l-7.188-18.146H376.052z
	 M380.818,52.681h-6.396l0.38-0.994c0.714-1.86,1.887-4.919,2.805-7.442c0.917,2.523,2.09,5.582,2.827,7.442L380.818,52.681z"/>
<path fill="#FFFFFF" d="M390.094,48.96v-2.345h-2.446v13.15h2.55V52.63c0-2.524,1.58-3.772,4.102-3.772h0.638v-2.42
	c-0.28-0.026-0.51-0.026-0.738-0.026C392.107,46.411,390.808,47.533,390.094,48.96"/>
<path fill="#FFFFFF" d="M401.778,57.854c-2.039,0-3.619-1.479-3.619-4.663c0-3.187,1.528-4.664,3.619-4.664
	c1.555,0,2.904,0.843,3.263,2.677h2.598c-0.407-2.982-2.598-4.894-5.86-4.894c-3.771,0-6.271,2.676-6.271,6.881
	s2.549,6.882,6.271,6.882c3.135,0,5.479-1.887,5.887-4.996h-2.6C404.759,56.988,403.357,57.854,401.778,57.854"/>
<path fill="#FFFFFF" d="M415.963,46.31c-1.784,0-3.16,0.892-4.026,2.115v-6.804h-2.549v18.145h2.549V52.35
	c0-2.65,1.757-3.797,3.312-3.797c1.784,0,2.778,0.865,2.778,2.752v8.461h2.548v-8.818C420.574,47.94,418.817,46.31,415.963,46.31"/>
<rect x="423.042" y="42.028" fill="#FFFFFF" width="2.6" height="2.728"/>
<rect x="423.068" y="46.615" fill="#FFFFFF" width="2.549" height="13.15"/>
<path fill="#FFFFFF" d="M431.546,42.843h-2.55v3.772h-2.114v2.09h2.114v8.129c0,2.193,1.276,3.008,3.646,3.008
	c0.459,0,0.994-0.025,1.554-0.076v-2.039h-1.146c-1.121,0-1.503-0.357-1.503-1.121v-7.9h2.649v-2.09h-2.649V42.843z"/>
<path fill="#FFFFFF" d="M440.999,46.311c-3.749,0-6.246,2.752-6.246,6.88c0,4.229,2.575,6.882,6.295,6.882
	c3.16,0,5.226-1.785,5.888-4.332h-2.574c-0.458,1.324-1.556,2.19-3.263,2.19c-2.114,0-3.542-1.224-3.771-3.899h9.913v-0.74
	C447.241,49.342,444.973,46.311,440.999,46.311 M437.354,52.018c0.331-2.421,1.731-3.566,3.646-3.566
	c2.139,0,3.387,1.528,3.617,3.566H437.354z"/>
<path fill="#FFFFFF" d="M454.746,57.854c-2.039,0-3.619-1.479-3.619-4.663c0-3.187,1.528-4.664,3.619-4.664
	c1.555,0,2.904,0.843,3.262,2.677h2.599c-0.406-2.982-2.599-4.894-5.86-4.894c-3.771,0-6.271,2.676-6.271,6.881
	s2.549,6.882,6.271,6.882c3.135,0,5.479-1.887,5.887-4.996h-2.599C457.727,56.988,456.326,57.854,454.746,57.854"/>
<path fill="#FFFFFF" d="M465.821,42.843h-2.55v3.772h-2.114v2.09h2.114v8.129c0,2.193,1.276,3.008,3.646,3.008
	c0.459,0,0.994-0.025,1.554-0.076v-2.039h-1.146c-1.122,0-1.504-0.357-1.504-1.121v-7.9h2.649v-2.09h-2.649V42.843z"/>
<path fill="#FFFFFF" d="M478.505,54.031c0,2.65-1.732,3.797-3.313,3.797c-1.785,0-2.779-0.865-2.779-2.752v-8.461h-2.549v8.818
	c0,3.007,1.786,4.638,4.615,4.638c1.859,0,3.286-0.968,4.128-2.269v1.963h2.446v-13.15h-2.549V54.031z"/>
<path fill="#FFFFFF" d="M486.027,48.96v-2.345h-2.446v13.15h2.549V52.63c0-2.524,1.58-3.772,4.103-3.772h0.637v-2.42
	c-0.279-0.026-0.51-0.026-0.738-0.026C488.04,46.411,486.741,47.533,486.027,48.96"/>
<path fill="#FFFFFF" d="M497.672,46.311c-3.748,0-6.246,2.752-6.246,6.88c0,4.229,2.575,6.882,6.295,6.882
	c3.16,0,5.226-1.785,5.889-4.332h-2.574c-0.459,1.324-1.555,2.19-3.263,2.19c-2.115,0-3.542-1.224-3.771-3.899h9.914v-0.74
	C503.915,49.342,501.646,46.311,497.672,46.311 M494.026,52.018c0.331-2.421,1.732-3.566,3.646-3.566
	c2.139,0,3.388,1.528,3.618,3.566H494.026z"/>
<path fill="#FFFFFF" d="M268.965,49.47l-1.58-0.332c-3.109-0.688-3.95-1.452-3.95-3.058c0-1.555,1.222-2.547,3.67-2.547
	c3.287,0,4.332,1.272,4.485,3.414h2.701c-0.076-3.162-1.988-5.734-7.213-5.734c-4.026,0-6.423,1.962-6.423,4.918
	c0,3.288,2.372,4.689,5.66,5.352l1.553,0.332c3.034,0.662,4.104,1.401,4.104,3.008c0,1.986-1.503,3.031-4.18,3.031
	c-2.753,0-4.892-0.943-4.943-4.076h-2.729c0.028,4.383,3.06,6.396,7.62,6.396c4.436,0,7.061-2.064,7.061-5.43
	C274.801,51.992,273.194,50.361,268.965,49.47"/>
</svg>
