<?xml version="1.0" encoding="utf-8"?>
<!-- Generator: Adobe Illustrator 17.0.2, SVG Export Plug-In . SVG Version: 6.00 Build 0)  -->
<!DOCTYPE svg PUBLIC "-//W3C//DTD SVG 1.1//EN" "http://www.w3.org/Graphics/SVG/1.1/DTD/svg11.dtd">
<svg version="1.1" id="Calque_1" xmlns="http://www.w3.org/2000/svg" xmlns:xlink="http://www.w3.org/1999/xlink" x="0px" y="0px"
	 width="27px" height="27px" viewBox="0 0 412 412" enable-background="new 0 0 412 412" xml:space="preserve">
<path id="twitter-4-icon" fill="#FECD08" d="M206,0.06c-113.771,0-206,92.229-206,206s92.229,206,206,206s206-92.229,206-206
	S319.771,0.06,206,0.06z M309.599,170.566c3.021,67.199-47.096,142.124-135.802,142.124c-26.981,0-52.096-7.911-73.238-21.466
	c25.347,2.987,50.646-4.044,70.734-19.786c-20.907-0.386-38.554-14.198-44.632-33.181c7.486,1.432,14.851,1.013,21.575-0.816
	c-22.976-4.617-38.839-25.317-38.321-47.453c6.44,3.58,13.81,5.729,21.642,5.977c-21.278-14.221-27.303-42.318-14.785-63.789
	c23.563,28.906,58.77,47.928,98.478,49.92c-6.969-29.886,15.702-58.667,46.542-58.667c13.742,0,26.16,5.802,34.874,15.088
	c10.884-2.143,21.108-6.119,30.341-11.594c-3.567,11.157-11.144,20.521-21.008,26.433c9.665-1.153,18.874-3.722,27.441-7.523
	C327.035,155.415,318.935,163.831,309.599,170.566z"/>
</svg>
