<?xml version="1.0" encoding="utf-8"?>
<!-- Generator: Adobe Illustrator 17.0.2, SVG Export Plug-In . SVG Version: 6.00 Build 0)  -->
<!DOCTYPE svg PUBLIC "-//W3C//DTD SVG 1.1//EN" "http://www.w3.org/Graphics/SVG/1.1/DTD/svg11.dtd">
<svg version="1.1"
	 id="svg2985" inkscape:version="0.48.4 r9939" sodipodi:docname="City_StyleGuide_ofa2.pdf" xmlns:cc="http://creativecommons.org/ns#" xmlns:svg="http://www.w3.org/2000/svg" xmlns:sodipodi="http://sodipodi.sourceforge.net/DTD/sodipodi-0.dtd" xmlns:dc="http://purl.org/dc/elements/1.1/" xmlns:rdf="http://www.w3.org/1999/02/22-rdf-syntax-ns#" xmlns:inkscape="http://www.inkscape.org/namespaces/inkscape"
	 xmlns="http://www.w3.org/2000/svg" xmlns:xlink="http://www.w3.org/1999/xlink" x="0px" y="0px" width="149.812px"
	 height="46.374px" viewBox="0 0 149.812 46.374" enable-background="new 0 0 149.812 46.374" xml:space="preserve">
<title  id="title3225">CUNY City College Logo</title>
<sodipodi:namedview  id="namedview2987" gridtolerance="10" fit-margin-left="0" guidetolerance="10" borderopacity="1" inkscape:zoom="2.9688125" pagecolor="#ffffff" inkscape:cx="222.22187" showgrid="false" inkscape:cy="-17.659113" objecttolerance="10" fit-margin-top="0" bordercolor="#666666" fit-margin-bottom="0" fit-margin-right="0" inkscape:window-x="-9" inkscape:current-layer="g2993" inkscape:pageopacity="0" inkscape:window-height="1005" inkscape:pageshadow="2" inkscape:window-maximized="1" inkscape:window-y="-9" inkscape:window-width="1920">
	</sodipodi:namedview>
<g id="g3053">
	<g id="g3059" transform="translate(161.3701,565.5376)">
		<path id="path3061" inkscape:connector-curvature="0" fill="#FFFFFF" d="M-152.156-530.269c-1.179,0-2.383,0.448-3.285,1.052
			c-1.276,0.924-2.178,2.323-2.178,4.408c0,2.719,1.326,5.645,4.986,5.645c1.053,0,2.231-0.5,2.909-0.974
			c1.553-1.029,2.329-2.798,2.329-4.83C-147.395-527.924-149.148-530.269-152.156-530.269 M-153.009-529.242
			c2.131,0,3.486,2.059,3.486,5.12c0,1.61-0.276,2.666-0.954,3.325c-0.426,0.422-1.003,0.555-1.53,0.555
			c-2.006,0-3.485-2.111-3.485-5.226c0-2.006,0.626-2.956,1.279-3.405C-153.886-529.111-153.41-529.242-153.009-529.242
			 M-145.839-520.167c-0.125,0.109-0.1,0.661,0,0.766c0.526,0,1.454-0.076,2.53-0.076c1.453,0,2.405,0.076,3.006,0.076
			c0.1-0.079,0.15-0.658,0.075-0.762c-0.726-0.079-0.977-0.131-1.329-0.211c-0.526-0.131-0.701-0.395-0.726-0.976
			c-0.075-1.425-0.075-4.461-0.1-7.021c0-0.079,0.1-0.237,0.15-0.237c0.626,0,1.73,0.026,2.481,0.026
			c0.025-0.393,0.151-1.079,0.226-1.395c-0.351,0.026-0.977,0.079-2.682,0.079c-0.075,0-0.15-0.131-0.15-0.184
			c0-0.133-0.025-0.422-0.025-0.607c0.025-1.98,0.075-3.881,0.776-4.672c0.326-0.37,0.652-0.475,1.029-0.475
			c0.726,0,1.529,0.58,2.08,1.109c0.075,0.026,0.225,0.026,0.275-0.026c0.201-0.159,0.777-1.189,0.853-1.478
			c0.025-0.052,0.025-0.211,0-0.29c-0.275-0.5-1.002-0.842-1.83-0.842c-0.651,0-1.604,0.369-2.406,0.974
			c-2.052,1.559-2.629,3.565-2.654,6.335c0,0.026-0.05,0.158-0.1,0.185c-0.2,0.131-0.827,0.343-1.228,0.421
			c-0.101,0.131-0.251,0.525-0.251,0.763l1.429,0.079c0.075,0,0.15,0.185,0.15,0.237c-0.025,2.639-0.025,5.673-0.075,7.096
			c0,0.475-0.1,0.766-0.501,0.924C-144.836-520.352-145.839-520.167-145.839-520.167z M-133.131-535.047
			c0.978,0.105,1.529,0.237,2.005,0.58c0.551,0.318,0.677,0.897,0.677,1.294c-0.05,5.541-0.126,9.844-0.226,11.216
			c-0.05,1.029-0.376,1.371-0.952,1.556c-0.376,0.106-0.776,0.185-1.329,0.238c-0.075,0.079-0.075,0.684,0,0.762
			c0.527,0,1.48-0.076,3.007-0.076c1.401,0,2.53,0.076,3.131,0.076c0.076-0.105,0.151-0.658,0.05-0.762
			c-0.626-0.079-1.128-0.131-1.504-0.264c-0.652-0.159-0.977-0.527-1.027-1.584c-0.075-1.478-0.075-7.653-0.025-10.371
			c0-0.026,0.075-0.052,0.1-0.026c1.504,1.979,8.399,11.058,9.728,13.06c0.301-0.026,1.452-0.026,1.728,0
			c-0.025-0.868-0.051-2.399-0.051-3.613c0.076-4.987,0.051-8.365,0.201-10.398c0.05-0.712,0.2-1.188,0.852-1.425
			c0.325-0.106,0.651-0.185,1.103-0.264c0.1-0.105,0.1-0.656,0-0.735c-0.326,0-1.805,0.075-2.655,0.075
			c-1.528,0-2.681-0.075-3.334-0.075c-0.075,0.079-0.1,0.63,0,0.735c0.677,0.079,1.229,0.185,1.68,0.316
			c0.753,0.211,0.902,0.634,0.954,1.399c0.125,1.9,0.1,6.835,0.1,10.451c-0.025,0.026-0.05,0.052-0.1,0.026
			c-1.204-1.479-6.344-8.076-8.901-11.454c-0.652-0.87-0.802-1.159-0.902-1.421c-0.201,0.026-0.626,0.026-1.126,0.026
			c-1.253,0-2.505-0.079-3.132-0.079C-133.181-535.704-133.206-535.126-133.131-535.047 M-106.966-522.011
			c-0.927,0.792-1.855,1.109-2.857,1.109c-1.128,0-1.98-0.342-2.732-1.161c-0.601-0.688-0.978-1.796-1.028-2.694
			c0-0.133,0.05-0.264,0.151-0.29c2.105-0.052,5.514-0.264,6.566-0.579c0.075-0.052,0.226-0.5,0.201-0.606
			c-0.251-0.079-0.351-0.185-0.376-0.29c-0.2-1.479-1.077-3.746-3.509-3.746c-0.802,0-1.93,0.341-2.708,0.867
			c-1.276,0.898-2.202,2.456-2.202,4.776c0,1.505,0.4,3.115,1.426,4.196c0.751,0.818,1.754,1.265,3.057,1.265
			c1.153,0,2.882-0.659,3.985-1.976c0.05-0.079,0.15-0.527,0.125-0.712C-106.891-521.932-106.941-521.985-106.966-522.011
			 M-111.328-529.27c1.354,0,2.181,1.506,2.306,2.826c0,0.106-0.075,0.185-0.125,0.237c-0.501,0.106-3.46,0.211-4.261,0.159
			c-0.075,0-0.126-0.131-0.126-0.185C-113.408-528.107-112.53-529.27-111.328-529.27 M-106.286-529.216
			c0.351,0.026,0.676,0.079,0.952,0.158c0.551,0.185,0.701,0.501,1.077,1.584c0.601,1.635,1.855,6.015,2.381,8.126
			c0.275-0.053,0.926-0.053,1.202,0c0.601-1.896,2.005-5.48,2.506-6.929c0.025-0.053,0.1-0.053,0.125-0.026
			c0.326,0.79,1.955,5.347,2.406,6.981c0.275-0.053,0.926-0.079,1.228-0.026c0.529-1.634,2.357-6.938,2.934-8.469
			c0.275-0.66,0.476-1.004,1.151-1.215c0.226-0.105,0.351-0.131,0.676-0.184c0.1-0.131,0.1-0.631,0-0.763
			c-0.475,0.026-1.151,0.076-2.179,0.076c-0.826,0-1.879-0.076-2.23-0.076c-0.1,0.105-0.15,0.579-0.1,0.763
			c0.526,0.079,0.853,0.131,1.154,0.237c0.476,0.158,0.476,0.395,0.426,0.818c-0.226,1.083-1.404,4.751-1.855,5.966
			c-0.025,0.052-0.075,0-0.101,0c-0.177-0.446-1.129-3.081-1.756-5.008c-0.3-0.899-0.526-1.585-0.651-2.14
			c-0.25,0.052-0.928,0.079-1.228,0.026c-0.426,1.665-1.755,5.331-2.406,7.016c-0.025,0.054-0.05,0.027-0.1,0.027
			c-0.326-0.981-1.529-5.202-1.729-6.231c-0.051-0.185-0.026-0.396,0.25-0.503c0.175-0.052,0.651-0.158,0.978-0.21
			c0.075-0.157,0.075-0.684-0.025-0.763c-0.476,0.026-1.679,0.076-2.556,0.076c-1.227,0-2.08-0.076-2.481-0.076
			C-106.336-529.874-106.386-529.374-106.286-529.216 M-87.989-535.047c0.526,0.079,0.851,0.105,1.153,0.185
			c0.902,0.237,1.127,0.449,2.105,2.242c1.004,1.926,2.483,4.83,3.009,6.096c0.125,0.318,0.2,0.898,0.2,1.268
			c0,1.134,0,2.11-0.025,3.404c-0.025,0.817-0.175,1.266-0.853,1.451c-0.426,0.106-1.052,0.185-1.704,0.264
			c-0.1,0.079-0.1,0.658,0,0.736c0.701,0,1.83-0.076,3.607-0.076c1.452,0,2.832,0.076,3.46,0.076c0.1-0.079,0.151-0.631,0.075-0.736
			c-0.677-0.079-1.129-0.131-1.53-0.238c-0.677-0.158-0.804-0.58-0.829-1.741c-0.025-1.346-0.05-2.665-0.05-3.695
			c0-0.238,0.1-0.686,0.201-0.924c0.576-1.188,2.434-4.644,3.511-6.412c0.651-1.083,1.001-1.478,1.752-1.689l1.052-0.211
			c0.1-0.079,0.1-0.682-0.025-0.735c-0.851,0.052-1.452,0.075-2.655,0.075c-0.876,0-2.005-0.05-2.759-0.075
			c-0.125,0.052-0.175,0.604-0.075,0.735c0.552,0.105,0.854,0.133,1.18,0.211c0.702,0.159,0.728,0.528,0.501,1.029
			c-0.476,1.214-2.234,4.566-3.11,6.07c-0.025,0.026-0.125,0.026-0.15,0.026c-0.526-0.924-2.505-4.935-3.156-6.412
			c-0.175-0.37-0.15-0.634,0.175-0.739c0.176-0.052,0.627-0.133,0.902-0.185c0.125-0.105,0.1-0.656-0.025-0.735
			c-0.301,0.025-1.93,0.075-2.783,0.075c-1.152,0-2.481-0.075-3.107-0.075C-88.039-535.677-88.064-535.152-87.989-535.047
			 M-69.994-530.269c-1.179,0-2.382,0.448-3.285,1.052c-1.276,0.924-2.178,2.323-2.178,4.408c0,2.719,1.326,5.645,4.986,5.645
			c1.054,0,2.233-0.5,2.909-0.974c1.552-1.029,2.329-2.798,2.329-4.83C-65.233-527.924-66.985-530.269-69.994-530.269
			 M-70.846-529.242c2.131,0,3.486,2.059,3.486,5.12c0,1.61-0.276,2.666-0.954,3.325c-0.426,0.422-1.003,0.555-1.529,0.555
			c-2.006,0-3.486-2.111-3.486-5.226c0-2.006,0.626-2.956,1.279-3.405C-71.724-529.111-71.248-529.242-70.846-529.242
			 M-57.714-530.269c-0.476,0-0.878,0.185-1.278,0.501c-0.577,0.423-1.104,1.029-1.58,1.663c-0.05,0.026-0.125,0.026-0.125-0.052
			c0-0.501,0.025-1.663,0.05-2.033c0-0.052-0.075-0.105-0.125-0.105c-0.676,0.422-2.153,0.87-3.055,0.976
			c-0.075,0.052-0.125,0.449-0.125,0.58c1.128,0.422,1.327,0.739,1.379,1.109c0.025,0.316,0.025,1.108,0.025,2.084
			c0,1.821-0.025,4.011-0.076,4.433c-0.05,0.475-0.2,0.634-0.45,0.739c-0.276,0.106-0.677,0.185-0.979,0.211
			c-0.1,0.105-0.075,0.658,0,0.762c0.451-0.026,1.73-0.076,2.505-0.076c1.001,0,2.631,0.076,2.931,0.076
			c0.126-0.105,0.151-0.631,0.101-0.762c-0.553-0.053-1.129-0.131-1.58-0.264c-0.376-0.131-0.501-0.395-0.526-0.844
			c-0.025-0.527-0.05-3.246-0.05-5.04c0-0.343,0.125-0.739,0.2-0.898c0.326-0.554,0.828-1.107,1.329-1.107
			c0.576,0,1.154,0.396,1.63,0.818c0.025,0,0.175-0.079,0.2-0.105c0.251-0.316,0.728-1.346,0.778-1.662
			c0.025-0.105,0.025-0.343,0-0.422C-56.736-530.057-57.238-530.269-57.714-530.269 M-50.744-529.164
			c0.401,0.026,0.929,0.133,1.179,0.185c0.276,0.079,0.326,0.264,0.301,0.396c-0.1,0.449-1.355,2.006-2.257,2.799
			c-0.426,0.37-0.829,0.554-1.18,0.634c0-4.434,0-7.469,0.051-9.58c0.025-1.215,0.075-1.976,0.275-2.346
			c0-0.079-0.125-0.29-0.2-0.29c-0.776,0.342-2.279,0.634-3.708,0.739c-0.075,0.052-0.1,0.578-0.025,0.682
			c0.501,0.052,1.003,0.106,1.254,0.185c0.301,0.106,0.401,0.37,0.426,0.713c0.05,0.66,0.046,2.93,0.046,8.735
			c0,1.294,0.004,4.274-0.046,5.092c-0.025,0.555-0.15,0.74-0.551,0.871c-0.301,0.106-0.603,0.132-0.927,0.185
			c-0.125,0.079-0.1,0.684,0,0.762c0.401,0,1.128-0.076,2.505-0.076c1.101,0,2.055,0.076,2.506,0.076
			c0.125-0.105,0.175-0.658,0.1-0.762c-0.426-0.053-0.778-0.131-1.029-0.185c-0.476-0.131-0.626-0.342-0.626-0.976
			c-0.051-1.03-0.051-2.06-0.051-3.248c0.503,0,0.728,0.211,0.879,0.423c1.128,1.451,2.556,3.67,3.383,4.381
			c0.201,0.158,0.576,0.42,1.129,0.42c0.876,0,2.13,0.026,2.456-0.053c0.1-0.079,0.175-0.658,0.1-0.762
			c-0.903-0.026-1.254-0.053-1.854-0.554c-1.003-0.871-3.206-3.671-3.909-4.829c-0.026-0.026-0.026-0.131,0-0.157l2.481-2.665
			c0.601-0.634,1.151-0.793,2.129-0.976c0.1-0.133,0.1-0.686,0-0.791c-0.977,0.131-2.655,0.236-4.761,0.236
			C-50.769-529.82-50.819-529.295-50.744-529.164"/>
	</g>
	<g id="g3063" transform="translate(230.0366,589.0273)">
		<path id="path3065" inkscape:connector-curvature="0" fill="#FFFFFF" d="M-134.99-583.12c0.025,0.133,0.674,0.052,0.774-0.052
			c0.025-1.188,0.251-3.141,0.401-4.064c-1.125-0.076-2.805-0.525-4.936-0.525c-2.131,0-3.76,0.449-5.09,1.21
			c-2.755,1.557-3.982,4.407-3.982,7.258c0,5.49,3.105,8.705,8.696,8.705c1.53,0,3.11-0.394,3.836-0.657
			c0.576-0.367,1.651-2.426,1.902-3.561c-0.05-0.184-0.476-0.421-0.601-0.421c-0.65,1.16-1.251,2.058-1.877,2.586
			c-0.626,0.606-1.68,0.896-2.758,0.896c-4.464,0-6.695-3.562-6.695-7.785c0-4.46,2.081-7.284,5.716-7.284
			c1.204,0,2.283,0.159,3.11,0.581C-135.566-585.759-135.241-585.232-134.99-583.12 M-126.745-581.852
			c-1.179,0-2.382,0.448-3.285,1.053c-1.278,0.924-2.178,2.322-2.178,4.407c0,2.719,1.326,5.645,4.986,5.645
			c1.052,0,2.231-0.5,2.909-0.974c1.552-1.029,2.327-2.797,2.327-4.83C-121.985-579.507-123.736-581.852-126.745-581.852
			 M-127.597-580.825c2.131,0,3.485,2.059,3.485,5.12c0,1.61-0.275,2.666-0.952,3.326c-0.426,0.421-1.003,0.554-1.53,0.554
			c-2.006,0-3.485-2.111-3.485-5.226c0-2.006,0.626-2.956,1.279-3.405C-128.475-580.694-127.999-580.825-127.597-580.825
			 M-121.33-570.984c0.326,0,1.504-0.076,2.48-0.076c1.328,0,2.129,0.076,2.58,0.076c0.1-0.131,0.151-0.631,0.1-0.763
			c-0.551-0.052-0.751-0.105-1.052-0.237c-0.451-0.158-0.526-0.475-0.551-1.188c-0.05-0.713-0.075-2.506-0.075-6.65
			c0-2.27,0-5.251,0.025-6.597c0-1.291,0.075-1.818,0.225-2.293c0-0.052-0.1-0.211-0.175-0.237
			c-0.901,0.422-2.452,0.871-3.681,0.976c-0.1,0.079-0.125,0.578-0.025,0.656c0.601,0.08,1.052,0.16,1.304,0.237
			c0.325,0.08,0.35,0.528,0.375,0.819c0.076,0.791,0.076,4.671,0.076,6.544c0,4.302-0.026,6.122-0.101,6.968
			c-0.025,0.37-0.125,0.607-0.4,0.739c-0.301,0.132-0.628,0.185-1.104,0.264C-121.43-571.589-121.38-571.115-121.33-570.984
			 M-115.69-570.984c0.325,0,1.504-0.076,2.48-0.076c1.326,0,2.129,0.076,2.58,0.076c0.1-0.131,0.15-0.631,0.1-0.763
			c-0.551-0.052-0.752-0.105-1.052-0.237c-0.451-0.158-0.526-0.475-0.552-1.188c-0.05-0.713-0.075-2.506-0.075-6.65
			c0-2.27,0-5.251,0.025-6.597c0-1.291,0.076-1.818,0.226-2.293c0-0.052-0.1-0.211-0.176-0.237c-0.9,0.422-2.452,0.871-3.681,0.976
			c-0.1,0.079-0.125,0.578-0.025,0.656c0.603,0.08,1.053,0.16,1.304,0.237c0.326,0.08,0.351,0.528,0.376,0.819
			c0.075,0.791,0.075,4.671,0.075,6.544c0,4.302-0.025,6.122-0.1,6.968c-0.025,0.37-0.126,0.607-0.401,0.739
			c-0.301,0.132-0.626,0.185-1.103,0.264C-115.791-571.589-115.741-571.115-115.69-570.984 M-101.607-573.594
			c-0.927,0.793-1.855,1.109-2.857,1.109c-1.128,0-1.98-0.342-2.732-1.161c-0.601-0.686-0.978-1.796-1.028-2.694
			c0-0.131,0.05-0.264,0.151-0.29c2.105-0.052,5.514-0.264,6.566-0.579c0.076-0.051,0.226-0.5,0.201-0.606
			c-0.251-0.079-0.351-0.184-0.376-0.29c-0.2-1.479-1.077-3.746-3.509-3.746c-0.803,0-1.93,0.342-2.708,0.867
			c-1.276,0.897-2.202,2.456-2.202,4.776c0,1.505,0.4,3.115,1.426,4.198c0.751,0.816,1.754,1.264,3.057,1.264
			c1.153,0,2.882-0.659,3.985-1.976c0.05-0.079,0.15-0.528,0.125-0.713C-101.532-573.515-101.582-573.568-101.607-573.594
			 M-105.969-580.852c1.354,0,2.181,1.505,2.306,2.825c0,0.106-0.075,0.185-0.125,0.239c-0.501,0.105-3.46,0.21-4.261,0.157
			c-0.075,0-0.126-0.131-0.126-0.185C-108.049-579.69-107.171-580.852-105.969-580.852 M-95.214-581.852
			c-0.927-0.026-2.434,0.58-3.134,1.158c-0.976,0.792-1.402,1.927-1.402,3.062c0,2.139,1.026,3.273,2.304,3.745
			c0.05,0.026,0.075,0.105,0.025,0.159c-0.351,0.29-1.277,0.87-1.652,1.107c-0.025,0.08-0.1,0.344-0.1,0.449
			c0.075,0.555,0.6,1.294,1.577,1.637c0.025,0,0.025,0.079,0.025,0.079c-1.077,0.819-2.129,1.662-2.429,2.059
			c-0.1,0.159-0.175,0.765-0.175,1.003c0,0.845,0.425,1.795,1.2,2.454c0.826,0.659,1.805,0.948,3.009,0.948
			c0.903,0,1.83-0.184,2.859-0.736c1.88-0.975,3.055-2.636,3.055-4.406c0-1.426-0.825-2.244-1.751-2.588
			c-0.827-0.316-3.009-0.421-4.137-0.528c-0.526-0.052-1.004-0.29-1.004-0.791c0-0.423,0.426-0.66,0.652-0.686
			c0.075-0.028,0.401-0.054,0.476-0.054c0.702-0.079,1.681-0.315,2.659-1.077c0.825-0.688,1.476-1.611,1.476-3.432
			c0-0.475-0.125-1.056-0.2-1.294c-0.025-0.052,0.025-0.133,0.05-0.133c0.275,0.026,0.325,0.026,0.601,0.026
			c0.501,0,0.701-0.131,0.877-0.315c0.275-0.289,0.626-1.159,0.626-1.475c-0.025-0.054-0.251-0.211-0.326-0.185
			c-0.326,0.369-0.601,0.58-1.504,0.58c-0.55,0-1.026-0.105-1.426-0.264C-93.709-581.642-94.336-581.852-95.214-581.852
			 M-96.016-580.879c1.856,0,2.482,1.744,2.482,3.326c0,1.056-0.275,1.875-0.676,2.297c-0.301,0.343-0.778,0.475-1.154,0.475
			c-1.731,0-2.484-1.769-2.484-3.459C-97.847-579.823-97.145-580.879-96.016-580.879 M-94.964-565.308
			c-0.978,0-1.88-0.237-2.582-0.845c-0.577-0.528-0.827-1.135-0.827-1.795c0-0.739,0.426-1.399,1.379-2.059
			c0.226-0.133,0.528-0.264,0.903-0.264c1.029,0,2.357,0.131,3.085,0.449c0.777,0.316,1.279,0.898,1.279,1.874
			C-91.729-566.654-92.631-565.308-94.964-565.308 M-80.527-573.594c-0.928,0.793-1.855,1.109-2.857,1.109
			c-1.128,0-1.98-0.342-2.733-1.161c-0.601-0.686-0.978-1.796-1.027-2.694c0-0.131,0.05-0.264,0.151-0.29
			c2.105-0.052,5.514-0.264,6.566-0.579c0.075-0.051,0.226-0.5,0.201-0.606c-0.251-0.079-0.351-0.184-0.376-0.29
			c-0.201-1.479-1.077-3.746-3.509-3.746c-0.802,0-1.93,0.342-2.707,0.867c-1.276,0.897-2.202,2.456-2.202,4.776
			c0,1.505,0.4,3.115,1.426,4.198c0.751,0.816,1.754,1.264,3.057,1.264c1.153,0,2.882-0.659,3.985-1.976
			c0.05-0.079,0.15-0.528,0.125-0.713C-80.452-573.515-80.502-573.568-80.527-573.594 M-84.889-580.852
			c1.354,0,2.181,1.505,2.306,2.825c0,0.106-0.075,0.185-0.125,0.239c-0.503,0.105-3.46,0.21-4.261,0.157
			c-0.076,0-0.126-0.131-0.126-0.185C-86.969-579.69-86.092-580.852-84.889-580.852"/>
	</g>
	<g id="g3067" transform="translate(194.9463,589.0273)">
		<path id="path3069" inkscape:connector-curvature="0" fill="#FFFFFF" d="M-143.762-583.12c0.025,0.133,0.674,0.052,0.774-0.052
			c0.025-1.188,0.251-3.141,0.401-4.064c-1.125-0.076-2.805-0.525-4.936-0.525s-3.76,0.449-5.09,1.21
			c-2.755,1.557-3.982,4.407-3.982,7.258c0,5.49,3.105,8.705,8.696,8.705c1.53,0,3.11-0.394,3.836-0.657
			c0.576-0.367,1.651-2.426,1.902-3.561c-0.05-0.184-0.476-0.421-0.601-0.421c-0.65,1.16-1.251,2.058-1.878,2.586
			c-0.626,0.606-1.68,0.896-2.757,0.896c-4.464,0-6.695-3.562-6.695-7.785c0-4.46,2.081-7.284,5.716-7.284
			c1.204,0,2.282,0.159,3.11,0.581C-144.339-585.759-144.014-585.232-143.762-583.12 M-137.475-585.624
			c0-0.237-0.1-0.581-0.25-0.765c-0.05-0.08-0.325-0.211-0.726-0.211c-0.45,0-0.976,0.264-1.201,0.475
			c-0.125,0.131-0.15,0.606-0.125,0.765c0.075,0.528,0.275,0.896,0.651,1.081c0.15,0.106,1.001,0.026,1.126-0.052
			C-137.675-584.595-137.475-585.123-137.475-585.624 M-135.97-571.747c-0.577-0.079-0.728-0.131-1.054-0.211
			c-0.375-0.131-0.526-0.421-0.526-0.896c-0.025-1.188-0.021-2.955-0.021-4.406c0-1.61,0.021-3.43,0.021-4.617
			c-0.976,0.423-2.502,0.739-3.255,0.765c-0.1,0.079-0.175,0.528-0.1,0.634c0.501,0.184,0.928,0.343,1.202,0.633
			c0.151,0.185,0.176,0.396,0.176,0.555c0,0.528,0.025,1.478,0.025,2.506c0,1.451,0,3.193-0.05,3.851
			c-0.05,0.607-0.126,0.819-0.451,0.95c-0.301,0.106-0.653,0.185-1.079,0.237c-0.1,0.105-0.1,0.684,0,0.763
			c0.426,0,1.404-0.076,2.455-0.076c1.277,0,2.079,0.076,2.555,0.076C-135.97-571.063-135.895-571.615-135.97-571.747
			 M-128.827-580.167c0.025-0.392,0.151-1.077,0.226-1.447c-0.376,0.052-1.855,0.133-3.059,0.133c-0.05,0-0.1-0.106-0.1-0.159
			c0-1.848,0.075-3.034,0.125-3.483c-0.075-0.026-0.325-0.026-0.45,0.026c-0.275,0.343-1.201,1.003-1.601,1.214v2.243
			c0,0.079-0.075,0.185-0.101,0.185c-0.2,0.105-0.826,0.237-1.178,0.29c-0.1,0.131-0.251,0.71-0.225,0.867l1.353,0.105
			c0.101,0.026,0.151,0.159,0.151,0.238c0,1.056-0.025,3.431-0.025,4.936c0,1.69,0.025,2.376,0.35,3.009
			c0.425,0.844,1.226,1.264,2.202,1.264c0.802,0,1.855-0.343,2.482-1.159c0.05-0.105,0.125-0.737,0.075-0.818
			c-0.501,0.318-0.853,0.449-1.555,0.449c-0.626,0-1.253-0.316-1.479-1.029c-0.1-0.344-0.15-0.845-0.15-1.901
			c-0.025-1.292-0.025-3.616,0-4.856c0-0.026,0.05-0.133,0.1-0.133C-130.732-580.193-129.454-580.167-128.827-580.167
			 M-128.097-580.799c0.401,0.052,0.601,0.105,0.853,0.157c0.701,0.211,0.976,0.686,1.629,2.401
			c0.776,1.953,1.854,4.881,2.405,6.385c0.05,0.106,0.2,0.449,0.2,0.475c-0.926,2.085-2.856,4.696-3.682,5.779
			c-0.026,0.053,0,0.343,0.025,0.421c0.225,0.237,0.951,0.634,1.302,0.713l0.175-0.105c0.176-0.37,0.476-0.924,0.778-1.477
			c2.13-3.905,4.134-8.444,5.914-13.351c0.225-0.685,0.526-1.055,0.978-1.186c0.25-0.106,0.526-0.159,0.901-0.211
			c0.075-0.158,0.075-0.658-0.025-0.763c-0.701,0.026-1.427,0.076-2.33,0.076c-0.878,0-1.855-0.076-2.155-0.076
			c-0.1,0.105-0.175,0.605-0.1,0.763c0.451,0.052,0.851,0.131,1.103,0.211c0.476,0.157,0.476,0.475,0.426,0.765
			c-0.176,1.319-1.279,4.274-2.055,6.015c-0.025,0.026-0.075,0-0.1,0c-0.176-0.342-1.83-4.828-2.256-6.332
			c-0.025-0.105,0-0.369,0.201-0.448c0.175-0.08,0.551-0.133,0.926-0.211c0.076-0.131,0.051-0.684-0.05-0.763
			c-0.375,0-1.477,0.076-2.555,0.076s-1.98-0.076-2.431-0.076C-128.122-581.509-128.172-580.957-128.097-580.799"/>
	</g>
	<g id="g3071" transform="translate(156.9878,579.9277)">
		<path id="path3073" inkscape:connector-curvature="0" fill="#FFFFFF" d="M-153.252-562.646c-0.1,0.105-0.125,0.63,0,0.761
			c0.701-0.025,2.481-0.075,3.632-0.075c1.001,0,2.531,0.05,3.66,0.075c0.125-0.079,0.175-0.656,0.1-0.761
			c-0.853-0.105-1.254-0.159-1.655-0.29c-0.553-0.159-0.753-0.422-0.803-1.372c-0.075-1.346-0.1-8.626-0.1-12.484
			c0-0.052,0.075-0.21,0.15-0.236c0.576-0.052,4.239-0.052,5.417-0.026c0.125,0.026,0.2,0.158,0.225,0.289
			c0,0.97,0.025,2.151,0.025,8.419c0,0.607-0.025,3.747-0.05,4.381c-0.025,0.739-0.1,0.978-0.551,1.135
			c-0.226,0.08-0.553,0.133-1.004,0.185c-0.1,0.105-0.1,0.656,0,0.761c0.476,0,1.73-0.075,2.531-0.075
			c0.951,0,2.28,0.075,2.606,0.075c0.075-0.105,0.125-0.683,0.025-0.761c-0.451-0.052-0.653-0.105-0.954-0.159
			c-0.526-0.184-0.601-0.395-0.651-1.24c-0.05-0.739-0.05-4.013-0.05-5.834c0-0.184,0.1-0.475,0.3-0.633
			c0.577-0.449,1.33-0.714,2.008-0.714c1.63,0,2.231,1.109,2.357,1.901c0.2,1.24,0.125,3.828,0.1,5.12
			c-0.025,1.056-0.1,1.241-0.476,1.372c-0.251,0.08-0.628,0.133-1.004,0.185c-0.1,0.105-0.075,0.656,0,0.761
			c0.351-0.025,1.505-0.049,2.281-0.075c1.126-0.026,2.254,0.075,2.655,0.075c0.1-0.079,0.175-0.656,0.1-0.761
			c-0.576-0.079-0.952-0.159-1.279-0.342c-0.2-0.106-0.325-0.291-0.325-0.608c-0.025-1.161-0.025-3.537-0.025-4.962
			c0-2.612-1.151-4.193-3.131-4.193c-0.903,0-2.132,0.526-3.461,1.58c-0.05,0.026-0.1,0.026-0.1-0.026c0-0.738-0.025-3.864,0-5.595
			c0.025-1.949,0.05-2.792,0.05-2.977c0-0.079-0.075-0.131-0.15-0.158c-0.251,0.079-1.076,0.369-1.728,0.395
			c-0.075,0-0.125,0.133-0.125,0.185v1.029c0,0.079-0.075,0.133-0.125,0.133l-11.43,0.026c-0.902-0.026-1.579-0.185-2.005-0.422
			c-0.075-0.026-0.276,0.026-0.301,0.079c-0.075,1.161-0.3,3.088-0.476,4.222c0.025,0.131,0.652,0.29,0.777,0.21
			c0.376-1.095,0.676-1.883,1.003-2.406c0.225-0.367,0.576-0.578,0.928-0.578c0.952-0.026,3.082-0.052,3.509,0
			c0.1,0,0.201,0.158,0.201,0.263c0,4.331-0.025,9.896-0.076,11.955c-0.05,1.241-0.15,1.769-0.952,1.927
			C-151.973-562.831-152.475-562.725-153.252-562.646 M-123.352-564.494c-0.928,0.792-1.855,1.109-2.857,1.109
			c-1.129,0-1.98-0.344-2.733-1.161c-0.601-0.688-0.978-1.796-1.027-2.694c0-0.133,0.05-0.264,0.15-0.291
			c2.106-0.052,5.515-0.262,6.567-0.577c0.075-0.053,0.225-0.5,0.2-0.606c-0.25-0.079-0.35-0.185-0.375-0.29
			c-0.201-1.48-1.079-3.746-3.51-3.746c-0.801,0-1.93,0.341-2.706,0.867c-1.277,0.898-2.202,2.456-2.202,4.775
			c0,1.506,0.4,3.116,1.426,4.198c0.751,0.816,1.754,1.264,3.056,1.264c1.154,0,2.882-0.658,3.986-1.975
			c0.05-0.079,0.15-0.529,0.125-0.712C-123.277-564.415-123.327-564.468-123.352-564.494 M-127.713-571.753
			c1.353,0,2.18,1.506,2.305,2.826c0,0.106-0.075,0.185-0.125,0.237c-0.501,0.106-3.459,0.211-4.261,0.159
			c-0.075,0-0.125-0.133-0.125-0.185C-129.795-570.59-128.917-571.753-127.713-571.753"/>
	</g>
</g>
</svg>
