<?xml version="1.0" encoding="utf-8"?>
<!-- Generator: Adobe Illustrator 17.0.2, SVG Export Plug-In . SVG Version: 6.00 Build 0)  -->
<!DOCTYPE svg PUBLIC "-//W3C//DTD SVG 1.1//EN" "http://www.w3.org/Graphics/SVG/1.1/DTD/svg11.dtd">
<svg version="1.1" id="Calque_1" xmlns="http://www.w3.org/2000/svg" xmlns:xlink="http://www.w3.org/1999/xlink" x="0px" y="0px"
	 width="720.303px" height="72.826px" viewBox="0 0 720.303 72.826" enable-background="new 0 0 720.303 72.826"
	 xml:space="preserve">
<g>
	<path d="M1.86,0.526h12.354c5.299,0,8.037,3.299,8.037,7.054c0,2.843-1.614,5.229-4.141,6.317c3.229,0.982,5.264,3.58,5.264,6.703
		c0,3.931-3.123,7.3-7.966,7.3H1.86V0.526z M3.931,2.491V13.16h10.739c3.334,0,5.475-2.562,5.475-5.369c0-2.772-2.036-5.3-6.037-5.3
		H3.931z M3.931,14.915V25.97h11.3c3.755,0,6.037-2.667,6.037-5.58c0-2.877-2.281-5.475-6.037-5.475H3.931z"/>
	<path d="M38.644,0.526h18.811v2.035h-16.74v10.915h14.249v1.965H40.715v10.424h16.74V27.9H38.644V0.526z"/>
	<path d="M84.763,0.526c5.931,0,9.335,4.07,9.335,8.809c0,3.86-2.246,7.265-6.247,8.458L95.045,27.9h-2.527l-6.914-9.722
		c-0.281,0.035-0.562,0.035-0.842,0.035H74.761V27.9H72.69V0.526H84.763z M74.761,2.491v13.758h9.932c4.773,0,7.37-3.229,7.37-6.879
		c0-3.615-2.597-6.879-7.37-6.879H74.761z"/>
	<path d="M109.685,27.9V0.526h1.86l18.952,23.829V0.526h2.07V27.9h-1.86L111.755,4.105V27.9H109.685z"/>
	<path d="M160.894,0.526L173.458,27.9h-2.281l-2.808-6.177h-17.197l-2.772,6.177h-2.316l12.564-27.374H160.894z M152.084,19.759
		h15.372l-7.686-16.986L152.084,19.759z"/>
	<path d="M199.081,0.526c5.931,0,9.335,4.07,9.335,8.809c0,3.86-2.246,7.265-6.247,8.458l7.194,10.107h-2.527l-6.914-9.722
		c-0.281,0.035-0.562,0.035-0.842,0.035h-10.002V27.9h-2.071V0.526H199.081z M189.079,2.491v13.758h9.932
		c4.773,0,7.37-3.229,7.37-6.879c0-3.615-2.597-6.879-7.37-6.879H189.079z"/>
	<path d="M224.003,0.526h10.704c8.317,0,12.739,6.036,12.739,13.687c0,7.687-4.422,13.688-12.739,13.688h-10.704V0.526z
		 M226.074,2.562v23.304h8.528c6.914,0,10.774-5.019,10.774-11.652c0-6.633-3.86-11.651-10.774-11.651H226.074z"/>
	<path d="M302.868,27.9l-3.825-4.106c-2.913,2.633-6.317,4.633-9.967,4.633c-4.808,0-7.37-2.983-7.37-6.106
		c0-4.422,4.247-6.562,7.826-8.669c-2.281-2.316-3.966-4.352-3.966-7.265c0-3.649,2.948-6.387,6.738-6.387
		c3.685,0,6.598,2.808,6.598,6.212c0,3.685-3.053,5.615-6.317,7.615l6.563,7.02c1.755-1.825,3.299-3.826,4.492-5.58l1.579,1.298
		c-1.263,1.825-2.843,3.896-4.667,5.791l5.159,5.545H302.868z M297.639,22.285l-6.878-7.37c-3.615,2.07-6.949,4.001-6.949,7.265
		c0,2.176,1.896,4.247,5.265,4.247C292.024,26.427,295.007,24.637,297.639,22.285z M291.322,12.528
		c3.334-2.141,5.615-3.614,5.615-6.316c0-2.387-2.071-4.353-4.633-4.353c-2.667,0-4.738,1.931-4.738,4.527
		C287.567,8.598,289.041,10.212,291.322,12.528z"/>
	<path d="M351.025,0.526L363.59,27.9h-2.281l-2.808-6.177h-17.197l-2.772,6.177h-2.316l12.564-27.374H351.025z M342.217,19.759
		h15.372l-7.687-16.986L342.217,19.759z"/>
	<path d="M377.141,27.9V0.526h1.86l18.951,23.829V0.526h2.07V27.9h-1.859L379.211,4.105V27.9H377.141z"/>
	<path d="M416.979,27.9V0.526h1.86l18.951,23.829V0.526h2.07V27.9h-1.859L419.049,4.105V27.9H416.979z"/>
	<path d="M456.816,0.526h18.812v2.035h-16.741v10.915h14.249v1.965h-14.249v10.424h16.741V27.9h-18.812V0.526z"/>
	<path d="M512.309,21.057v0.141c0,3.054,3.299,5.3,8.598,5.3c5.089,0,7.826-2.142,7.826-5.089c0-3.58-3.86-4.844-8.492-6.247
		c-4.458-1.369-9.757-3.054-9.757-8.002c0-4.281,3.79-7.159,9.722-7.159c6.036,0,10.247,2.982,10.247,7.089v0.316h-2.035V7.229
		c0-3.054-3.123-5.3-8.212-5.3c-4.879,0-7.546,2.141-7.546,5.089c0,3.51,3.72,4.738,8.178,6.142
		c4.387,1.334,10.107,3.019,10.107,8.143c0,4.316-3.966,7.124-10.038,7.124c-6.247,0-10.634-2.948-10.634-7.089v-0.281H512.309z"/>
	<path d="M545.968,0.526h10.563c6.388,0,10.037,4.352,10.037,9.44c0,4.983-3.649,9.405-10.037,9.405h-8.493V27.9h-2.07V0.526z
		 M548.038,2.491v14.916h8.423c5.089,0,8.002-3.58,8.002-7.44c0-4.036-2.913-7.476-8.002-7.476H548.038z"/>
	<path d="M583.208,0.526V27.9h-2.07V0.526H583.208z"/>
	<path d="M597.178,0.526h21.829v2.035h-9.896V27.9h-2.07V2.562h-9.862V0.526z"/>
	<path d="M630.838,0.526h18.601v1.579l-16.39,23.76h16.319V27.9h-19.127v-1.579l16.354-23.76h-15.758V0.526z"/>
	<path d="M663.901,0.526h18.811v2.035h-16.74v10.915h14.249v1.965h-14.249v10.424h16.74V27.9h-18.811V0.526z"/>
	<path d="M710.021,0.526c5.931,0,9.335,4.07,9.335,8.809c0,3.86-2.246,7.265-6.247,8.458l7.194,10.107h-2.526l-6.914-9.722
		c-0.281,0.035-0.562,0.035-0.842,0.035h-10.003V27.9h-2.07V0.526H710.021z M700.018,2.491v13.758h9.933
		c4.772,0,7.369-3.229,7.369-6.879c0-3.615-2.597-6.879-7.369-6.879H700.018z"/>
	<path d="M2.035,65.456v0.141c0,3.053,3.299,5.299,8.599,5.299c5.089,0,7.826-2.141,7.826-5.088c0-3.58-3.86-4.844-8.493-6.247
		C5.51,58.191,0.21,56.507,0.21,51.559c0-4.281,3.79-7.159,9.721-7.159c6.037,0,10.248,2.982,10.248,7.089v0.315h-2.036v-0.175
		c0-3.054-3.124-5.3-8.212-5.3c-4.878,0-7.545,2.141-7.545,5.089c0,3.51,3.72,4.738,8.177,6.142
		c4.387,1.334,10.107,3.019,10.107,8.143c0,4.316-3.966,7.124-10.037,7.124C4.387,72.826,0,69.878,0,65.737v-0.281H2.035z"/>
	<path d="M58.788,65.667c-2.457,4.281-7.089,7.159-12.354,7.159c-7.896,0-14.284-6.353-14.284-14.214
		c0-7.826,6.387-14.213,14.284-14.213c5.229,0,9.827,2.878,12.318,7.124l-1.895,0.912c-2.141-3.544-6.001-5.966-10.423-5.966
		c-6.703,0-12.178,5.475-12.178,12.143c0,6.703,5.475,12.144,12.178,12.144c4.457,0,8.317-2.422,10.458-6.002L58.788,65.667z"/>
	<path d="M95.011,44.926V72.3h-2.07V59.841H74.129V72.3h-2.071V44.926h2.071v12.95H92.94v-12.95H95.011z"/>
	<path d="M122.916,44.399c7.861,0,14.249,6.387,14.249,14.213c0,7.861-6.387,14.214-14.249,14.214
		c-7.896,0-14.284-6.353-14.284-14.214C108.632,50.786,115.02,44.399,122.916,44.399z M122.916,70.756
		c6.668,0,12.143-5.44,12.143-12.144c0-6.668-5.475-12.143-12.143-12.143c-6.703,0-12.178,5.475-12.178,12.143
		C110.738,65.315,116.213,70.756,122.916,70.756z"/>
	<path d="M163.105,44.399c7.861,0,14.249,6.387,14.249,14.213c0,7.861-6.387,14.214-14.249,14.214
		c-7.896,0-14.284-6.353-14.284-14.214C148.821,50.786,155.208,44.399,163.105,44.399z M163.105,70.756
		c6.668,0,12.143-5.44,12.143-12.144c0-6.668-5.475-12.143-12.143-12.143c-6.703,0-12.178,5.475-12.178,12.143
		C150.927,65.315,156.402,70.756,163.105,70.756z"/>
	<path d="M190.976,44.926h2.071v25.339h15.828V72.3h-17.898V44.926z"/>
	<path d="M252.889,44.399c7.861,0,14.249,6.387,14.249,14.213c0,7.861-6.387,14.214-14.249,14.214
		c-7.896,0-14.284-6.353-14.284-14.214C238.605,50.786,244.992,44.399,252.889,44.399z M252.889,70.756
		c6.668,0,12.143-5.44,12.143-12.144c0-6.668-5.475-12.143-12.143-12.143c-6.703,0-12.178,5.475-12.178,12.143
		C240.711,65.315,246.186,70.756,252.889,70.756z"/>
	<path d="M280.759,44.926h18.109v2.035H282.83v11.827h13.897v1.966H282.83V72.3h-2.071V44.926z"/>
	<path d="M341.235,44.926L353.799,72.3h-2.281l-2.808-6.177h-17.196l-2.772,6.177h-2.316l12.564-27.374H341.235z M332.426,64.157
		h15.372l-7.686-16.985L332.426,64.157z"/>
	<path d="M378.019,44.926c5.932,0,9.336,4.071,9.336,8.809c0,3.86-2.246,7.265-6.247,8.458l7.194,10.107h-2.526l-6.914-9.722
		c-0.28,0.035-0.562,0.035-0.843,0.035h-10.002V72.3h-2.07V44.926H378.019z M368.017,46.891v13.758h9.933
		c4.772,0,7.37-3.229,7.37-6.879c0-3.615-2.598-6.879-7.37-6.879H368.017z"/>
	<path d="M425.998,65.667c-2.457,4.281-7.089,7.159-12.354,7.159c-7.896,0-14.284-6.353-14.284-14.214
		c0-7.826,6.388-14.213,14.284-14.213c5.229,0,9.827,2.878,12.318,7.124l-1.896,0.912c-2.141-3.544-6.001-5.966-10.423-5.966
		c-6.703,0-12.178,5.475-12.178,12.143c0,6.703,5.475,12.144,12.178,12.144c4.457,0,8.317-2.422,10.458-6.002L425.998,65.667z"/>
	<path d="M462.221,44.926V72.3h-2.07V59.841h-18.812V72.3h-2.07V44.926h2.07v12.95h18.812v-12.95H462.221z"/>
	<path d="M479.878,44.926V72.3h-2.07V44.926H479.878z"/>
	<path d="M492.443,44.926h21.829v2.035h-9.896V72.3h-2.07V46.961h-9.862V44.926z"/>
	<path d="M526.876,44.926h18.811v2.035h-16.74v10.915h14.249v1.965h-14.249v10.424h16.74V72.3h-18.811V44.926z"/>
	<path d="M583.348,65.667c-2.457,4.281-7.089,7.159-12.354,7.159c-7.896,0-14.284-6.353-14.284-14.214
		c0-7.826,6.388-14.213,14.284-14.213c5.229,0,9.827,2.878,12.318,7.124l-1.896,0.912c-2.141-3.544-6.001-5.966-10.423-5.966
		c-6.703,0-12.178,5.475-12.178,12.143c0,6.703,5.475,12.144,12.178,12.144c4.457,0,8.317-2.422,10.458-6.002L583.348,65.667z"/>
	<path d="M592.898,44.926h21.829v2.035h-9.896V72.3h-2.07V46.961h-9.862V44.926z"/>
	<path d="M649.896,44.926v17.021c0,6.143-4.001,10.88-11.477,10.88c-7.475,0-11.476-4.737-11.476-10.88V44.926h2.07v16.951
		c0,5.158,3.299,8.914,9.405,8.914c6.142,0,9.405-3.756,9.405-8.914V44.926H649.896z"/>
	<path d="M677.171,44.926c5.931,0,9.335,4.071,9.335,8.809c0,3.86-2.246,7.265-6.247,8.458l7.194,10.107h-2.526l-6.914-9.722
		c-0.281,0.035-0.562,0.035-0.842,0.035h-10.003V72.3h-2.07V44.926H677.171z M667.168,46.891v13.758h9.933
		c4.772,0,7.369-3.229,7.369-6.879c0-3.615-2.597-6.879-7.369-6.879H667.168z"/>
	<path d="M700.688,44.926h18.812v2.035h-16.741v10.915h14.249v1.965h-14.249v10.424h16.741V72.3h-18.812V44.926z"/>
</g>
</svg>
