<?xml version="1.0" encoding="utf-8"?>
<!-- Generator: Adobe Illustrator 18.0.0, SVG Export Plug-In . SVG Version: 6.00 Build 0)  -->
<!DOCTYPE svg PUBLIC "-//W3C//DTD SVG 1.1//EN" "http://www.w3.org/Graphics/SVG/1.1/DTD/svg11.dtd">
<svg version="1.1" id="Layer_1" xmlns="http://www.w3.org/2000/svg" xmlns:xlink="http://www.w3.org/1999/xlink" x="0px" y="0px"
	  viewBox="0 0 239.5 238.4" enable-background="new 0 0 239.5 238.4" xml:space="preserve">
<path fill="#000000" d="M217.2,98.1L217.2,98.1l-0.1,0c-0.1,0-0.2,0-0.3,0s-0.2,0-0.3,0h-32.9v0h-42.2V22.3h-0.1c-0.2-11.6-9.6-20.9-21.3-20.9
	s-21,9.3-21.3,20.9h0v0.1c0,0.1,0,0.2,0,0.3s0,0.2,0,0.3v32.9h0v42.2H23.1v0.1c-11.6,0.2-20.9,9.6-20.9,21.3
	c0,11.6,9.3,21,20.9,21.3v0h0.1c0.1,0,0.2,0,0.3,0s0.2,0,0.3,0h32.9v0h42.2v75.8H99c0.2,11.6,9.6,20.9,21.3,20.9s21-9.3,21.3-20.9h0
	v-0.1c0-0.1,0-0.2,0-0.3s0-0.2,0-0.3v-32.9h0v-42.2h75.8v-0.1c11.6-0.2,20.9-9.6,20.9-21.3C238.1,107.7,228.8,98.3,217.2,98.1z"/>
</svg>
