<?xml version="1.0" encoding="utf-8"?>
<!-- Generator: Adobe Illustrator 17.0.2, SVG Export Plug-In . SVG Version: 6.00 Build 0)  -->
<!DOCTYPE svg PUBLIC "-//W3C//DTD SVG 1.1//EN" "http://www.w3.org/Graphics/SVG/1.1/DTD/svg11.dtd">
<svg version="1.1" id="Layer_1" xmlns="http://www.w3.org/2000/svg" xmlns:xlink="http://www.w3.org/1999/xlink" x="0px" y="0px"
	 width="9.949px" height="19.486px" viewBox="140.409 0 9.949 19.486" enable-background="new 140.409 0 9.949 19.486"
	 xml:space="preserve">
<g>
	<path d="M19.055,23L19.055,23c-0.27,0-0.535-0.109-0.725-0.3c-0.175-0.154-0.29-0.399-0.298-0.666
		c-0.009-0.281,0.1-0.556,0.298-0.755l6.862-9.778l-6.839-9.828c-0.168-0.172-0.264-0.398-0.27-0.645
		c-0.009-0.28,0.101-0.554,0.299-0.753c0.369-0.367,1.055-0.367,1.423,0l8.083,11.252l-8.083,11.115
		C19.592,22.886,19.337,23,19.055,23z"/>
</g>
<polyline fill="none" stroke="#000000" stroke-width="3" stroke-linecap="round" stroke-miterlimit="10" points="31.95,0 
	41.754,11.5 31.95,23 "/>
<path d="M100.652,23.014c-0.304,0-0.61-0.105-0.861-0.317c-0.558-0.476-0.624-1.314-0.149-1.872l7.945-9.318l-7.945-9.318
	c-0.475-0.558-0.409-1.396,0.149-1.872c0.56-0.476,1.397-0.408,1.872,0.149l9.413,11.041l-9.413,11.041
	C101.401,22.856,101.028,23.014,100.652,23.014z"/>
<path d="M141.532,19.485c-0.258,0-0.517-0.089-0.729-0.269c-0.472-0.403-0.528-1.112-0.126-1.585l6.727-7.889l-6.727-7.889
	c-0.403-0.472-0.346-1.182,0.126-1.585c0.474-0.403,1.183-0.345,1.585,0.126l7.969,9.348l-7.969,9.348
	C142.166,19.352,141.85,19.485,141.532,19.485z"/>
<path d="M124.999,23.014c0.304,0,0.61-0.105,0.861-0.317c0.558-0.476,0.624-1.314,0.149-1.872l-7.945-9.318l7.945-9.318
	c0.475-0.558,0.409-1.396-0.149-1.872c-0.56-0.476-1.397-0.408-1.872,0.149l-9.413,11.041l9.413,11.041
	C124.251,22.856,124.623,23.014,124.999,23.014z"/>
<path d="M161.793,19.485c0.258,0,0.517-0.089,0.729-0.269c0.472-0.403,0.528-1.112,0.126-1.585l-6.727-7.889l6.727-7.889
	c0.403-0.472,0.346-1.182-0.126-1.585c-0.474-0.403-1.183-0.345-1.585,0.126l-7.969,9.348l7.969,9.348
	C161.159,19.352,161.475,19.485,161.793,19.485z"/>
<path d="M53.09,23c-0.346,0-0.69-0.134-0.95-0.401c-0.511-0.524-0.501-1.365,0.024-1.876l9.463-9.223l-9.463-9.223
	c-0.525-0.511-0.536-1.352-0.024-1.876c0.511-0.526,1.35-0.536,1.876-0.024L65.43,11.5L54.016,22.624
	C53.758,22.875,53.424,23,53.09,23z"/>
<path d="M85.519,23c0.346,0,0.69-0.134,0.95-0.401c0.511-0.524,0.501-1.365-0.024-1.876L76.982,11.5l9.463-9.223
	c0.525-0.511,0.536-1.352,0.024-1.876c-0.511-0.526-1.35-0.536-1.876-0.024L73.179,11.5l11.414,11.123
	C84.851,22.875,85.185,23,85.519,23z"/>
</svg>
