<?xml version="1.0" encoding="utf-8"?>
<!-- Generator: Adobe Illustrator 15.0.0, SVG Export Plug-In . SVG Version: 6.00 Build 0)  -->
<!DOCTYPE svg PUBLIC "-//W3C//DTD SVG 1.1//EN" "http://www.w3.org/Graphics/SVG/1.1/DTD/svg11.dtd">
<svg version="1.1" id="Layer_1" xmlns="http://www.w3.org/2000/svg" xmlns:xlink="http://www.w3.org/1999/xlink" x="0px" y="0px"
	 width="567.055px" height="76.961px" viewBox="0 0 567.055 76.961" enable-background="new 0 0 567.055 76.961"
	 xml:space="preserve">
<g>
	<g id="XMLID_1_">
		<g>
			<path fill="#FFFFFF" d="M565.917,24.65c-2.52,0-4.1,1.24-4.1,3.77v7.13h-2.55V22.4h2.439v2.35c0.721-1.43,2.021-2.55,4.11-2.55
				c0.229,0,0.46,0,0.74,0.02v2.43H565.917z"/>
			<path fill="#FFFFFF" d="M554.747,27.811c-0.229-2.04-1.479-3.57-3.62-3.57c-1.909,0-3.31,1.14-3.64,3.57H554.747z
				 M551.237,33.721c1.7,0,2.8-0.87,3.26-2.19h2.57c-0.66,2.55-2.73,4.33-5.89,4.33c-3.721,0-6.29-2.65-6.29-6.88
				c0-4.13,2.5-6.88,6.239-6.88c3.98,0,6.25,3.03,6.25,6.98v0.74h-9.92C547.688,32.49,549.117,33.721,551.237,33.721z"/>
			<path fill="#FFFFFF" d="M543.907,24.19l-5.66,7.21c-0.54,0.69-1.1,1.4-1.68,2.09c0.92-0.03,1.83-0.03,2.75-0.03h4.89v2.09h-10.85
				v-1.78l5.65-7.21c0.539-0.69,1.1-1.4,1.689-2.09c-0.92,0.02-1.84,0.02-2.76,0.02h-4.38V22.4h10.35V24.19z"/>
			<path fill="#FFFFFF" d="M529.577,32.391c0,0.77,0.38,1.12,1.5,1.12h1.15v2.04c-0.561,0.05-1.101,0.08-1.561,0.08
				c-2.37,0-3.64-0.82-3.64-3.01v-8.13h-2.12V22.4h2.12v-3.77h2.55v3.77h2.65v2.09h-2.65V32.391z"/>
			<rect x="521.067" y="17.82" fill="#FFFFFF" width="2.61" height="2.72"/>
			<rect x="521.098" y="22.4" fill="#FFFFFF" width="2.55" height="13.15"/>
			<path fill="#FFFFFF" d="M516.558,28.88c0-3.01-1.511-4.59-3.86-4.59c-2.34,0-3.84,1.68-3.84,4.69c0,3,1.5,4.69,3.84,4.69
				C515.047,33.67,516.558,31.88,516.558,28.88z M519.197,28.98c0,4.2-2.37,6.88-6.01,6.88c-1.88,0-3.34-0.79-4.28-2.14v6.83h-2.55
				V22.4h2.45v1.99c0.939-1.45,2.42-2.29,4.38-2.29C516.827,22.101,519.197,24.771,519.197,28.98z"/>
			<path fill="#FFFFFF" d="M501.797,52.521c-0.229-2.04-1.479-3.57-3.619-3.57c-1.92,0-3.32,1.15-3.65,3.57H501.797z
				 M498.277,58.431c1.71,0,2.8-0.87,3.26-2.19h2.58c-0.67,2.55-2.729,4.33-5.89,4.33c-3.72,0-6.3-2.649-6.3-6.88
				c0-4.13,2.5-6.88,6.25-6.88c3.97,0,6.239,3.03,6.239,6.979v0.74h-9.909C494.737,57.211,496.157,58.431,498.277,58.431z"/>
			<path fill="#FFFFFF" d="M504.478,30.53c0,3.37-2.62,5.43-7.061,5.43c-4.56,0-7.59-2.01-7.62-6.4h2.73
				c0.05,3.14,2.19,4.08,4.94,4.08c2.68,0,4.18-1.04,4.18-3.03c0-1.61-1.07-2.35-4.101-3.01l-1.55-0.33
				c-3.29-0.66-5.66-2.06-5.66-5.35c0-2.96,2.391-4.92,6.421-4.92c5.229,0,7.14,2.57,7.21,5.73h-2.7c-0.15-2.14-1.19-3.41-4.48-3.41
				c-2.45,0-3.67,0.99-3.67,2.55c0,1.6,0.84,2.37,3.95,3.06l1.58,0.33C502.877,26.15,504.478,27.78,504.478,30.53z"/>
			<path fill="#FFFFFF" d="M491.377,46.94v2.42h-0.64c-2.52,0-4.1,1.24-4.1,3.771v7.14h-2.551V47.11h2.44v2.351
				c0.72-1.431,2.02-2.551,4.11-2.551C490.867,46.91,491.098,46.91,491.377,46.94z"/>
			<path fill="#FFFFFF" d="M480.478,27.811c-0.23-2.04-1.48-3.57-3.62-3.57c-1.91,0-3.32,1.14-3.65,3.57H480.478z M476.907,35.86
				c-3.72,0-6.3-2.65-6.3-6.88c0-4.13,2.5-6.88,6.25-6.88c3.97,0,6.24,3.03,6.24,6.98v0.74h-9.91c0.229,2.67,1.649,3.9,3.77,3.9
				c1.71,0,2.801-0.87,3.261-2.19h2.569C482.127,34.081,480.067,35.86,476.907,35.86z"/>
			<path fill="#FFFFFF" d="M470.367,55.931V47.12h2.55v8.46c0,1.881,0.99,2.75,2.78,2.75c1.58,0,3.311-1.149,3.311-3.8v-7.41h2.55
				v13.15h-2.45v-1.97c-0.84,1.3-2.271,2.27-4.12,2.27C472.157,60.57,470.367,58.94,470.367,55.931z"/>
			<path fill="#FFFFFF" d="M466.327,57.101c0,0.77,0.38,1.13,1.5,1.13h1.15v2.04c-0.561,0.05-1.101,0.07-1.561,0.07
				c-2.37,0-3.64-0.82-3.64-3.011V49.2h-2.12v-2.09h2.12v-3.77h2.55v3.77h2.65v2.101h-2.65V57.101z"/>
			<path fill="#FFFFFF" d="M468.768,26.74v8.81h-2.55v-8.46c0-1.88-1-2.75-2.78-2.75c-1.55,0-3.311,1.15-3.311,3.8v7.41h-2.55V22.4
				h2.45v1.96c0.86-1.29,2.26-2.26,4.13-2.26C467.008,22.101,468.768,23.73,468.768,26.74z"/>
			<path fill="#FFFFFF" d="M461.138,55.58c-0.41,3.11-2.75,4.99-5.891,4.99c-3.72,0-6.27-2.67-6.27-6.88s2.5-6.88,6.27-6.88
				c3.271,0,5.46,1.91,5.86,4.89h-2.59c-0.36-1.83-1.71-2.68-3.271-2.68c-2.09,0-3.62,1.479-3.62,4.67c0,3.18,1.58,4.66,3.62,4.66
				c1.58,0,2.98-0.86,3.29-2.771H461.138z"/>
			<path fill="#FFFFFF" d="M455.077,26.74v8.81h-2.55v-8.46c0-1.88-1-2.75-2.78-2.75c-1.56,0-3.319,1.15-3.319,3.8v7.41h-2.54V22.4
				h2.439v1.97c0.87-1.3,2.271-2.27,4.13-2.27C453.317,22.101,455.077,23.73,455.077,26.74z"/>
			<path fill="#FFFFFF" d="M445.117,52.521c-0.229-2.04-1.479-3.57-3.62-3.57c-1.91,0-3.31,1.15-3.64,3.57H445.117z M437.837,54.53
				c0.221,2.681,1.65,3.9,3.771,3.9c1.7,0,2.8-0.87,3.26-2.19h2.57c-0.66,2.55-2.73,4.33-5.891,4.33c-3.71,0-6.289-2.649-6.289-6.88
				c0-4.13,2.5-6.88,6.25-6.88c3.97,0,6.239,3.03,6.239,6.979v0.74H437.837z"/>
			<path fill="#FFFFFF" d="M432.047,57.101c0,0.77,0.381,1.13,1.5,1.13h1.15v2.04c-0.56,0.05-1.09,0.07-1.55,0.07
				c-2.37,0-3.65-0.82-3.65-3.011V49.2h-2.109v-2.09h2.109v-3.77h2.55v3.77h2.65v2.101h-2.65V57.101z"/>
			<path fill="#FFFFFF" d="M437.058,28.471l-0.391-1c-0.729-1.86-1.899-4.91-2.819-7.44c-0.92,2.53-2.09,5.58-2.811,7.44l-0.38,1
				H437.058z M435.417,17.411l7.19,18.14h-2.88l-1.78-4.71h-8.16l-1.76,4.71h-2.82l7.08-18.14H435.417z"/>
			<rect x="423.547" y="42.53" fill="#FFFFFF" width="2.601" height="2.73"/>
			<rect x="423.567" y="47.12" fill="#FFFFFF" width="2.55" height="13.15"/>
			<path fill="#FFFFFF" d="M421.077,51.45v8.82h-2.55v-8.47c0-1.88-0.99-2.75-2.77-2.75c-1.561,0-3.311,1.149-3.311,3.8v7.42h-2.55
				V42.12h2.55v6.801c0.86-1.221,2.23-2.11,4.021-2.11C419.317,46.811,421.077,48.44,421.077,51.45z"/>
			<path fill="#FFFFFF" d="M410.117,19.17c-1.2,0-2.14,0.76-2.14,1.98c0,0.87,0.56,1.89,1.729,3.19c1.71-0.94,2.58-1.91,2.58-3.19
				C412.287,19.98,411.317,19.17,410.117,19.17z M409.327,33.67c1.681,0,3.01-0.67,3.92-1.69l-4.43-4.99
				c-1.73,0.94-2.8,1.89-2.8,3.64C406.018,32.19,407.207,33.67,409.327,33.67z M414.808,33.721c-1.38,1.37-3.261,2.24-5.681,2.24
				c-3.67,0-5.819-2.32-5.819-5.15c0-2.55,1.479-4,4.109-5.4c-1.43-1.66-2.069-2.83-2.069-4.26c0-2.26,1.739-4.15,4.75-4.15
				c2.569,0,4.71,1.48,4.71,4.05c0,1.86-1.38,3.54-3.7,4.84l3.47,3.88c0.36-0.97,0.54-2.04,0.561-3.06h2.449
				c-0.05,1.73-0.489,3.47-1.279,4.97l3.47,3.87h-3.34L414.808,33.721z"/>
			<path fill="#FFFFFF" d="M408.167,55.58c-0.409,3.11-2.75,4.99-5.89,4.99c-3.72,0-6.27-2.67-6.27-6.88s2.5-6.88,6.27-6.88
				c3.27,0,5.46,1.91,5.87,4.89h-2.601c-0.359-1.83-1.71-2.68-3.27-2.68c-2.09,0-3.62,1.479-3.62,4.67c0,3.18,1.58,4.66,3.62,4.66
				c1.58,0,2.99-0.86,3.29-2.771H408.167z"/>
			<path fill="#FFFFFF" d="M395.447,46.94v2.42h-0.64c-2.53,0-4.11,1.24-4.11,3.771v7.14h-2.54V47.11h2.44v2.351
				c0.71-1.431,2.01-2.551,4.109-2.551C394.928,46.91,395.157,46.91,395.447,46.94z"/>
			<path fill="#FFFFFF" d="M389.678,33.67c2.35,0,3.85-1.69,3.85-4.69c0-3.01-1.5-4.69-3.85-4.69c-2.341,0-3.851,1.78-3.851,4.79
				C385.827,32.09,387.337,33.67,389.678,33.67z M395.997,17.411v18.14h-2.439v-1.93c-0.95,1.4-2.431,2.24-4.36,2.24
				c-3.67,0-6.02-2.68-6.02-6.88c0-4.21,2.35-6.88,6.02-6.88c1.86,0,3.311,0.76,4.25,2.09v-6.78H395.997z"/>
			<path fill="#FFFFFF" d="M381.947,24.65c-2.53,0-4.11,1.24-4.11,3.77v7.13h-2.55V22.4h2.45v2.35c0.71-1.43,2.01-2.55,4.1-2.55
				c0.23,0,0.46,0,0.74,0.02v2.43H381.947z"/>
			<path fill="#FFFFFF" d="M376.558,42.12h3.13l7.189,18.15h-2.88l-1.779-4.72h-8.16l-1.761,4.72h-2.829L376.558,42.12z
				 M380.938,52.19c-0.74-1.86-1.91-4.92-2.83-7.45c-0.91,2.53-2.09,5.59-2.8,7.45l-0.38,0.99h6.39L380.938,52.19z"/>
			<path fill="#FFFFFF" d="M369.938,30.351v-1.37c-0.38,0.3-0.92,0.46-1.63,0.53l-1.84,0.21c-2.11,0.25-2.75,0.99-2.75,2.16
				c0,1.2,0.79,1.99,2.449,1.99C368.027,33.871,369.938,32.831,369.938,30.351z M373.867,33.59v1.96c-0.39,0.05-0.85,0.08-1.25,0.08
				c-1.63,0-2.37-0.59-2.55-1.86c-0.9,1.38-2.37,2.09-4.28,2.09c-2.83,0-4.689-1.38-4.689-3.9c0-2.12,1.27-3.72,4.939-4.08l1.94-0.2
				c1.27-0.15,1.96-0.59,1.96-1.66c0-1.22-0.641-1.88-2.7-1.88c-2.07,0-2.93,0.58-3.06,2.37h-2.521c0.15-2.65,1.63-4.41,5.58-4.41
				c3.771,0,5.2,1.58,5.2,3.87v6.96c0,0.41,0.2,0.66,0.71,0.66H373.867z"/>
			<path fill="#FFFFFF" d="M361.978,42.04c0.439,0,1.1,0.061,1.45,0.08v2.07h-1.141c-1.149,0-1.71,0.61-1.71,1.73v1.199h2.75v2.091
				h-2.75v11.06h-2.55V49.2h-2.11v-2.09h2.11v-1.189C358.027,43.601,359.127,42.04,361.978,42.04z"/>
			<path fill="#FFFFFF" d="M353.978,24.34c-1.55,0-3.311,1.15-3.311,3.8v7.41h-2.55V22.4h2.44v1.97c0.87-1.3,2.27-2.27,4.13-2.27
				c2.859,0,4.62,1.63,4.62,4.64v8.81h-2.55v-8.46C356.758,25.21,355.758,24.34,353.978,24.34z"/>
			<path fill="#FFFFFF" d="M352.837,53.69c0-3-1.529-4.69-3.85-4.69c-2.35,0-3.87,1.69-3.87,4.69c0,3.01,1.521,4.69,3.87,4.69
				C351.308,58.381,352.837,56.7,352.837,53.69z M355.487,53.69c0,4.21-2.68,6.88-6.5,6.88c-3.85,0-6.52-2.67-6.52-6.88
				s2.67-6.88,6.52-6.88C352.808,46.811,355.487,49.48,355.487,53.69z"/>
			<path fill="#FFFFFF" d="M346.087,24.65c-2.52,0-4.109,1.24-4.1,3.77v7.13h-2.55V22.4h2.439v2.35c0.721-1.43,2.021-2.55,4.11-2.55
				c0.22,0,0.46,0,0.74,0.02v2.43H346.087z"/>
			<rect x="332.527" y="42.12" fill="#FFFFFF" width="2.55" height="18.15"/>
			<path fill="#FFFFFF" d="M334.917,27.811c-0.229-2.04-1.479-3.57-3.62-3.57c-1.909,0-3.31,1.14-3.649,3.57H334.917z
				 M331.297,22.101c3.971,0,6.24,3.03,6.24,6.98v0.74h-9.91c0.23,2.67,1.66,3.9,3.771,3.9c1.71,0,2.81-0.87,3.27-2.19h2.57
				c-0.67,2.55-2.729,4.33-5.89,4.33c-3.721,0-6.29-2.65-6.29-6.88C325.058,24.851,327.547,22.101,331.297,22.101z"/>
			<path fill="#FFFFFF" d="M317.598,53.69c0-4.21,2.67-6.88,6.52-6.88c3.82,0,6.5,2.67,6.5,6.88s-2.68,6.88-6.5,6.88
				C320.268,60.57,317.598,57.9,317.598,53.69z M324.117,49c-2.35,0-3.88,1.69-3.88,4.69c0,3.01,1.53,4.69,3.88,4.69
				c2.32,0,3.851-1.681,3.851-4.69C327.968,50.69,326.438,49,324.117,49z"/>
			<path fill="#FFFFFF" d="M317.258,25.181c2.14,0,3.18-1.07,3.18-2.83c0-1.53-1.04-2.6-3.18-2.6h-4.921v5.43H317.258z
				 M321.107,30.351c0-2.01-1.3-2.9-3.47-2.9h-5.301v5.76h5.301C319.938,33.21,321.107,32.141,321.107,30.351z M323.117,22.121
				c0,1.81-0.89,3.14-2.399,3.95c2.189,0.82,3.14,2.53,3.14,4.33c0,3.09-2.021,5.15-6.07,5.15h-8.18v-18.14h7.83
				C321.407,17.411,323.117,19.601,323.117,22.121z"/>
			<path fill="#FFFFFF" d="M313.718,53.69c0-3-1.53-4.69-3.851-4.69c-2.34,0-3.87,1.69-3.87,4.69c0,3.01,1.53,4.69,3.87,4.69
				C312.188,58.381,313.718,56.7,313.718,53.69z M316.367,53.69c0,4.21-2.67,6.88-6.5,6.88c-3.84,0-6.52-2.67-6.52-6.88
				s2.67-6.88,6.52-6.88C313.697,46.811,316.367,49.48,316.367,53.69z"/>
			<path fill="#FFFFFF" d="M292.857,48.921c0.87-1.221,2.24-2.11,4.03-2.11c2.85,0,4.609,1.63,4.609,4.64v8.82h-2.55v-8.47
				c0-1.88-0.99-2.75-2.77-2.75c-1.561,0-3.32,1.149-3.32,3.8v7.42h-2.55V42.12h2.55V48.921z"/>
			<path fill="#FFFFFF" d="M292.127,29.82c0.23,2.67,1.66,3.9,3.771,3.9c1.71,0,2.81-0.87,3.26-2.19h2.58
				c-0.66,2.55-2.729,4.33-5.89,4.33c-3.721,0-6.29-2.65-6.29-6.88c0-4.13,2.489-6.88,6.239-6.88c3.971,0,6.25,3.03,6.25,6.98v0.74
				H292.127z M295.797,24.24c-1.909,0-3.31,1.14-3.649,3.57h7.27C299.188,25.771,297.938,24.24,295.797,24.24z"/>
			<path fill="#FFFFFF" d="M288.587,55.58c-0.409,3.11-2.75,4.99-5.89,4.99c-3.72,0-6.26-2.67-6.26-6.88s2.49-6.88,6.26-6.88
				c3.271,0,5.46,1.91,5.87,4.89h-2.6c-0.36-1.83-1.71-2.68-3.271-2.68c-2.09,0-3.61,1.479-3.61,4.67c0,3.18,1.58,4.66,3.61,4.66
				c1.58,0,2.99-0.86,3.29-2.771H288.587z"/>
			<path fill="#FFFFFF" d="M287.707,26.74v8.81h-2.55v-8.46c0-1.88-0.99-2.75-2.78-2.75c-1.55,0-3.31,1.15-3.31,3.8v7.41h-2.55
				v-18.14h2.55v6.8c0.87-1.22,2.24-2.11,4.03-2.11C285.947,22.101,287.707,23.73,287.707,26.74z"/>
			<polygon fill="#FFFFFF" points="269.157,19.851 269.157,35.55 266.387,35.55 266.387,19.851 260.367,19.851 260.367,17.411 
				275.177,17.411 275.177,19.851 			"/>
			<path fill="#FFFFFF" d="M269.467,49.971c4.23,0.89,5.84,2.52,5.84,5.27c0,3.37-2.63,5.431-7.06,5.431
				c-4.56,0-7.6-2.011-7.62-6.391h2.73c0.05,3.13,2.19,4.07,4.94,4.07c2.67,0,4.18-1.04,4.18-3.03c0-1.6-1.07-2.34-4.11-3.01
				l-1.55-0.33c-3.29-0.66-5.66-2.06-5.66-5.35c0-2.96,2.4-4.92,6.42-4.92c5.23,0,7.14,2.569,7.22,5.729h-2.7
				c-0.16-2.14-1.2-3.41-4.49-3.41c-2.45,0-3.67,0.99-3.67,2.55c0,1.61,0.84,2.37,3.95,3.061L269.467,49.971z"/>
			<path fill="#FFFFFF" d="M245.077,17.44v9.53h-2.63c-7.64,0-12.25,3.78-12.25,11.84v21.54h-10.35v-42.42h10.02v7.56
				c2.06-4.77,6.09-8.22,12.66-8.22C243.438,17.271,244.177,17.271,245.077,17.44z"/>
			<path fill="#FFFFFF" d="M217.607,39.881v2.46h-31.73c0.74,7.569,5.01,10.939,11.01,10.939c4.93,0,8.14-2.3,9.7-6.09h9.95
				c-2.14,8.64-9.54,14.14-19.73,14.14c-12.5,0-21.13-8.63-21.13-22.189c0-13.32,8.39-22.2,20.97-22.2
				C209.637,16.94,217.607,26.4,217.607,39.881z M185.958,35.11h21.29c-0.82-6-4.52-10.11-10.69-10.11
				C191.057,25,186.938,28.121,185.958,35.11z"/>
			<path fill="#FFFFFF" d="M176.268,52.29v8.061h-36v-6.83l16.77-21.12c1.72-2.14,3.53-4.36,5.34-6.5
				c-2.96,0.08-5.84,0.08-8.71,0.08h-12.99v-8.05h34.61v6.82l-16.77,21.13c-1.73,2.14-3.54,4.359-5.35,6.489
				c2.96-0.08,5.84-0.08,8.72-0.08H176.268z"/>
			<path fill="#FFFFFF" d="M137.047,52.461v7.89c-1.9,0.16-3.79,0.33-5.43,0.33c-8.96,0-13.24-3.04-13.24-10.851V25.82h-6.57v-7.89
				h6.57V5.601h10.28v12.33h8.39v7.89h-8.39v22.94c0,2.79,1.4,3.7,4.85,3.7H137.047z"/>
			<rect x="98.277" y="17.931" fill="#FFFFFF" width="10.36" height="42.42"/>
			<rect x="98.357" y="2.721" fill="#FFFFFF" width="10.19" height="9.7"/>
			<path fill="#FFFFFF" d="M75.938,16.94c11.67,0,18.99,8.72,18.99,22.2c0,13.479-7.32,22.189-18.99,22.189
				c-5.92,0-10.28-2.38-13.16-6.489v21.62h-10.35v-58.53h9.94v6.08C65.248,19.57,69.768,16.94,75.938,16.94z M84.407,38.811
				c0-8.96-4.2-13.32-10.94-13.32c-6.74,0-10.93,4.69-10.93,13.65s4.19,13.649,10.93,13.649
				C80.208,52.79,84.407,47.771,84.407,38.811z"/>
			<path fill="#FFFFFF" d="M47.527,19.24h-10.77c-0.41-6.24-3.62-9.78-12.91-9.78c-7.07,0-10.52,2.8-10.52,7.23
				c0,4.69,2.71,6.83,11.43,8.64l5.1,0.98c13.81,2.72,19.4,8.06,19.4,17.35c0,11.59-9.05,18-23.68,18
				c-15.62,0-24.99-7.149-25.07-20.63h10.93c0.17,9.21,6.33,11.67,14.47,11.67c7.64,0,11.84-2.96,11.84-8.47
				c0-4.6-3.04-6.65-12.01-8.46l-4.93-0.99c-11.34-2.14-18.82-7.15-18.82-17.76c0-9.7,7.64-16.52,21.7-16.52
				C40.127,0.5,47.117,8.23,47.527,19.24z"/>
		</g>
		<g>
			<path fill="none" stroke="#FFFFFF" stroke-miterlimit="10" d="M29.857,26.311l-5.1-0.98c-8.72-1.81-11.43-3.95-11.43-8.64
				c0-4.43,3.45-7.23,10.52-7.23c9.29,0,12.5,3.54,12.91,9.78h10.77c-0.41-11.01-7.4-18.74-23.84-18.74
				c-14.06,0-21.7,6.82-21.7,16.52c0,10.61,7.48,15.62,18.82,17.76l4.93,0.99c8.97,1.81,12.01,3.86,12.01,8.46
				c0,5.51-4.2,8.47-11.84,8.47c-8.14,0-14.3-2.46-14.47-11.67H0.507c0.08,13.48,9.45,20.63,25.07,20.63
				c14.63,0,23.68-6.41,23.68-18C49.257,34.371,43.667,29.03,29.857,26.311z"/>
			<path fill="none" stroke="#FFFFFF" stroke-miterlimit="10" d="M75.938,16.94c-6.17,0-10.69,2.63-13.57,7.07v-6.08h-9.94v58.53
				h10.35v-21.62c2.88,4.109,7.24,6.489,13.16,6.489c11.67,0,18.99-8.71,18.99-22.189C94.927,25.661,87.607,16.94,75.938,16.94z"/>
			<path fill="none" stroke="#FFFFFF" stroke-miterlimit="10" d="M73.467,52.79c-6.74,0-10.93-4.689-10.93-13.649
				s4.19-13.65,10.93-13.65c6.74,0,10.94,4.36,10.94,13.32S80.208,52.79,73.467,52.79z"/>
			<rect x="98.277" y="17.931" fill="none" stroke="#FFFFFF" stroke-miterlimit="10" width="10.36" height="42.42"/>
			<rect x="98.357" y="2.721" fill="none" stroke="#FFFFFF" stroke-miterlimit="10" width="10.19" height="9.7"/>
			<path fill="none" stroke="#FFFFFF" stroke-miterlimit="10" d="M128.657,5.601h-10.28v12.33h-6.57v7.89h6.57v24.01
				c0,7.811,4.28,10.851,13.24,10.851c1.64,0,3.53-0.17,5.43-0.33v-7.89h-3.54c-3.45,0-4.85-0.91-4.85-3.7V25.82h8.39v-7.89h-8.39
				V5.601z"/>
			<path fill="none" stroke="#FFFFFF" stroke-miterlimit="10" d="M153.167,52.37c1.81-2.13,3.62-4.35,5.35-6.489l16.77-21.13v-6.82
				h-34.61v8.05h12.99c2.87,0,5.75,0,8.71-0.08c-1.81,2.14-3.62,4.36-5.34,6.5l-16.77,21.12v6.83h36V52.29h-14.38
				C159.007,52.29,156.127,52.29,153.167,52.37z"/>
			<path fill="none" stroke="#FFFFFF" stroke-miterlimit="10" d="M196.647,16.94c-12.58,0-20.97,8.88-20.97,22.2
				c0,13.56,8.63,22.189,21.13,22.189c10.19,0,17.59-5.5,19.73-14.14h-9.95c-1.56,3.79-4.77,6.09-9.7,6.09
				c-6,0-10.27-3.37-11.01-10.939h31.73v-2.46C217.607,26.4,209.637,16.94,196.647,16.94z"/>
			<path fill="none" stroke="#FFFFFF" stroke-miterlimit="10" d="M185.958,35.11c0.98-6.99,5.1-10.11,10.6-10.11
				c6.17,0,9.87,4.11,10.69,10.11H185.958z"/>
			<path fill="none" stroke="#FFFFFF" stroke-miterlimit="10" d="M242.527,17.271c-6.57,0-10.6,3.45-12.66,8.22v-7.56h-10.02v42.42
				h10.35v-21.54c0-8.06,4.61-11.84,12.25-11.84h2.63v-9.53C244.177,17.271,243.438,17.271,242.527,17.271z"/>
			<polygon fill="none" stroke="#FFFFFF" stroke-miterlimit="10" points="266.387,35.55 269.157,35.55 269.157,19.851 
				275.177,19.851 275.177,17.411 260.367,17.411 260.367,19.851 266.387,19.851 			"/>
			<path fill="none" stroke="#FFFFFF" stroke-miterlimit="10" d="M279.067,28.141c0-2.65,1.76-3.8,3.31-3.8
				c1.79,0,2.78,0.87,2.78,2.75v8.46h2.55v-8.81c0-3.01-1.76-4.64-4.61-4.64c-1.79,0-3.16,0.89-4.03,2.11v-6.8h-2.55v18.14h2.55
				V28.141z"/>
			<path fill="none" stroke="#FFFFFF" stroke-miterlimit="10" d="M295.797,22.101c-3.75,0-6.239,2.75-6.239,6.88
				c0,4.23,2.569,6.88,6.29,6.88c3.16,0,5.229-1.78,5.89-4.33h-2.58c-0.45,1.32-1.55,2.19-3.26,2.19c-2.11,0-3.54-1.23-3.771-3.9
				h9.92v-0.74C302.047,25.13,299.768,22.101,295.797,22.101z"/>
			<path fill="none" stroke="#FFFFFF" stroke-miterlimit="10" d="M292.147,27.811c0.34-2.43,1.74-3.57,3.649-3.57
				c2.141,0,3.391,1.53,3.62,3.57H292.147z"/>
			<path fill="none" stroke="#FFFFFF" stroke-miterlimit="10" d="M323.857,30.4c0-1.8-0.95-3.51-3.14-4.33
				c1.51-0.81,2.399-2.14,2.399-3.95c0-2.52-1.71-4.71-5.68-4.71h-7.83v18.14h8.18C321.837,35.55,323.857,33.49,323.857,30.4z"/>
			<path fill="none" stroke="#FFFFFF" stroke-miterlimit="10" d="M312.337,19.75h4.921c2.14,0,3.18,1.07,3.18,2.6
				c0,1.76-1.04,2.83-3.18,2.83h-4.921V19.75z"/>
			<path fill="none" stroke="#FFFFFF" stroke-miterlimit="10" d="M312.337,33.21v-5.76h5.301c2.17,0,3.47,0.89,3.47,2.9
				c0,1.79-1.17,2.86-3.47,2.86H312.337z"/>
			<path fill="none" stroke="#FFFFFF" stroke-miterlimit="10" d="M331.297,22.101c-3.75,0-6.239,2.75-6.239,6.88
				c0,4.23,2.569,6.88,6.29,6.88c3.16,0,5.22-1.78,5.89-4.33h-2.57c-0.46,1.32-1.56,2.19-3.27,2.19c-2.11,0-3.54-1.23-3.771-3.9
				h9.91v-0.74C337.537,25.13,335.268,22.101,331.297,22.101z"/>
			<path fill="none" stroke="#FFFFFF" stroke-miterlimit="10" d="M327.647,27.811c0.34-2.43,1.74-3.57,3.649-3.57
				c2.141,0,3.391,1.53,3.62,3.57H327.647z"/>
			<path fill="none" stroke="#FFFFFF" stroke-miterlimit="10" d="M346.087,24.65h0.641v-2.43c-0.28-0.02-0.521-0.02-0.74-0.02
				c-2.09,0-3.39,1.12-4.11,2.55V22.4h-2.439v13.15h2.55v-7.13C341.978,25.891,343.567,24.65,346.087,24.65z"/>
			<path fill="none" stroke="#FFFFFF" stroke-miterlimit="10" d="M350.667,28.141c0-2.65,1.761-3.8,3.311-3.8
				c1.78,0,2.78,0.87,2.78,2.75v8.46h2.55v-8.81c0-3.01-1.761-4.64-4.62-4.64c-1.86,0-3.26,0.97-4.13,2.27V22.4h-2.44v13.15h2.55
				V28.141z"/>
			<path fill="none" stroke="#FFFFFF" stroke-miterlimit="10" d="M372.617,35.63c0.4,0,0.86-0.03,1.25-0.08v-1.96h-0.72
				c-0.51,0-0.71-0.25-0.71-0.66v-6.96c0-2.29-1.43-3.87-5.2-3.87c-3.95,0-5.43,1.76-5.58,4.41h2.521
				c0.13-1.79,0.989-2.37,3.06-2.37c2.06,0,2.7,0.66,2.7,1.88c0,1.07-0.69,1.51-1.96,1.66l-1.94,0.2
				c-3.67,0.36-4.939,1.96-4.939,4.08c0,2.52,1.859,3.9,4.689,3.9c1.91,0,3.38-0.71,4.28-2.09
				C370.247,35.041,370.987,35.63,372.617,35.63z"/>
			<path fill="none" stroke="#FFFFFF" stroke-miterlimit="10" d="M369.938,30.351c0,2.48-1.91,3.52-3.771,3.52
				c-1.659,0-2.449-0.79-2.449-1.99c0-1.17,0.64-1.91,2.75-2.16l1.84-0.21c0.71-0.07,1.25-0.23,1.63-0.53V30.351z"/>
			<path fill="none" stroke="#FFFFFF" stroke-miterlimit="10" d="M377.837,28.42c0-2.53,1.58-3.77,4.11-3.77h0.63v-2.43
				c-0.28-0.02-0.51-0.02-0.74-0.02c-2.09,0-3.39,1.12-4.1,2.55V22.4h-2.45v13.15h2.55V28.42z"/>
			<path fill="none" stroke="#FFFFFF" stroke-miterlimit="10" d="M393.447,24.19c-0.939-1.33-2.39-2.09-4.25-2.09
				c-3.67,0-6.02,2.67-6.02,6.88c0,4.2,2.35,6.88,6.02,6.88c1.93,0,3.41-0.84,4.36-2.24v1.93h2.439v-18.14h-2.55V24.19z"/>
			<path fill="none" stroke="#FFFFFF" stroke-miterlimit="10" d="M389.678,33.67c-2.341,0-3.851-1.58-3.851-4.59
				c0-3.01,1.51-4.79,3.851-4.79c2.35,0,3.85,1.68,3.85,4.69C393.527,31.98,392.027,33.67,389.678,33.67z"/>
			<path fill="none" stroke="#FFFFFF" stroke-miterlimit="10" d="M416.438,35.55h3.34l-3.47-3.87c0.79-1.5,1.229-3.24,1.279-4.97
				h-2.449c-0.021,1.02-0.2,2.09-0.561,3.06l-3.47-3.88c2.32-1.3,3.7-2.98,3.7-4.84c0-2.57-2.141-4.05-4.71-4.05
				c-3.011,0-4.75,1.89-4.75,4.15c0,1.43,0.64,2.6,2.069,4.26c-2.63,1.4-4.109,2.85-4.109,5.4c0,2.83,2.149,5.15,5.819,5.15
				c2.42,0,4.301-0.87,5.681-2.24L416.438,35.55z"/>
			<path fill="none" stroke="#FFFFFF" stroke-miterlimit="10" d="M410.117,19.17c1.2,0,2.17,0.81,2.17,1.98
				c0,1.28-0.87,2.25-2.58,3.19c-1.17-1.3-1.729-2.32-1.729-3.19C407.978,19.931,408.917,19.17,410.117,19.17z"/>
			<path fill="none" stroke="#FFFFFF" stroke-miterlimit="10" d="M409.327,33.67c-2.12,0-3.31-1.48-3.31-3.04
				c0-1.75,1.069-2.7,2.8-3.64l4.43,4.99C412.337,33,411.008,33.67,409.327,33.67z"/>
			<polygon fill="none" stroke="#FFFFFF" stroke-miterlimit="10" points="429.787,30.84 437.947,30.84 439.728,35.55 442.607,35.55 
				435.417,17.411 432.287,17.411 425.207,35.55 428.027,35.55 			"/>
			<path fill="none" stroke="#FFFFFF" stroke-miterlimit="10" d="M431.037,27.471c0.721-1.86,1.891-4.91,2.811-7.44
				c0.92,2.53,2.09,5.58,2.819,7.44l0.391,1h-6.4L431.037,27.471z"/>
			<path fill="none" stroke="#FFFFFF" stroke-miterlimit="10" d="M446.428,28.141c0-2.65,1.76-3.8,3.319-3.8
				c1.78,0,2.78,0.87,2.78,2.75v8.46h2.55v-8.81c0-3.01-1.76-4.64-4.62-4.64c-1.859,0-3.26,0.97-4.13,2.27V22.4h-2.439v13.15h2.54
				V28.141z"/>
			<path fill="none" stroke="#FFFFFF" stroke-miterlimit="10" d="M466.218,27.09v8.46h2.55v-8.81c0-3.01-1.76-4.64-4.61-4.64
				c-1.87,0-3.27,0.97-4.13,2.26V22.4h-2.45v13.15h2.55v-7.41c0-2.65,1.761-3.8,3.311-3.8
				C465.218,24.34,466.218,25.21,466.218,27.09z"/>
			<path fill="none" stroke="#FFFFFF" stroke-miterlimit="10" d="M476.857,22.101c-3.75,0-6.25,2.75-6.25,6.88
				c0,4.23,2.58,6.88,6.3,6.88c3.16,0,5.22-1.78,5.88-4.33h-2.569c-0.46,1.32-1.551,2.19-3.261,2.19c-2.12,0-3.54-1.23-3.77-3.9
				h9.91v-0.74C483.098,25.13,480.827,22.101,476.857,22.101z"/>
			<path fill="none" stroke="#FFFFFF" stroke-miterlimit="10" d="M473.207,27.811c0.33-2.43,1.74-3.57,3.65-3.57
				c2.14,0,3.39,1.53,3.62,3.57H473.207z"/>
			<path fill="none" stroke="#FFFFFF" stroke-miterlimit="10" d="M498.647,25.26l-1.58-0.33c-3.11-0.69-3.95-1.46-3.95-3.06
				c0-1.56,1.22-2.55,3.67-2.55c3.29,0,4.33,1.27,4.48,3.41h2.7c-0.07-3.16-1.98-5.73-7.21-5.73c-4.03,0-6.421,1.96-6.421,4.92
				c0,3.29,2.37,4.69,5.66,5.35l1.55,0.33c3.03,0.66,4.101,1.4,4.101,3.01c0,1.99-1.5,3.03-4.18,3.03c-2.75,0-4.891-0.94-4.94-4.08
				h-2.73c0.03,4.39,3.061,6.4,7.62,6.4c4.44,0,7.061-2.06,7.061-5.43C504.478,27.78,502.877,26.15,498.647,25.26z"/>
			<path fill="none" stroke="#FFFFFF" stroke-miterlimit="10" d="M513.188,22.101c-1.96,0-3.44,0.84-4.38,2.29V22.4h-2.45v18.15
				h2.55v-6.83c0.94,1.35,2.4,2.14,4.28,2.14c3.64,0,6.01-2.68,6.01-6.88C519.197,24.771,516.827,22.101,513.188,22.101z"/>
			<path fill="none" stroke="#FFFFFF" stroke-miterlimit="10" d="M512.697,33.67c-2.34,0-3.84-1.69-3.84-4.69
				c0-3.01,1.5-4.69,3.84-4.69c2.35,0,3.86,1.58,3.86,4.59C516.558,31.88,515.047,33.67,512.697,33.67z"/>
			<rect x="521.098" y="22.4" fill="none" stroke="#FFFFFF" stroke-miterlimit="10" width="2.55" height="13.15"/>
			<rect x="521.067" y="17.82" fill="none" stroke="#FFFFFF" stroke-miterlimit="10" width="2.61" height="2.72"/>
			<path fill="none" stroke="#FFFFFF" stroke-miterlimit="10" d="M532.228,24.49V22.4h-2.65v-3.77h-2.55v3.77h-2.12v2.09h2.12v8.13
				c0,2.19,1.27,3.01,3.64,3.01c0.46,0,1-0.03,1.561-0.08v-2.04h-1.15c-1.12,0-1.5-0.35-1.5-1.12v-7.9H532.228z"/>
			<path fill="none" stroke="#FFFFFF" stroke-miterlimit="10" d="M536.567,33.49c0.58-0.69,1.14-1.4,1.68-2.09l5.66-7.21V22.4
				h-10.35v2.09h4.38c0.92,0,1.84,0,2.76-0.02c-0.59,0.69-1.15,1.4-1.689,2.09l-5.65,7.21v1.78h10.85v-2.09h-4.89
				C538.397,33.46,537.487,33.46,536.567,33.49"/>
			<path fill="none" stroke="#FFFFFF" stroke-miterlimit="10" d="M551.127,22.101c-3.739,0-6.239,2.75-6.239,6.88
				c0,4.23,2.569,6.88,6.29,6.88c3.159,0,5.229-1.78,5.89-4.33h-2.57c-0.46,1.32-1.56,2.19-3.26,2.19c-2.12,0-3.55-1.23-3.78-3.9
				h9.92v-0.74C557.377,25.13,555.107,22.101,551.127,22.101z"/>
			<path fill="none" stroke="#FFFFFF" stroke-miterlimit="10" d="M547.487,27.811c0.33-2.43,1.73-3.57,3.64-3.57
				c2.141,0,3.391,1.53,3.62,3.57H547.487z"/>
			<path fill="none" stroke="#FFFFFF" stroke-miterlimit="10" d="M565.817,22.201c-2.09,0-3.39,1.12-4.11,2.55V22.4h-2.439v13.15
				h2.55v-7.13c0-2.53,1.58-3.77,4.1-3.77h0.641v-2.43C566.277,22.201,566.047,22.201,565.817,22.201z"/>
			<path fill="none" stroke="#FFFFFF" stroke-miterlimit="10" d="M282.697,58.351c-2.03,0-3.61-1.48-3.61-4.66
				c0-3.19,1.52-4.67,3.61-4.67c1.561,0,2.91,0.85,3.271,2.68h2.6c-0.41-2.979-2.6-4.89-5.87-4.89c-3.77,0-6.26,2.67-6.26,6.88
				s2.54,6.88,6.26,6.88c3.14,0,5.48-1.88,5.89-4.99h-2.6C285.688,57.49,284.277,58.351,282.697,58.351z"/>
			<path fill="none" stroke="#FFFFFF" stroke-miterlimit="10" d="M296.888,46.811c-1.79,0-3.16,0.89-4.03,2.11V42.12h-2.55v18.15
				h2.55v-7.42c0-2.65,1.76-3.8,3.32-3.8c1.779,0,2.77,0.87,2.77,2.75v8.47h2.55v-8.82C301.497,48.44,299.737,46.811,296.888,46.811
				z"/>
			<path fill="none" stroke="#FFFFFF" stroke-miterlimit="10" d="M309.867,46.811c-3.85,0-6.52,2.67-6.52,6.88s2.68,6.88,6.52,6.88
				c3.83,0,6.5-2.67,6.5-6.88S313.697,46.811,309.867,46.811z"/>
			<path fill="none" stroke="#FFFFFF" stroke-miterlimit="10" d="M309.867,58.381c-2.34,0-3.87-1.681-3.87-4.69
				c0-3,1.53-4.69,3.87-4.69c2.32,0,3.851,1.69,3.851,4.69C313.718,56.7,312.188,58.381,309.867,58.381z"/>
			<path fill="none" stroke="#FFFFFF" stroke-miterlimit="10" d="M324.117,46.811c-3.85,0-6.52,2.67-6.52,6.88s2.67,6.88,6.52,6.88
				c3.82,0,6.5-2.67,6.5-6.88S327.938,46.811,324.117,46.811z"/>
			<path fill="none" stroke="#FFFFFF" stroke-miterlimit="10" d="M324.117,58.381c-2.35,0-3.88-1.681-3.88-4.69
				c0-3,1.53-4.69,3.88-4.69c2.32,0,3.851,1.69,3.851,4.69C327.968,56.7,326.438,58.381,324.117,58.381z"/>
			<rect x="332.527" y="42.12" fill="none" stroke="#FFFFFF" stroke-miterlimit="10" width="2.55" height="18.15"/>
			<path fill="none" stroke="#FFFFFF" stroke-miterlimit="10" d="M348.987,46.811c-3.85,0-6.52,2.67-6.52,6.88s2.67,6.88,6.52,6.88
				c3.82,0,6.5-2.67,6.5-6.88S352.808,46.811,348.987,46.811z"/>
			<path fill="none" stroke="#FFFFFF" stroke-miterlimit="10" d="M348.987,58.381c-2.35,0-3.87-1.681-3.87-4.69
				c0-3,1.521-4.69,3.87-4.69c2.32,0,3.85,1.69,3.85,4.69C352.837,56.7,351.308,58.381,348.987,58.381z"/>
			<path fill="none" stroke="#FFFFFF" stroke-miterlimit="10" d="M358.027,45.921v1.189h-2.11v2.09h2.11v11.07h2.55v-11.06h2.75
				V47.12h-2.75v-1.199c0-1.12,0.561-1.73,1.71-1.73h1.141v-2.07c-0.351-0.02-1.011-0.08-1.45-0.08
				C359.127,42.04,358.027,43.601,358.027,45.921z"/>
			<polygon fill="none" stroke="#FFFFFF" stroke-miterlimit="10" points="376.558,42.12 369.468,60.271 372.297,60.271 
				374.058,55.551 382.218,55.551 383.997,60.271 386.877,60.271 379.688,42.12 			"/>
			<path fill="none" stroke="#FFFFFF" stroke-miterlimit="10" d="M381.317,53.181h-6.39l0.38-0.99c0.71-1.86,1.89-4.92,2.8-7.45
				c0.92,2.53,2.09,5.59,2.83,7.45L381.317,53.181z"/>
			<path fill="none" stroke="#FFFFFF" stroke-miterlimit="10" d="M390.598,49.461V47.11h-2.44v13.16h2.54v-7.14
				c0-2.53,1.58-3.771,4.11-3.771h0.64v-2.42c-0.29-0.03-0.52-0.03-0.74-0.03C392.607,46.91,391.308,48.03,390.598,49.461z"/>
			<path fill="none" stroke="#FFFFFF" stroke-miterlimit="10" d="M402.277,58.351c-2.04,0-3.62-1.48-3.62-4.66
				c0-3.19,1.53-4.67,3.62-4.67c1.56,0,2.91,0.85,3.27,2.68h2.601c-0.41-2.979-2.601-4.89-5.87-4.89c-3.77,0-6.27,2.67-6.27,6.88
				s2.55,6.88,6.27,6.88c3.14,0,5.48-1.88,5.89-4.99h-2.6C405.268,57.49,403.857,58.351,402.277,58.351z"/>
			<path fill="none" stroke="#FFFFFF" stroke-miterlimit="10" d="M416.468,46.811c-1.79,0-3.16,0.89-4.021,2.11V42.12h-2.55v18.15
				h2.55v-7.42c0-2.65,1.75-3.8,3.311-3.8c1.779,0,2.77,0.87,2.77,2.75v8.47h2.55v-8.82
				C421.077,48.44,419.317,46.811,416.468,46.811z"/>
			<rect x="423.547" y="42.53" fill="none" stroke="#FFFFFF" stroke-miterlimit="10" width="2.601" height="2.73"/>
			<rect x="423.567" y="47.12" fill="none" stroke="#FFFFFF" stroke-miterlimit="10" width="2.55" height="13.15"/>
			<path fill="none" stroke="#FFFFFF" stroke-miterlimit="10" d="M432.047,43.341h-2.55v3.77h-2.109v2.09h2.109v8.13
				c0,2.19,1.28,3.011,3.65,3.011c0.46,0,0.99-0.021,1.55-0.07v-2.04h-1.15c-1.119,0-1.5-0.36-1.5-1.13v-7.89h2.65V47.11h-2.65
				V43.341z"/>
			<path fill="none" stroke="#FFFFFF" stroke-miterlimit="10" d="M441.508,46.811c-3.75,0-6.25,2.75-6.25,6.88
				c0,4.23,2.579,6.88,6.289,6.88c3.16,0,5.23-1.78,5.891-4.33h-2.57c-0.46,1.32-1.56,2.19-3.26,2.19c-2.12,0-3.55-1.22-3.771-3.9
				h9.91v-0.74C447.747,49.841,445.478,46.811,441.508,46.811z"/>
			<path fill="none" stroke="#FFFFFF" stroke-miterlimit="10" d="M437.857,52.521c0.33-2.42,1.729-3.57,3.64-3.57
				c2.141,0,3.391,1.53,3.62,3.57H437.857z"/>
			<path fill="none" stroke="#FFFFFF" stroke-miterlimit="10" d="M455.247,58.351c-2.04,0-3.62-1.48-3.62-4.66
				c0-3.19,1.53-4.67,3.62-4.67c1.561,0,2.91,0.85,3.271,2.68h2.59c-0.4-2.979-2.59-4.89-5.86-4.89c-3.77,0-6.27,2.67-6.27,6.88
				s2.55,6.88,6.27,6.88c3.141,0,5.48-1.88,5.891-4.99h-2.601C458.228,57.49,456.827,58.351,455.247,58.351z"/>
			<path fill="none" stroke="#FFFFFF" stroke-miterlimit="10" d="M466.327,43.341h-2.55v3.77h-2.12v2.09h2.12v8.13
				c0,2.19,1.27,3.011,3.64,3.011c0.46,0,1-0.021,1.561-0.07v-2.04h-1.15c-1.12,0-1.5-0.36-1.5-1.13v-7.89h2.65V47.11h-2.65V43.341z
				"/>
			<path fill="none" stroke="#FFFFFF" stroke-miterlimit="10" d="M479.008,54.53c0,2.65-1.73,3.8-3.311,3.8
				c-1.79,0-2.78-0.869-2.78-2.75v-8.46h-2.55v8.811c0,3.01,1.79,4.64,4.62,4.64c1.85,0,3.28-0.97,4.12-2.27v1.97h2.45V47.12h-2.55
				V54.53z"/>
			<path fill="none" stroke="#FFFFFF" stroke-miterlimit="10" d="M486.527,49.461V47.11h-2.44v13.16h2.551v-7.14
				c0-2.53,1.58-3.771,4.1-3.771h0.64v-2.42c-0.279-0.03-0.51-0.03-0.739-0.03C488.547,46.91,487.247,48.03,486.527,49.461z"/>
			<path fill="none" stroke="#FFFFFF" stroke-miterlimit="10" d="M498.178,46.811c-3.75,0-6.25,2.75-6.25,6.88
				c0,4.23,2.58,6.88,6.3,6.88c3.16,0,5.22-1.78,5.89-4.33h-2.58c-0.46,1.32-1.55,2.19-3.26,2.19c-2.12,0-3.54-1.22-3.77-3.9h9.909
				v-0.74C504.417,49.841,502.147,46.811,498.178,46.811z"/>
			<path fill="none" stroke="#FFFFFF" stroke-miterlimit="10" d="M494.527,52.521c0.33-2.42,1.73-3.57,3.65-3.57
				c2.14,0,3.39,1.53,3.619,3.57H494.527z"/>
			<path fill="none" stroke="#FFFFFF" stroke-miterlimit="10" d="M269.467,49.971l-1.58-0.33c-3.11-0.69-3.95-1.45-3.95-3.061
				c0-1.56,1.22-2.55,3.67-2.55c3.29,0,4.33,1.271,4.49,3.41h2.7c-0.08-3.16-1.99-5.729-7.22-5.729c-4.02,0-6.42,1.96-6.42,4.92
				c0,3.29,2.37,4.689,5.66,5.35l1.55,0.33c3.04,0.67,4.11,1.41,4.11,3.01c0,1.99-1.51,3.03-4.18,3.03c-2.75,0-4.89-0.94-4.94-4.07
				h-2.73c0.02,4.38,3.06,6.391,7.62,6.391c4.43,0,7.06-2.061,7.06-5.431C275.307,52.49,273.697,50.86,269.467,49.971z"/>
		</g>
	</g>
</g>
</svg>
