<?xml version="1.0" encoding="utf-8"?>
<!-- Generator: Adobe Illustrator 15.0.0, SVG Export Plug-In . SVG Version: 6.00 Build 0)  -->
<!DOCTYPE svg PUBLIC "-//W3C//DTD SVG 1.1//EN" "http://www.w3.org/Graphics/SVG/1.1/DTD/svg11.dtd">
<svg version="1.1" id="Layer_1" xmlns="http://www.w3.org/2000/svg" xmlns:xlink="http://www.w3.org/1999/xlink" x="0px" y="0px"
	 width="148.372px" height="45.872px" viewBox="0 0 148.372 45.872" enable-background="new 0 0 148.372 45.872"
	 xml:space="preserve">
<path fill="#FFFFFF" d="M23.081,16.756c-0.199-0.105-0.322-0.288-0.322-0.601c-0.026-1.149-0.026-3.499-0.026-4.909
	c0-2.584-1.138-4.147-3.096-4.147c-0.895,0-2.11,0.521-3.425,1.563c-0.049,0.025-0.1,0.025-0.1-0.026c0-0.729-0.023-3.821,0-5.534
	c0.025-1.928,0.051-2.762,0.051-2.944c0-0.079-0.074-0.131-0.147-0.157c-0.248,0.078-1.066,0.365-1.709,0.392
	c-0.075,0-0.123,0.13-0.123,0.183v1.018c0,0.079-0.076,0.131-0.125,0.131L2.752,1.749C1.859,1.723,1.189,1.565,0.77,1.331
	C0.693,1.305,0.496,1.356,0.472,1.409C0.396,2.557,0.174,4.464,0,5.585c0.024,0.131,0.645,0.287,0.77,0.21
	c0.372-1.084,0.667-1.863,0.991-2.382c0.222-0.364,0.57-0.571,0.917-0.571c0.941-0.026,3.05-0.052,3.47,0
	c0.102,0,0.2,0.155,0.2,0.26c0,4.283-0.025,9.79-0.075,11.826c-0.05,1.228-0.148,1.749-0.941,1.906
	c-0.371,0.078-0.868,0.182-1.638,0.261c-0.098,0.104-0.123,0.624,0,0.753c0.695-0.024,2.454-0.074,3.595-0.074
	c0.989,0,2.503,0.05,3.619,0.074c0.124-0.077,0.175-0.648,0.101-0.753c-0.844-0.104-1.24-0.156-1.639-0.287
	C8.823,16.65,8.625,16.39,8.575,15.45C8.502,14.119,8.478,6.917,8.478,3.102c0-0.053,0.074-0.209,0.147-0.234
	c0.57-0.052,4.192-0.052,5.357-0.025c0.125,0.025,0.201,0.155,0.225,0.285c0,0.961,0.024,2.129,0.024,8.329
	c0,0.6-0.024,3.707-0.048,4.334c-0.026,0.73-0.101,0.966-0.547,1.122c-0.224,0.079-0.546,0.131-0.993,0.183
	c-0.099,0.104-0.099,0.65,0,0.753c0.471,0,1.711-0.074,2.504-0.074c0.941,0,2.255,0.074,2.58,0.074
	c0.073-0.103,0.123-0.675,0.023-0.753c-0.447-0.052-0.646-0.104-0.941-0.156c-0.522-0.183-0.598-0.392-0.646-1.228
	c-0.051-0.731-0.051-3.968-0.051-5.771c0-0.183,0.1-0.47,0.298-0.626c0.57-0.443,1.317-0.706,1.985-0.706
	c1.613,0,2.208,1.098,2.332,1.881c0.199,1.227,0.125,3.785,0.099,5.065c-0.023,1.044-0.099,1.227-0.471,1.357
	c-0.248,0.079-0.621,0.131-0.993,0.183c-0.097,0.104-0.073,0.65,0,0.753c0.349-0.024,1.49-0.048,2.256-0.074
	c1.114-0.025,2.232,0.074,2.628,0.074c0.099-0.077,0.174-0.648,0.099-0.753C23.774,17.016,23.402,16.938,23.081,16.756"/>
<path fill="#FFFFFF" d="M46.538,18.24c1.513,0,3.074-0.39,3.794-0.65c0.568-0.365,1.633-2.4,1.881-3.523
	c-0.049-0.183-0.471-0.417-0.595-0.417c-0.643,1.147-1.236,2.036-1.855,2.558c-0.62,0.601-1.662,0.888-2.729,0.888
	c-4.414,0-6.622-3.523-6.622-7.7c0-4.412,2.06-7.205,5.654-7.205c1.191,0,2.256,0.156,3.077,0.574
	c0.917,0.47,1.239,0.991,1.487,3.081c0.023,0.13,0.667,0.052,0.765-0.054c0.025-1.174,0.248-3.105,0.397-4.02
	c-1.112-0.077-2.774-0.519-4.883-0.519c-2.107,0-3.721,0.441-5.034,1.197c-2.728,1.54-3.94,4.36-3.94,7.179
	C37.935,15.06,41.006,18.24,46.538,18.24"/>
<path fill="#FFFFFF" d="M42.103,34.889c-1.166,0-2.357,0.441-3.249,1.04c-1.265,0.914-2.154,2.298-2.154,4.36
	c0,2.689,1.311,5.583,4.931,5.583c1.042,0,2.208-0.494,2.877-0.962c1.536-1.018,2.305-2.767,2.305-4.777
	C46.812,37.208,45.078,34.889,42.103,34.889 M43.765,44.258c-0.423,0.418-0.993,0.548-1.514,0.548c-1.984,0-3.449-2.089-3.449-5.169
	c0-1.983,0.62-2.925,1.267-3.368c0.322-0.234,0.794-0.364,1.189-0.364c2.11,0,3.448,2.036,3.448,5.064
	C44.706,42.561,44.434,43.604,43.765,44.258"/>
<path fill="#FFFFFF" d="M143.925,18.083c1.14,0,2.851-0.651,3.942-1.954c0.05-0.078,0.147-0.522,0.123-0.705
	c-0.023-0.079-0.073-0.131-0.1-0.157c-0.917,0.784-1.834,1.099-2.826,1.099c-1.116,0-1.958-0.341-2.702-1.151
	c-0.596-0.678-0.967-1.775-1.015-2.663c0-0.131,0.048-0.261,0.147-0.288c2.082-0.051,5.455-0.259,6.495-0.571
	c0.075-0.053,0.225-0.494,0.198-0.6c-0.248-0.079-0.345-0.183-0.371-0.287c-0.198-1.464-1.065-3.706-3.47-3.706
	c-0.795,0-1.911,0.338-2.679,0.859c-1.264,0.887-2.18,2.428-2.18,4.724c0,1.488,0.397,3.081,1.41,4.152
	C141.644,17.641,142.637,18.083,143.925,18.083 M143.577,8.087c1.34,0,2.157,1.49,2.28,2.796c0,0.104-0.073,0.184-0.123,0.235
	c-0.497,0.104-3.421,0.209-4.216,0.157c-0.074,0-0.123-0.132-0.123-0.184C141.519,9.237,142.389,8.087,143.577,8.087"/>
<path fill="#FFFFFF" d="M55.215,4.697c0.148,0.104,0.99,0.026,1.114-0.052c0.323-0.261,0.521-0.782,0.521-1.279
	c0-0.235-0.102-0.574-0.249-0.757c-0.05-0.078-0.322-0.208-0.718-0.208c-0.445,0-0.966,0.261-1.189,0.47
	c-0.124,0.13-0.147,0.601-0.124,0.756C54.646,4.15,54.844,4.516,55.215,4.697"/>
<path fill="#FFFFFF" d="M33.195,10.805c-0.196-1.464-1.064-3.707-3.47-3.707c-0.793,0-1.91,0.339-2.678,0.86
	c-1.265,0.887-2.181,2.428-2.181,4.723c0,1.489,0.397,3.082,1.412,4.152c0.742,0.807,1.735,1.25,3.024,1.25
	c1.14,0,2.851-0.652,3.942-1.954c0.051-0.078,0.147-0.522,0.124-0.705c-0.024-0.079-0.073-0.131-0.1-0.157
	c-0.918,0.784-1.835,1.098-2.827,1.098c-1.114,0-1.958-0.34-2.703-1.15c-0.594-0.678-0.967-1.775-1.015-2.663
	c0-0.131,0.048-0.261,0.148-0.288c2.083-0.051,5.455-0.259,6.496-0.571c0.073-0.053,0.224-0.495,0.197-0.6
	C33.319,11.013,33.221,10.909,33.195,10.805 M31.112,11.118c-0.495,0.104-3.421,0.209-4.215,0.157c-0.073,0-0.124-0.132-0.124-0.184
	c0.124-1.854,0.993-3.005,2.184-3.005c1.34,0,2.155,1.489,2.28,2.795C31.237,10.987,31.163,11.066,31.112,11.118"/>
<path fill="#FFFFFF" d="M66.968,8.296c0.693,0.208,0.967,0.679,1.61,2.375c0.77,1.933,1.834,4.829,2.379,6.316
	c0.052,0.104,0.199,0.444,0.199,0.47c-0.917,2.063-2.825,4.646-3.644,5.716c-0.023,0.053,0,0.34,0.023,0.416
	c0.225,0.236,0.944,0.628,1.29,0.706l0.173-0.104c0.175-0.366,0.473-0.914,0.77-1.462c2.106-3.863,4.09-8.353,5.85-13.205
	c0.224-0.681,0.521-1.045,0.966-1.176c0.249-0.104,0.522-0.156,0.895-0.209c0.074-0.155,0.074-0.649-0.026-0.754
	c-0.692,0.026-1.413,0.075-2.305,0.075c-0.867,0-1.834-0.075-2.132-0.075c-0.1,0.104-0.173,0.599-0.1,0.754
	c0.448,0.053,0.844,0.131,1.091,0.209c0.472,0.155,0.472,0.47,0.423,0.757c-0.174,1.305-1.267,4.228-2.034,5.95
	c-0.025,0.026-0.073,0-0.099,0c-0.174-0.339-1.809-4.776-2.23-6.264c-0.026-0.104,0-0.364,0.199-0.443
	c0.173-0.078,0.544-0.131,0.916-0.209c0.074-0.13,0.05-0.677-0.049-0.754c-0.372,0-1.463,0.075-2.529,0.075
	c-1.067,0-1.958-0.075-2.404-0.075c-0.099,0.053-0.148,0.599-0.074,0.754C66.521,8.192,66.72,8.244,66.968,8.296"/>
<path fill="#FFFFFF" d="M54.92,27.867c-0.646,0-1.588,0.365-2.382,0.965c-2.03,1.542-2.599,3.524-2.626,6.264
	c0,0.028-0.049,0.158-0.097,0.184c-0.201,0.13-0.819,0.339-1.217,0.418c-0.099,0.128-0.247,0.52-0.247,0.754l1.413,0.078
	c0.074,0,0.147,0.183,0.147,0.233c-0.023,2.611-0.023,5.613-0.073,7.021c0,0.471-0.1,0.758-0.495,0.914l-0.992,0.184
	c-0.123,0.107-0.1,0.652,0,0.757c0.52,0,1.438-0.075,2.504-0.075c1.436,0,2.378,0.075,2.971,0.075
	c0.102-0.078,0.15-0.649,0.075-0.753c-0.719-0.08-0.966-0.131-1.313-0.209c-0.522-0.13-0.694-0.393-0.72-0.966
	c-0.074-1.41-0.074-4.412-0.098-6.947c0-0.077,0.098-0.233,0.147-0.233c0.619,0,1.711,0.025,2.453,0.025
	c0.027-0.388,0.15-1.066,0.225-1.379c-0.347,0.025-0.967,0.078-2.654,0.078c-0.073,0-0.147-0.13-0.147-0.183
	c0-0.131-0.023-0.418-0.023-0.601c0.023-1.959,0.073-3.839,0.767-4.624c0.321-0.364,0.645-0.469,1.017-0.469
	c0.72,0,1.512,0.574,2.058,1.097c0.076,0.027,0.224,0.027,0.273-0.026c0.198-0.156,0.769-1.175,0.844-1.461
	c0.024-0.052,0.024-0.208,0-0.287C56.455,28.206,55.736,27.867,54.92,27.867"/>
<path fill="#FFFFFF" d="M114.25,1.928c0.321,0.079,0.347,0.522,0.371,0.81c0.073,0.782,0.073,4.62,0.073,6.475
	c0,4.255-0.023,6.056-0.098,6.891c-0.025,0.366-0.124,0.602-0.397,0.731c-0.297,0.131-0.618,0.182-1.092,0.261
	c-0.098,0.156-0.047,0.624,0,0.753c0.324,0,1.489-0.074,2.455-0.074c1.313,0,2.105,0.074,2.551,0.074
	c0.101-0.129,0.149-0.623,0.101-0.753c-0.546-0.052-0.744-0.104-1.041-0.235c-0.445-0.155-0.522-0.47-0.546-1.174
	c-0.051-0.705-0.074-2.48-0.074-6.578c0-2.245,0-5.195,0.023-6.526c0-1.278,0.074-1.798,0.225-2.269
	c0-0.052-0.101-0.208-0.174-0.234c-0.893,0.418-2.428,0.861-3.643,0.966c-0.098,0.078-0.124,0.57-0.024,0.648
	C113.556,1.771,114.002,1.85,114.25,1.928"/>
<path fill="#FFFFFF" d="M89.927,18.24c1.513,0,3.074-0.39,3.794-0.65c0.569-0.365,1.633-2.4,1.881-3.523
	c-0.049-0.183-0.471-0.417-0.595-0.417c-0.643,1.147-1.236,2.036-1.856,2.558c-0.619,0.601-1.661,0.888-2.729,0.888
	c-4.414,0-6.622-3.523-6.622-7.7c0-4.412,2.059-7.205,5.654-7.205c1.191,0,2.257,0.156,3.077,0.574
	c0.917,0.47,1.239,0.991,1.487,3.081c0.023,0.13,0.667,0.052,0.765-0.054c0.025-1.174,0.248-3.105,0.397-4.02
	c-1.112-0.077-2.774-0.519-4.882-0.519c-2.108,0-3.722,0.441-5.035,1.197c-2.728,1.54-3.94,4.36-3.94,7.179
	C81.323,15.06,84.396,18.24,89.927,18.24"/>
<path fill="#FFFFFF" d="M108.672,1.928c0.321,0.079,0.348,0.522,0.371,0.81c0.073,0.782,0.073,4.62,0.073,6.475
	c0,4.255-0.023,6.056-0.097,6.891c-0.026,0.366-0.125,0.602-0.398,0.731c-0.298,0.131-0.619,0.182-1.092,0.261
	c-0.098,0.156-0.048,0.624,0,0.753c0.324,0,1.49-0.074,2.455-0.074c1.313,0,2.105,0.074,2.551,0.074
	c0.101-0.129,0.149-0.623,0.101-0.753c-0.546-0.052-0.744-0.104-1.042-0.235c-0.444-0.155-0.521-0.47-0.546-1.174
	c-0.049-0.705-0.074-2.48-0.074-6.578c0-2.245,0-5.195,0.025-6.526c0-1.278,0.073-1.798,0.224-2.269c0-0.052-0.1-0.208-0.175-0.234
	c-0.892,0.418-2.427,0.861-3.642,0.966c-0.099,0.078-0.124,0.57-0.024,0.648C107.979,1.771,108.424,1.85,108.672,1.928"/>
<path fill="#FFFFFF" d="M123.073,18.083c1.14,0,2.85-0.651,3.942-1.954c0.05-0.078,0.148-0.522,0.124-0.705
	c-0.024-0.079-0.074-0.131-0.1-0.157c-0.917,0.784-1.835,1.099-2.827,1.099c-1.115,0-1.96-0.341-2.702-1.151
	c-0.596-0.678-0.968-1.775-1.017-2.663c0-0.131,0.049-0.261,0.149-0.288c2.083-0.051,5.454-0.259,6.496-0.571
	c0.073-0.053,0.224-0.494,0.197-0.6c-0.248-0.079-0.347-0.183-0.373-0.287c-0.196-1.464-1.064-3.706-3.47-3.706
	c-0.793,0-1.91,0.338-2.678,0.859c-1.263,0.887-2.179,2.428-2.179,4.724c0,1.488,0.396,3.081,1.41,4.152
	C120.791,17.641,121.784,18.083,123.073,18.083 M122.727,8.087c1.339,0,2.155,1.49,2.279,2.796c0,0.104-0.073,0.184-0.124,0.235
	c-0.494,0.104-3.422,0.209-4.215,0.157c-0.074,0-0.124-0.132-0.124-0.184C120.667,9.237,121.535,8.087,122.727,8.087"/>
<path fill="#FFFFFF" d="M57.296,16.887c-0.371-0.131-0.521-0.418-0.521-0.888c-0.025-1.175-0.021-2.924-0.021-4.359
	c0-1.592,0.021-3.393,0.021-4.565C55.81,7.491,54.3,7.804,53.555,7.83c-0.1,0.078-0.173,0.521-0.1,0.627
	c0.496,0.182,0.917,0.339,1.192,0.626c0.147,0.182,0.171,0.391,0.171,0.548c0,0.521,0.025,1.461,0.025,2.479
	c0,1.437,0,3.159-0.049,3.812c-0.051,0.6-0.124,0.808-0.446,0.938c-0.297,0.105-0.646,0.184-1.066,0.235
	c-0.1,0.104-0.1,0.676,0,0.753c0.421,0,1.389-0.074,2.429-0.074c1.263,0,2.056,0.074,2.526,0.074c0.1-0.077,0.173-0.623,0.1-0.753
	C57.767,17.016,57.617,16.965,57.296,16.887"/>
<path fill="#FFFFFF" d="M123.376,34.889c-1.165,0-2.358,0.441-3.249,1.04c-1.264,0.914-2.152,2.298-2.152,4.36
	c0,2.689,1.311,5.583,4.931,5.583c1.041,0,2.207-0.494,2.878-0.962c1.534-1.018,2.303-2.767,2.303-4.777
	C128.086,37.208,126.352,34.889,123.376,34.889 M125.039,44.258c-0.422,0.418-0.992,0.548-1.515,0.548
	c-1.983,0-3.446-2.089-3.446-5.169c0-1.983,0.62-2.925,1.265-3.368c0.322-0.234,0.794-0.364,1.19-0.364
	c2.109,0,3.448,2.036,3.448,5.064C125.981,42.561,125.709,43.604,125.039,44.258"/>
<path fill="#FFFFFF" d="M132.621,24.765c0.891,0,1.809-0.183,2.826-0.729c1.858-0.965,3.021-2.608,3.021-4.358
	c0-1.41-0.814-2.22-1.73-2.56c-0.82-0.313-2.979-0.417-4.094-0.522c-0.521-0.053-0.992-0.287-0.992-0.782
	c0-0.418,0.422-0.653,0.644-0.679c0.076-0.027,0.399-0.053,0.474-0.053c0.693-0.077,1.66-0.312,2.629-1.066
	c0.815-0.679,1.461-1.594,1.461-3.396c0-0.47-0.125-1.045-0.199-1.279c-0.025-0.053,0.025-0.132,0.049-0.132
	c0.273,0.027,0.323,0.027,0.595,0.027c0.496,0,0.695-0.131,0.867-0.313c0.274-0.284,0.62-1.147,0.62-1.459
	c-0.023-0.053-0.248-0.21-0.322-0.184c-0.321,0.366-0.595,0.575-1.486,0.575c-0.545,0-1.016-0.105-1.411-0.261
	c-0.718-0.288-1.338-0.497-2.207-0.497c-0.918-0.025-2.407,0.572-3.101,1.146c-0.966,0.783-1.388,1.906-1.388,3.029
	c0,2.115,1.017,3.236,2.28,3.705c0.051,0.026,0.074,0.104,0.023,0.156c-0.347,0.287-1.263,0.861-1.635,1.097
	c-0.023,0.077-0.098,0.339-0.098,0.443c0.074,0.548,0.594,1.279,1.559,1.618c0.026,0,0.026,0.079,0.026,0.079
	c-1.066,0.81-2.106,1.645-2.403,2.036c-0.099,0.157-0.172,0.757-0.172,0.992c0,0.835,0.419,1.775,1.188,2.427
	C130.461,24.479,131.428,24.765,132.621,24.765 M130.759,10.673c0-1.566,0.696-2.611,1.812-2.611c1.836,0,2.457,1.723,2.457,3.29
	c0,1.045-0.273,1.854-0.671,2.272c-0.297,0.34-0.77,0.47-1.142,0.47C131.502,14.094,130.759,12.345,130.759,10.673 M131.603,18.815
	c0.226-0.131,0.521-0.26,0.895-0.26c1.015,0,2.331,0.129,3.049,0.442c0.771,0.314,1.266,0.888,1.266,1.854
	c0,1.279-0.894,2.61-3.199,2.61c-0.968,0-1.861-0.234-2.556-0.836c-0.569-0.521-0.818-1.122-0.818-1.774
	C130.238,20.12,130.66,19.469,131.603,18.815"/>
<path fill="#FFFFFF" d="M148.342,44.884c-0.893-0.025-1.239-0.052-1.834-0.548c-0.99-0.861-3.171-3.631-3.866-4.775
	c-0.025-0.026-0.025-0.131,0-0.157l2.455-2.635c0.595-0.628,1.14-0.784,2.104-0.968c0.1-0.13,0.1-0.678,0-0.781
	c-0.965,0.13-2.626,0.234-4.71,0.234c-0.098,0.077-0.147,0.598-0.074,0.728c0.399,0.025,0.92,0.131,1.166,0.182
	c0.274,0.079,0.323,0.262,0.3,0.393c-0.101,0.444-1.342,1.985-2.232,2.769c-0.424,0.366-0.821,0.549-1.168,0.627
	c0-4.385,0-7.387,0.049-9.476c0.025-1.201,0.076-1.955,0.273-2.321c0-0.078-0.123-0.287-0.197-0.287
	c-0.769,0.34-2.255,0.626-3.668,0.731c-0.075,0.052-0.099,0.57-0.025,0.676c0.496,0.051,0.992,0.104,1.24,0.182
	c0.297,0.105,0.397,0.365,0.421,0.705c0.05,0.653,0.047,2.899,0.047,8.641c0,1.279,0.003,4.228-0.047,5.038
	c-0.023,0.549-0.147,0.731-0.546,0.861c-0.295,0.104-0.593,0.131-0.916,0.183c-0.125,0.078-0.1,0.677,0,0.754
	c0.397,0,1.116-0.075,2.478-0.075c1.091,0,2.032,0.075,2.48,0.075c0.125-0.104,0.172-0.65,0.098-0.754
	c-0.422-0.052-0.767-0.13-1.016-0.183c-0.472-0.13-0.622-0.339-0.622-0.966c-0.049-1.02-0.049-2.039-0.049-3.213
	c0.496,0,0.719,0.209,0.869,0.418c1.114,1.437,2.527,3.631,3.346,4.334c0.198,0.156,0.57,0.416,1.116,0.416
	c0.867,0,2.107,0.025,2.429-0.053C148.342,45.561,148.416,44.987,148.342,44.884"/>
<path fill="#FFFFFF" d="M117.773,32.041c0.646-1.071,0.989-1.462,1.733-1.671l1.04-0.209c0.101-0.078,0.101-0.675-0.023-0.728
	c-0.844,0.053-1.438,0.075-2.627,0.075c-0.866,0-1.982-0.05-2.727-0.075c-0.125,0.053-0.174,0.599-0.076,0.728
	c0.546,0.104,0.845,0.131,1.166,0.209c0.697,0.157,0.722,0.521,0.497,1.018c-0.471,1.201-2.209,4.517-3.077,6.004
	c-0.023,0.026-0.123,0.026-0.147,0.026c-0.521-0.914-2.479-4.881-3.122-6.343c-0.173-0.366-0.149-0.627,0.175-0.731
	c0.171-0.052,0.619-0.131,0.891-0.183c0.124-0.104,0.101-0.649-0.024-0.728c-0.297,0.025-1.907,0.075-2.752,0.075
	c-1.141,0-2.454-0.075-3.073-0.075c-0.1,0.104-0.124,0.623-0.051,0.728c0.521,0.078,0.845,0.104,1.14,0.183
	c0.894,0.235,1.117,0.444,2.083,2.22c0.993,1.905,2.455,4.776,2.976,6.029c0.125,0.313,0.198,0.889,0.198,1.253
	c0,1.122,0,2.089-0.023,3.367c-0.026,0.81-0.175,1.254-0.844,1.437c-0.423,0.104-1.041,0.184-1.686,0.261
	c-0.1,0.079-0.1,0.649,0,0.728c0.694,0,1.81-0.075,3.568-0.075c1.437,0,2.804,0.075,3.422,0.075c0.1-0.078,0.149-0.624,0.076-0.728
	c-0.671-0.077-1.118-0.13-1.517-0.235c-0.669-0.156-0.794-0.574-0.817-1.722c-0.024-1.332-0.051-2.638-0.051-3.655
	c0-0.234,0.1-0.679,0.199-0.914C114.871,37.209,116.709,33.79,117.773,32.041"/>
<path fill="#FFFFFF" d="M135.523,34.888c-0.472,0-0.868,0.184-1.265,0.496c-0.57,0.418-1.09,1.019-1.561,1.645
	c-0.051,0.026-0.125,0.026-0.125-0.052c0-0.496,0.023-1.646,0.05-2.01c0-0.052-0.075-0.104-0.123-0.104
	c-0.668,0.418-2.131,0.86-3.022,0.965c-0.075,0.053-0.124,0.444-0.124,0.575c1.114,0.418,1.314,0.73,1.362,1.096
	c0.025,0.314,0.025,1.096,0.025,2.063c0,1.801-0.025,3.967-0.073,4.385c-0.05,0.469-0.2,0.626-0.447,0.729
	c-0.272,0.105-0.67,0.184-0.968,0.209c-0.098,0.105-0.074,0.649,0,0.754c0.447-0.025,1.71-0.075,2.479-0.075
	c0.99,0,2.604,0.075,2.898,0.075c0.125-0.104,0.15-0.624,0.101-0.754c-0.547-0.052-1.115-0.13-1.562-0.261
	c-0.373-0.131-0.498-0.391-0.521-0.835c-0.024-0.521-0.051-3.211-0.051-4.984c0-0.34,0.125-0.731,0.199-0.888
	c0.323-0.55,0.819-1.096,1.314-1.096c0.569,0,1.142,0.391,1.61,0.809c0.027,0,0.176-0.079,0.199-0.104
	c0.25-0.314,0.719-1.331,0.77-1.646c0.023-0.104,0.023-0.339,0-0.418C136.491,35.096,135.995,34.888,135.523,34.888"/>
<path fill="#FFFFFF" d="M75.573,29.509c-1.512,0-2.651-0.075-3.297-0.075c-0.074,0.078-0.099,0.623,0,0.728
	c0.67,0.076,1.216,0.182,1.661,0.313c0.744,0.21,0.894,0.627,0.943,1.385c0.124,1.879,0.099,6.761,0.099,10.337
	c-0.023,0.026-0.051,0.053-0.099,0.026c-1.191-1.462-6.275-7.989-8.805-11.33c-0.646-0.861-0.793-1.146-0.895-1.406
	c-0.197,0.026-0.618,0.026-1.113,0.026c-1.237,0-2.477-0.078-3.098-0.078c-0.099,0.078-0.124,0.649-0.049,0.728
	c0.966,0.104,1.512,0.235,1.983,0.574c0.546,0.313,0.67,0.888,0.67,1.279c-0.051,5.482-0.124,9.737-0.225,11.095
	c-0.048,1.019-0.372,1.357-0.94,1.54c-0.373,0.104-0.771,0.184-1.315,0.234c-0.075,0.079-0.075,0.676,0,0.754
	c0.521,0,1.463-0.075,2.974-0.075c1.388,0,2.504,0.075,3.099,0.075c0.074-0.104,0.147-0.65,0.051-0.754
	c-0.622-0.078-1.118-0.13-1.49-0.261c-0.644-0.156-0.967-0.522-1.016-1.566c-0.075-1.462-0.075-7.57-0.025-10.259
	c0-0.026,0.074-0.052,0.1-0.026c1.487,1.958,8.309,10.938,9.624,12.918c0.297-0.025,1.435-0.025,1.707,0
	c-0.024-0.856-0.051-2.372-0.051-3.571c0.074-4.936,0.051-8.276,0.199-10.286c0.05-0.705,0.198-1.177,0.843-1.409
	c0.322-0.105,0.646-0.186,1.092-0.262c0.101-0.104,0.101-0.649,0-0.728C77.878,29.434,76.415,29.509,75.573,29.509"/>
<path fill="#FFFFFF" d="M60.918,16.833c0.422,0.833,1.214,1.25,2.18,1.25c0.793,0,1.835-0.338,2.454-1.146
	c0.05-0.104,0.124-0.73,0.074-0.809c-0.495,0.313-0.843,0.443-1.536,0.443c-0.62,0-1.24-0.313-1.464-1.018
	c-0.1-0.339-0.147-0.835-0.147-1.879c-0.025-1.279-0.025-3.578,0-4.806c0-0.026,0.048-0.131,0.099-0.131
	c0.943,0,2.206,0.027,2.825,0.027c0.026-0.39,0.149-1.067,0.224-1.434c-0.371,0.053-1.834,0.132-3.024,0.132
	c-0.05,0-0.099-0.104-0.099-0.156c0-1.828,0.074-3.002,0.123-3.446c-0.074-0.025-0.321-0.025-0.445,0.026
	c-0.273,0.341-1.189,0.992-1.584,1.201v2.219c0,0.077-0.074,0.182-0.099,0.182c-0.199,0.105-0.819,0.235-1.166,0.286
	c-0.101,0.13-0.248,0.703-0.224,0.859l1.338,0.104c0.101,0.027,0.15,0.157,0.15,0.235c0,1.046-0.025,3.394-0.025,4.882
	C60.571,15.528,60.597,16.207,60.918,16.833"/>
<path fill="#FFFFFF" d="M86.729,38.596c-0.197-1.465-1.063-3.707-3.471-3.707c-0.793,0-1.909,0.338-2.676,0.858
	c-1.264,0.888-2.18,2.429-2.18,4.725c0,1.487,0.396,3.082,1.409,4.15c0.743,0.809,1.735,1.25,3.025,1.25
	c1.14,0,2.851-0.65,3.942-1.954c0.051-0.077,0.147-0.521,0.124-0.704c-0.025-0.079-0.073-0.132-0.101-0.157
	c-0.917,0.784-1.834,1.097-2.826,1.097c-1.115,0-1.959-0.34-2.701-1.149c-0.597-0.679-0.969-1.775-1.017-2.663
	c0-0.132,0.048-0.263,0.148-0.287c2.082-0.054,5.454-0.261,6.496-0.573c0.072-0.052,0.223-0.495,0.197-0.599
	C86.853,38.804,86.755,38.698,86.729,38.596 M84.646,38.907c-0.496,0.105-3.423,0.209-4.216,0.157c-0.073,0-0.124-0.131-0.124-0.183
	c0.124-1.855,0.993-3.006,2.183-3.006c1.339,0,2.157,1.489,2.28,2.796C84.77,38.777,84.696,38.855,84.646,38.907"/>
<path fill="#FFFFFF" d="M102.174,7.099c-1.166,0-2.357,0.443-3.249,1.04c-1.264,0.914-2.153,2.299-2.153,4.361
	c0,2.688,1.312,5.583,4.931,5.583c1.041,0,2.207-0.493,2.879-0.962c1.533-1.019,2.302-2.768,2.302-4.777
	C106.883,9.419,105.149,7.099,102.174,7.099 M103.836,16.469c-0.421,0.418-0.992,0.547-1.514,0.547
	c-1.983,0-3.447-2.088-3.447-5.169c0-1.983,0.619-2.924,1.265-3.368c0.322-0.234,0.794-0.365,1.189-0.365
	c2.111,0,3.448,2.037,3.448,5.065C104.777,14.771,104.506,15.815,103.836,16.469"/>
<path fill="#FFFFFF" d="M101.782,35.25c-0.818,0-1.858-0.074-2.206-0.074c-0.101,0.104-0.147,0.571-0.101,0.753
	c0.521,0.079,0.844,0.131,1.142,0.234c0.471,0.157,0.471,0.393,0.421,0.811c-0.223,1.069-1.389,4.7-1.834,5.9
	c-0.025,0.054-0.074,0-0.1,0c-0.176-0.441-1.117-3.047-1.736-4.951c-0.298-0.891-0.522-1.568-0.646-2.118
	c-0.249,0.052-0.918,0.078-1.215,0.025c-0.421,1.648-1.735,5.274-2.38,6.941c-0.025,0.052-0.049,0.026-0.099,0.026
	c-0.322-0.971-1.514-5.146-1.712-6.164c-0.049-0.184-0.023-0.392,0.248-0.495c0.175-0.054,0.646-0.158,0.968-0.21
	c0.073-0.155,0.073-0.677-0.023-0.753c-0.472,0.025-1.663,0.074-2.531,0.074c-1.214,0-2.055-0.074-2.453-0.074
	c-0.098,0.104-0.148,0.598-0.051,0.753c0.349,0.026,0.67,0.079,0.943,0.156c0.546,0.184,0.694,0.496,1.065,1.566
	c0.597,1.62,1.834,5.952,2.355,8.038c0.273-0.052,0.919-0.052,1.19,0c0.595-1.876,1.982-5.419,2.479-6.853
	c0.024-0.053,0.099-0.053,0.125-0.025c0.322,0.781,1.932,5.289,2.379,6.905c0.273-0.053,0.917-0.079,1.215-0.027
	c0.523-1.616,2.331-6.862,2.901-8.376c0.272-0.653,0.47-0.993,1.139-1.202c0.225-0.104,0.349-0.131,0.67-0.183
	c0.1-0.13,0.1-0.623,0-0.753C103.468,35.201,102.797,35.25,101.782,35.25"/>
</svg>
