<?xml version="1.0" encoding="utf-8"?>
<!-- Generator: Adobe Illustrator 17.0.2, SVG Export Plug-In . SVG Version: 6.00 Build 0)  -->
<!DOCTYPE svg PUBLIC "-//W3C//DTD SVG 1.1//EN" "http://www.w3.org/Graphics/SVG/1.1/DTD/svg11.dtd">
<svg version="1.1" id="Calque_1" xmlns="http://www.w3.org/2000/svg" xmlns:xlink="http://www.w3.org/1999/xlink" x="0px" y="0px"
	 width="176.075px" height="176.074px" viewBox="0 0 176.075 176.074" enable-background="new 0 0 176.075 176.074"
	 xml:space="preserve">
<g>
	<g>
		<g>
			<polygon fill="#FFFFFF" points="24.812,126.119 24.812,176.074 42.533,176.074 25.033,126.119 			"/>
			<path fill="#FFFFFF" d="M88.037,69.116c4.986,0,7.312-2.88,7.312-8.75V0H80.727v60.366
				C80.727,66.236,83.053,69.116,88.037,69.116z"/>
			<path fill="#FFFFFF" d="M109.084,0v59.813c0,13.734-7.977,21.266-21.047,21.266c-13.07,0-21.045-7.531-21.045-21.266V0h-26.24
				c8.793,2.908,13.08,11.221,13.08,20.823v5.87H40.098v-6.202c0-6.757-3.102-9.636-6.646-9.636c-5.537,0-7.31,2.879-7.31,8.86
				v40.54c0,5.98,1.773,8.86,7.31,8.86c4.984,0,6.646-2.88,6.646-8.085v-9.637h13.734v9.193c0,11.297-6.647,20.49-20.381,20.49
				c-14.398,0-21.045-9.193-21.045-20.49V19.383c0-8.99,4.225-16.629,13.199-19.383H0v176.074h12.406V96.102h12.738l16.725,45.746
				h0.223V96.102h12.404v79.972h26.449v-33.23L64.33,96.102h13.957l9.635,30.461h0.223l9.193-30.461h13.957L94.68,142.844v33.23
				h81.395V0H109.084z"/>
		</g>
	</g>
</g>
</svg>
