<?xml version="1.0" encoding="utf-8"?>
<!-- Generator: Adobe Illustrator 17.0.2, SVG Export Plug-In . SVG Version: 6.00 Build 0)  -->
<!DOCTYPE svg PUBLIC "-//W3C//DTD SVG 1.1//EN" "http://www.w3.org/Graphics/SVG/1.1/DTD/svg11.dtd">
<svg version="1.1" id="Calque_1" xmlns="http://www.w3.org/2000/svg" xmlns:xlink="http://www.w3.org/1999/xlink" x="0px" y="0px"
	 width="40px" height="40px" viewBox="784 236 40 40" enable-background="new 784 236 40 40" xml:space="preserve">
<circle fill="#FFFFFF" cx="804" cy="256" r="19"/>
<path id="instagram-9-icon_1_" fill="#333333" d="M799.782,256c0-2.383,1.932-4.315,4.315-4.315c2.383,0,4.316,1.931,4.316,4.315
	c0,2.383-1.932,4.316-4.316,4.316C801.714,260.315,799.782,258.383,799.782,256z M811.001,256c0,3.814-3.091,6.905-6.904,6.905
	c-3.813,0-6.904-3.091-6.904-6.905c0-0.597,0.084-1.174,0.227-1.727h-1.954v9.494c0,0.476,0.386,0.862,0.864,0.862h15.535
	c0.477,0,0.864-0.386,0.864-0.862v-9.494h-1.954C810.917,254.826,811.001,255.403,811.001,256z M811.865,247.369h-2.589
	c-0.477,0-0.863,0.387-0.863,0.863v2.59c0,0.476,0.386,0.863,0.863,0.863h2.589c0.477,0,0.864-0.387,0.864-0.863v-2.59
	C812.729,247.755,812.342,247.369,811.865,247.369z M824,256c0,11.046-8.954,20-20,20s-20-8.954-20-20c0-11.046,8.954-20,20-20
	S824,244.954,824,256z M815.317,247.369c0-1.43-1.159-2.589-2.589-2.589h-17.263c-1.43,0-2.589,1.159-2.589,2.589v17.261
	c0,1.431,1.159,2.59,2.589,2.59h17.263c1.43,0,2.589-1.16,2.589-2.59L815.317,247.369L815.317,247.369z"/>
</svg>
