<svg xmlns="http://www.w3.org/2000/svg" viewBox="0 0 212.51 19.87"><defs><style>.a{fill:#fff;}</style></defs><title>logo-ccny-horz</title><path class="a" d="M208.32,6.79a7.57,7.57,0,0,1,.94.15c.22.06.26.21.24.31a8.22,8.22,0,0,1-1.79,2.22,2.16,2.16,0,0,1-.94.5c0-3.52,0-5.93,0-7.6A5.11,5.11,0,0,1,207,.51c0-.06-.1-.23-.16-.23a10.4,10.4,0,0,1-2.94.59.83.83,0,0,0,0,.54,6.67,6.67,0,0,1,1,.15c.24.08.32.29.34.57,0,.52,0,2.33,0,6.93,0,1,0,3.39,0,4,0,.44-.12.59-.44.69a4.14,4.14,0,0,1-.74.15c-.1.06-.08.54,0,.61.32,0,.9-.06,2-.06.87,0,1.63.06,2,.06a.82.82,0,0,0,.08-.61c-.34,0-.62-.1-.82-.15-.38-.1-.5-.27-.5-.77,0-.82,0-1.64,0-2.58a.77.77,0,0,1,.7.34,37.55,37.55,0,0,0,2.69,3.48,1.42,1.42,0,0,0,.9.33,17.17,17.17,0,0,0,1.95,0,.91.91,0,0,0,.08-.61,1.9,1.9,0,0,1-1.47-.44,24.77,24.77,0,0,1-3.1-3.83.13.13,0,0,1,0-.13l2-2.12a2.64,2.64,0,0,1,1.69-.77.86.86,0,0,0,0-.63,31.18,31.18,0,0,1-3.78.19.83.83,0,0,0-.06.58m-5.53-.88a1.59,1.59,0,0,0-1,.4,6.39,6.39,0,0,0-1.25,1.32s-.1,0-.1,0c0-.4,0-1.32,0-1.61,0,0-.06-.08-.1-.08a7.4,7.4,0,0,1-2.43.77,1,1,0,0,0-.1.46c.9.34,1.05.59,1.09.88s0,.88,0,1.65c0,1.45,0,3.18-.06,3.52s-.16.5-.36.59a3.19,3.19,0,0,1-.78.17.91.91,0,0,0,0,.61c.36,0,1.37-.06,2-.06.79,0,2.09.06,2.33.06a.91.91,0,0,0,.08-.61,7.11,7.11,0,0,1-1.25-.21c-.3-.1-.4-.31-.42-.67s0-2.58,0-4a2,2,0,0,1,.16-.71c.26-.44.66-.88,1.05-.88a2.15,2.15,0,0,1,1.29.65.58.58,0,0,0,.16-.08,4.91,4.91,0,0,0,.62-1.32,1,1,0,0,0,0-.34,1.07,1.07,0,0,0-.94-.46m-10.42.81c1.69,0,2.77,1.63,2.77,4.06a3.52,3.52,0,0,1-.76,2.64,1.69,1.69,0,0,1-1.21.44c-1.59,0-2.77-1.68-2.77-4.15,0-1.59.5-2.35,1-2.7a1.72,1.72,0,0,1,1-.29m.68-.81a4.86,4.86,0,0,0-2.61.84,4.08,4.08,0,0,0-1.73,3.5c0,2.16,1.05,4.48,4,4.48a4.33,4.33,0,0,0,4.16-4.61c0-2.35-1.39-4.21-3.78-4.21M178.75,2.12c.42.06.68.08.91.15.72.19.9.36,1.67,1.78s2,3.83,2.39,4.84a3.33,3.33,0,0,1,.16,1c0,.9,0,1.67,0,2.7,0,.65-.14,1-.68,1.15a12.69,12.69,0,0,1-1.35.21.75.75,0,0,0,0,.58c.56,0,1.45-.06,2.86-.06,1.15,0,2.25.06,2.75.06a.84.84,0,0,0,.06-.58,9,9,0,0,1-1.21-.19c-.54-.13-.64-.46-.66-1.38s0-2.12,0-2.93a2.4,2.4,0,0,1,.16-.73c.46-.94,1.93-3.69,2.79-5.09.52-.86.79-1.17,1.39-1.34l.84-.17c.08-.06.08-.54,0-.58-.68,0-1.15.06-2.11.06-.7,0-1.59,0-2.19-.06-.1,0-.14.48-.06.58.44.08.68.11.94.17.56.13.58.42.4.82-.38,1-1.77,3.62-2.47,4.82,0,0-.1,0-.12,0-.42-.73-2-3.92-2.51-5.09-.14-.29-.12-.5.14-.59s.5-.11.72-.15a.61.61,0,0,0,0-.58c-.24,0-1.53.06-2.21.06-.91,0-2-.06-2.47-.06a.85.85,0,0,0,0,.58M164.23,6.75a3.85,3.85,0,0,1,.76.13c.44.15.56.4.86,1.26.48,1.3,1.47,4.77,1.89,6.45a3.66,3.66,0,0,1,1,0c.48-1.51,1.59-4.35,2-5.5a.07.07,0,0,1,.1,0c.26.63,1.55,4.24,1.91,5.54a3.8,3.8,0,0,1,1,0c.42-1.3,1.87-5.51,2.33-6.72.22-.52.38-.8.91-1a1.7,1.7,0,0,1,.54-.15.8.8,0,0,0,0-.61c-.38,0-.91.06-1.73.06-.66,0-1.49-.06-1.77-.06a1,1,0,0,0-.08.61,5,5,0,0,1,.92.19c.38.13.38.31.34.65-.18.86-1.11,3.77-1.47,4.74,0,0-.06,0-.08,0-.14-.35-.9-2.45-1.39-4-.24-.71-.42-1.26-.52-1.7a3.77,3.77,0,0,1-1,0c-.34,1.32-1.39,4.23-1.91,5.57,0,0,0,0-.08,0-.26-.78-1.21-4.13-1.37-4.95a.3.3,0,0,1,.2-.4c.14,0,.52-.13.78-.17a.89.89,0,0,0,0-.61c-.38,0-1.33.06-2,.06-1,0-1.65-.06-2-.06a.79.79,0,0,0,0,.61m-4,0c1.07,0,1.73,1.2,1.83,2.24a.28.28,0,0,1-.1.19,28.28,28.28,0,0,1-3.38.13c-.06,0-.1-.1-.1-.15.1-1.49.8-2.41,1.75-2.41m3.46,5.76a3.35,3.35,0,0,1-2.27.88,2.73,2.73,0,0,1-2.17-.92,3.82,3.82,0,0,1-.82-2.14c0-.11,0-.21.12-.23a32.11,32.11,0,0,0,5.21-.46,1,1,0,0,0,.16-.48c-.2-.06-.28-.15-.3-.23-.16-1.17-.86-3-2.79-3a4.27,4.27,0,0,0-2.15.69,4.39,4.39,0,0,0-1.75,3.79,4.86,4.86,0,0,0,1.13,3.33,3.14,3.14,0,0,0,2.43,1,4.5,4.5,0,0,0,3.16-1.57,1.5,1.5,0,0,0,.1-.57.32.32,0,0,0-.08-.13M142.92,2.12a3.12,3.12,0,0,1,1.59.46,1.14,1.14,0,0,1,.54,1c0,4.4-.1,7.81-.18,8.9,0,.82-.3,1.09-.76,1.24a5.72,5.72,0,0,1-1.05.19,1,1,0,0,0,0,.61c.42,0,1.17-.06,2.39-.06s2,.06,2.49.06a.9.9,0,0,0,0-.61,6.35,6.35,0,0,1-1.19-.21c-.52-.13-.78-.42-.82-1.26-.06-1.17-.06-6.07,0-8.23,0,0,.06,0,.08,0,1.19,1.57,6.67,8.78,7.72,10.37.24,0,1.15,0,1.37,0,0-.69,0-1.9,0-2.87.06-4,0-6.64.16-8.25,0-.57.16-.94.68-1.13a6,6,0,0,1,.88-.21.74.74,0,0,0,0-.58c-.26,0-1.43.06-2.11.06-1.21,0-2.13-.06-2.65-.06a.84.84,0,0,0,0,.58,8.22,8.22,0,0,1,1.33.25c.6.17.72.5.76,1.11.1,1.51.08,5.43.08,8.3,0,0,0,0-.08,0-1-1.17-5-6.41-7.07-9.09a4.66,4.66,0,0,1-.72-1.13c-.16,0-.5,0-.89,0-1,0-2-.06-2.49-.06a.85.85,0,0,0,0,.58M132.83,13.93a.72.72,0,0,0,0,.61c.42,0,1.15-.06,2-.06,1.15,0,1.91.06,2.39.06a.91.91,0,0,0,.06-.61,7.65,7.65,0,0,1-1.05-.17c-.42-.1-.56-.31-.58-.77-.06-1.13-.06-3.54-.08-5.57,0-.06.08-.19.12-.19l2,0a8.59,8.59,0,0,1,.18-1.11c-.28,0-.78.06-2.13.06-.06,0-.12-.1-.12-.15s0-.34,0-.48c0-1.57.06-3.08.62-3.71a1,1,0,0,1,.82-.38,2.76,2.76,0,0,1,1.65.88.26.26,0,0,0,.22,0,4.44,4.44,0,0,0,.68-1.17.45.45,0,0,0,0-.23A1.65,1.65,0,0,0,138.1.28a3.57,3.57,0,0,0-1.91.77c-1.63,1.24-2.09,2.83-2.11,5a.27.27,0,0,1-.08.15,3.87,3.87,0,0,1-1,.33,1.33,1.33,0,0,0-.2.61l1.13.06c.06,0,.12.15.12.19,0,2.09,0,4.5-.06,5.63,0,.38-.08.61-.4.73Zm-5.69-7.2c1.69,0,2.77,1.63,2.77,4.06a3.52,3.52,0,0,1-.76,2.64,1.69,1.69,0,0,1-1.21.44c-1.59,0-2.77-1.68-2.77-4.15,0-1.59.5-2.35,1-2.7a1.72,1.72,0,0,1,1-.29m.68-.81a4.86,4.86,0,0,0-2.61.84,4.08,4.08,0,0,0-1.73,3.5c0,2.16,1.05,4.48,4,4.48a4.33,4.33,0,0,0,4.16-4.61c0-2.35-1.39-4.21-3.78-4.21" transform="translate(-0.59 -0.08)"/><path class="a" d="M115.81,6.57c1.07,0,1.73,1.19,1.83,2.24a.29.29,0,0,1-.1.19,28.51,28.51,0,0,1-3.38.13c-.06,0-.1-.1-.1-.15.1-1.49.8-2.41,1.75-2.41m3.46,5.76a3.35,3.35,0,0,1-2.27.88,2.72,2.72,0,0,1-2.17-.92,3.81,3.81,0,0,1-.82-2.14c0-.1,0-.21.12-.23a32.1,32.1,0,0,0,5.21-.46,1,1,0,0,0,.16-.48c-.2-.06-.28-.15-.3-.23-.16-1.17-.86-3-2.79-3a4.28,4.28,0,0,0-2.15.69,4.39,4.39,0,0,0-1.75,3.79,4.86,4.86,0,0,0,1.13,3.33,3.14,3.14,0,0,0,2.43,1A4.5,4.5,0,0,0,119.25,13a1.5,1.5,0,0,0,.1-.57.32.32,0,0,0-.08-.13m-11.46,6.58a3,3,0,0,1-2.05-.67,1.87,1.87,0,0,1-.66-1.42,2,2,0,0,1,1.09-1.63,1.4,1.4,0,0,1,.72-.21,7.22,7.22,0,0,1,2.45.36,1.49,1.49,0,0,1,1,1.49c0,1-.72,2.1-2.57,2.1M107,6.55c1.47,0,2,1.38,2,2.64a2.72,2.72,0,0,1-.54,1.82,1.24,1.24,0,0,1-.92.38c-1.37,0-2-1.4-2-2.75s.56-2.1,1.45-2.1m.64-.77a4.67,4.67,0,0,0-2.49.92A3.07,3.07,0,0,0,104,9.13a2.87,2.87,0,0,0,1.83,3,.08.08,0,0,1,0,.13c-.28.23-1,.69-1.31.88a1.88,1.88,0,0,0-.08.36,1.8,1.8,0,0,0,1.25,1.3s0,.06,0,.06a14.28,14.28,0,0,0-1.93,1.63,2.46,2.46,0,0,0-.14.8,2.65,2.65,0,0,0,1,1.95A3.66,3.66,0,0,0,107,20a4.63,4.63,0,0,0,2.27-.58,4.09,4.09,0,0,0,2.43-3.5,2.07,2.07,0,0,0-1.39-2.05A18.68,18.68,0,0,0,107,13.4c-.42,0-.8-.23-.8-.63a.6.6,0,0,1,.52-.54,2.23,2.23,0,0,1,.38,0,4.11,4.11,0,0,0,2.11-.86,3.19,3.19,0,0,0,1.17-2.72,4.06,4.06,0,0,0-.16-1s0-.11,0-.11a3.65,3.65,0,0,0,.48,0,.83.83,0,0,0,.7-.25,2.61,2.61,0,0,0,.5-1.17s-.2-.17-.26-.15a1.29,1.29,0,0,1-1.19.46,3,3,0,0,1-1.13-.21,4.4,4.4,0,0,0-1.77-.4m-8.54.79c1.07,0,1.73,1.19,1.83,2.24a.29.29,0,0,1-.1.19,28.5,28.5,0,0,1-3.38.13c-.06,0-.1-.1-.1-.15.1-1.49.8-2.41,1.75-2.41m3.46,5.76a3.35,3.35,0,0,1-2.27.88,2.72,2.72,0,0,1-2.17-.92,3.81,3.81,0,0,1-.82-2.14c0-.1,0-.21.12-.23a32.1,32.1,0,0,0,5.21-.46,1,1,0,0,0,.16-.48c-.2-.06-.28-.15-.3-.23-.16-1.17-.86-3-2.79-3a4.28,4.28,0,0,0-2.15.69,4.39,4.39,0,0,0-1.75,3.79,4.86,4.86,0,0,0,1.13,3.33,3.14,3.14,0,0,0,2.43,1A4.5,4.5,0,0,0,102.52,13a1.5,1.5,0,0,0,.1-.57.32.32,0,0,0-.08-.13M91.36,14.41c.26,0,1.19-.06,2-.06,1.05,0,1.69.06,2,.06a1.07,1.07,0,0,0,.08-.61,2.27,2.27,0,0,1-.84-.19c-.36-.13-.42-.38-.44-.94s-.06-2-.06-5.28c0-1.8,0-4.17,0-5.24A5.75,5.75,0,0,1,94.32.34a.31.31,0,0,0-.14-.19,9.85,9.85,0,0,1-2.92.77.6.6,0,0,0,0,.52,7.26,7.26,0,0,1,1,.19c.26.06.28.42.3.65.06.63.06,3.71.06,5.19,0,3.42,0,4.86-.08,5.53a.61.61,0,0,1-.32.59,3.63,3.63,0,0,1-.88.21,1,1,0,0,0,0,.61m-4.48,0c.26,0,1.19-.06,2-.06,1.05,0,1.69.06,2,.06A1.07,1.07,0,0,0,91,13.8a2.28,2.28,0,0,1-.84-.19c-.36-.13-.42-.38-.44-.94s-.06-2-.06-5.28c0-1.8,0-4.17,0-5.24A5.76,5.76,0,0,1,89.84.34.31.31,0,0,0,89.7.15a9.86,9.86,0,0,1-2.92.77.6.6,0,0,0,0,.52,7.28,7.28,0,0,1,1,.19c.26.06.28.42.3.65.06.63.06,3.71.06,5.19,0,3.42,0,4.86-.08,5.53a.61.61,0,0,1-.32.59,3.64,3.64,0,0,1-.88.21,1,1,0,0,0,0,.61m-5-7.81c1.69,0,2.77,1.63,2.77,4.06a3.53,3.53,0,0,1-.76,2.64,1.69,1.69,0,0,1-1.21.44c-1.59,0-2.77-1.68-2.77-4.15,0-1.59.5-2.35,1-2.7a1.72,1.72,0,0,1,1-.29m.68-.81A4.86,4.86,0,0,0,80,6.62a4.08,4.08,0,0,0-1.73,3.5c0,2.16,1.05,4.48,4,4.48A4.33,4.33,0,0,0,86.36,10c0-2.35-1.39-4.21-3.78-4.21M76,4.77c0,.11.53,0,.61,0A29.29,29.29,0,0,1,77,1.51a34.76,34.76,0,0,0-3.92-.42,7.89,7.89,0,0,0-4,1,6.42,6.42,0,0,0-3.16,5.76c0,4.36,2.46,6.91,6.9,6.91a10,10,0,0,0,3-.52,6.69,6.69,0,0,0,1.51-2.83c0-.15-.38-.33-.48-.33a7.62,7.62,0,0,1-1.49,2.05,3.2,3.2,0,0,1-2.19.71c-3.54,0-5.31-2.83-5.31-6.18,0-3.54,1.65-5.78,4.54-5.78a5.51,5.51,0,0,1,2.47.46c.74.38,1,.8,1.19,2.47" transform="translate(-0.59 -0.08)"/><path class="a" d="M53.65,6.62c.32,0,.48.08.68.13.56.17.77.54,1.29,1.91.62,1.55,1.47,3.87,1.91,5.07,0,.08.16.36.16.38a27.15,27.15,0,0,1-2.92,4.59,1,1,0,0,0,0,.33,3,3,0,0,0,1,.57L56,19.5c.14-.29.38-.73.62-1.17a77.71,77.71,0,0,0,4.69-10.6c.18-.54.42-.84.78-.94a2.79,2.79,0,0,1,.72-.17.9.9,0,0,0,0-.61c-.56,0-1.13.06-1.85.06S59.42,6,59.18,6a.89.89,0,0,0-.08.61,5.09,5.09,0,0,1,.88.17.46.46,0,0,1,.34.61,24.74,24.74,0,0,1-1.63,4.77s-.06,0-.08,0c-.14-.27-1.45-3.83-1.79-5A.32.32,0,0,1,57,6.78a5.11,5.11,0,0,1,.74-.17.88.88,0,0,0,0-.61c-.3,0-1.17.06-2,.06S54.07,6,53.71,6a.86.86,0,0,0-.06.61m-.58.5A10.75,10.75,0,0,1,53.25,6c-.3,0-1.47.11-2.43.11,0,0-.08-.08-.08-.13,0-1.47.06-2.41.1-2.76a.72.72,0,0,0-.36,0,6,6,0,0,1-1.27,1V5.95c0,.06-.06.15-.08.15a4.45,4.45,0,0,1-.93.23A1.67,1.67,0,0,0,48,7l1.07.08a.2.2,0,0,1,.12.19c0,.84,0,2.72,0,3.92a5.19,5.19,0,0,0,.28,2.39,1.85,1.85,0,0,0,1.75,1,2.56,2.56,0,0,0,2-.92,1.85,1.85,0,0,0,.06-.65,2,2,0,0,1-1.23.36,1.18,1.18,0,0,1-1.17-.82,5.74,5.74,0,0,1-.12-1.51c0-1,0-2.87,0-3.86,0,0,0-.11.08-.11l2.27,0M47.4,13.8a5.86,5.86,0,0,1-.84-.17c-.3-.1-.42-.33-.42-.71,0-.94,0-2.35,0-3.5s0-2.72,0-3.67a8.85,8.85,0,0,1-2.58.61.64.64,0,0,0-.08.5,2.46,2.46,0,0,1,1,.5.67.67,0,0,1,.14.44c0,.42,0,1.17,0,2,0,1.15,0,2.53,0,3.06s-.1.65-.36.75a4.05,4.05,0,0,1-.86.19.8.8,0,0,0,0,.61c.34,0,1.11-.06,1.95-.06,1,0,1.65.06,2,.06a.89.89,0,0,0,.08-.61m-1.19-11a1.1,1.1,0,0,0-.2-.61A.81.81,0,0,0,45.43,2a1.61,1.61,0,0,0-1,.38,1.07,1.07,0,0,0-.1.61,1,1,0,0,0,.52.86,1.84,1.84,0,0,0,.89,0,1.37,1.37,0,0,0,.42-1m-5,2c0,.11.53,0,.61,0a29.28,29.28,0,0,1,.32-3.23,34.76,34.76,0,0,0-3.92-.42,7.89,7.89,0,0,0-4,1A6.42,6.42,0,0,0,31,7.81c0,4.36,2.46,6.91,6.9,6.91a10,10,0,0,0,3-.52,6.69,6.69,0,0,0,1.51-2.83c0-.15-.38-.33-.48-.33a7.62,7.62,0,0,1-1.49,2.05,3.2,3.2,0,0,1-2.19.71C34.79,13.8,33,11,33,7.62c0-3.54,1.65-5.78,4.54-5.78A5.51,5.51,0,0,1,40,2.3c.74.38,1,.8,1.19,2.47" transform="translate(-0.59 -0.08)"/><path class="a" d="M23.82,6.57c1.07,0,1.73,1.2,1.83,2.24a.28.28,0,0,1-.1.19,28.29,28.29,0,0,1-3.38.13c-.06,0-.1-.11-.1-.15.1-1.49.8-2.41,1.75-2.41m3.46,5.76a3.35,3.35,0,0,1-2.27.88,2.73,2.73,0,0,1-2.17-.92A3.82,3.82,0,0,1,22,10.16c0-.11,0-.21.12-.23a32.12,32.12,0,0,0,5.21-.46A1,1,0,0,0,27.53,9c-.2-.06-.28-.15-.3-.23-.16-1.17-.86-3-2.79-3a4.27,4.27,0,0,0-2.15.69,4.39,4.39,0,0,0-1.75,3.79,4.86,4.86,0,0,0,1.13,3.33,3.14,3.14,0,0,0,2.43,1A4.5,4.5,0,0,0,27.27,13a1.51,1.51,0,0,0,.1-.57.32.32,0,0,0-.08-.13M3.55,13.8a.71.71,0,0,0,0,.6c.56,0,2-.06,2.88-.06s2,0,2.91.06a.8.8,0,0,0,.08-.6,6.94,6.94,0,0,1-1.31-.23c-.44-.13-.6-.34-.64-1.09-.06-1.07-.08-6.85-.08-9.91a.28.28,0,0,1,.12-.19c.46,0,3.36,0,4.3,0a.27.27,0,0,1,.18.23c0,.77,0,1.71,0,6.68,0,.48,0,3,0,3.48s-.08.78-.44.9a4,4,0,0,1-.8.15.8.8,0,0,0,0,.6c.38,0,1.37-.06,2-.06s1.81.06,2.07.06c.06-.08.1-.54,0-.6-.36,0-.52-.08-.76-.13-.42-.15-.48-.31-.52-1s0-3.19,0-4.63a.7.7,0,0,1,.24-.5A2.7,2.7,0,0,1,15.35,7,1.76,1.76,0,0,1,17.22,8.5a30.74,30.74,0,0,1,.08,4.06c0,.84-.08,1-.38,1.09a5.51,5.51,0,0,1-.8.15.9.9,0,0,0,0,.6c.28,0,1.19,0,1.81-.06.89,0,1.79.06,2.11.06a.91.91,0,0,0,.08-.6,2.78,2.78,0,0,1-1-.27.49.49,0,0,1-.26-.48c0-.92,0-2.81,0-3.94,0-2.07-.91-3.33-2.49-3.33A4.89,4.89,0,0,0,13.6,7s-.08,0-.08,0c0-.59,0-3.07,0-4.44,0-1.55,0-2.22,0-2.36s-.06-.1-.12-.13A5.79,5.79,0,0,1,12.07.4C12,.4,12,.5,12,.54v.82a.11.11,0,0,1-.1.11l-9.07,0A3.6,3.6,0,0,1,1.2,1.15.3.3,0,0,0,1,1.21C.91,2.14.73,3.67.59,4.57c0,.1.52.23.62.17A10.13,10.13,0,0,1,2,2.82a.89.89,0,0,1,.74-.46c.76,0,2.45,0,2.79,0,.08,0,.16.13.16.21,0,3.44,0,7.86-.06,9.49,0,1-.12,1.4-.76,1.53a11.34,11.34,0,0,1-1.31.21" transform="translate(-0.59 -0.08)"/></svg>