<svg xmlns="http://www.w3.org/2000/svg" viewBox="0 0 2127.87 1029.12"><defs><style>.a{fill:#fff;}</style></defs><title>logo-cuny</title><path class="a" d="M145.41,733.18,247.81,1024H144.38V733.18h1ZM512,401.41c29.7,0,43-16.38,43-51.2V-1H470V350.21C470,385,483.33,401.41,512,401.41ZM634.88-1V347.14C634.88,427,587.78,471,512,471s-121.86-44-121.86-123.9V-1H237.57c51.2,17.41,75.78,65.54,75.78,121.86v33.79H233.47V118.78c0-39.94-18.43-56.32-38.91-56.32-31.74,0-42,16.38-42,51.2V350.21c0,34.82,10.24,51.2,42,51.2,28.67,0,38.91-16.38,38.91-47.1V298h79.87v54.27c0,65.54-38.91,118.78-118.78,118.78-84,0-121.86-53.25-121.86-118.78V112.64C72.7,59.39,97.28,15.36,149.5-1H0V1024H72.7V558.08h73.73l97.28,266.24h1V558.08h72.7V1024H471V830.46L374.78,558.08h80.9L512,735.23h1l53.25-177.15h80.9L550.91,830.46V1024H1024V-1H634.88Zm455.68,14.34h57.34V191.49h17.41V13.31h57.34V-1h-132.1Zm173.06,178.18V90.11c17.41-16.38,26.62-26.62,44-26.62,21.5,0,27.65,12.29,27.65,35.84v92.16h16.38V97.28c0-29.7-12.29-47.1-41-47.1-20.48,0-32.77,9.22-47.1,24.58V-1h-16.38V191.49Zm221.18-68.61c0-43-17.41-72.7-55.3-72.7-34.82,0-57.34,29.7-57.34,72.7,0,48.13,23.55,71.68,59.39,71.68,26.62,0,39.94-9.22,55.3-33.79l-13.31-7.17c-13.31,22.53-22.53,28.67-39.94,28.67-31.74,0-45.06-27.65-45.06-59.39h96.26Zm-96.26-12.29c0-18.43,12.29-47.1,41-47.1,23.55,0,36.86,18.43,39.94,47.1Zm313.34-58.37c-8.19-30.72-27.65-55.3-61.44-55.3-47.1,0-74.75,38.91-74.75,98.3s27.65,99.33,74.75,99.33c39.94,0,57.34-23.55,64.51-58.37l-16.38-3.07c-6.14,25.6-17.41,47.1-48.13,47.1-39.94,0-57.34-36.86-57.34-85,0-47.1,17.41-84,55.3-84,23.55,0,38.91,16.38,47.1,45.06ZM1748,22.53V-1h-15.36V22.53Zm0,30.72h-15.36V191.49H1748Zm24.58,0V66.56H1793V170c0,17.41,8.19,24.58,30.72,24.58a89.63,89.63,0,0,0,16.38-2V179.2c-5.12,1-11.26,3.07-16.38,3.07-10.24,0-14.34-5.12-14.34-14.34V66.56h30.72V53.25h-30.72V8.19H1793V53.25h-20.48Zm103.42,0h-17.41l48.13,136.19c-8.19,28.67-20.48,38.91-31.74,38.91a62,62,0,0,1-15.36-2v13.31c3.07,1,7.17,1,14.34,1,25.6,0,34.82-11.26,44-38.91l52.22-148.48h-17.41l-38.91,112.64L1876,53.25ZM1096.7,278.53v129c0,44,22.53,65.54,69.63,65.54,46.08,0,69.63-21.5,69.63-65.54v-129h-17.41V409.6c0,36.86-18.43,49.15-52.22,49.15-34.82,0-52.22-12.29-52.22-49.15V278.53ZM1280,471V368.64c17.41-16.38,27.65-26.62,45.06-26.62,20.48,0,27.65,12.29,27.65,35.84V471h16.38V375.81c0-29.7-12.29-46.08-41-46.08-20.48,0-32.77,9.22-48.13,24.58V331.78h-15.36V471Zm135.17-169V278.53h-16.38v23.55Zm0,29.7h-16.38V471h16.38ZM1484.8,471h16.38l47.1-139.26H1531.9L1493,446.46,1455.1,331.78H1437.7Zm183.3-68.61c0-43-18.43-72.7-55.3-72.7-35.84,0-57.34,28.67-57.34,71.68,0,49.15,22.53,71.68,59.39,71.68,25.6,0,39.94-9.22,54.27-33.79l-12.29-6.14c-14.34,21.5-23.55,27.65-41,27.65-31.74,0-45.06-27.65-45.06-58.37h97.28Zm-97.28-13.31c1-18.43,12.29-47.1,41-47.1,24.58,0,36.86,18.43,39.94,47.1ZM1709.06,471V392.19c0-26.62,22.53-47.1,41-47.1h7.17V329.73H1750c-18.43,0-32.77,11.26-39.94,28.67h-1V331.78h-16.38V471h16.38Zm57.34-25.6c13.31,19.46,32.77,27.65,53.25,27.65,25.6,0,48.13-14.34,48.13-38.91,0-54.27-80.9-33.79-80.9-67.58,0-16.38,11.26-24.58,26.62-24.58,17.41,0,26.62,8.19,36.86,21.5l12.29-9.22c-10.24-15.36-24.58-24.58-48.13-24.58s-44,11.26-44,37.89c0,49.15,81.92,26.62,81.92,66.56,0,15.36-13.31,26.62-31.74,26.62-17.41,0-29.7-5.12-42-23.55l-12.29,8.19Zm144.38-143.36V278.53H1894.4v23.55Zm0,29.7H1894.4V471h16.38Zm21.5,0v13.31h20.48V449.54c0,16.38,7.17,23.55,30.72,23.55,5.12,0,10.24-1,15.36-2V457.73c-4.1,2-10.24,3.07-15.36,3.07-10.24,0-14.34-5.12-14.34-14.34V345.09h29.7V331.78h-29.7V286.72h-16.38v45.06h-20.48Zm101.38,0h-17.41L2064.38,469c-8.19,28.67-19.46,37.89-30.72,37.89a79.58,79.58,0,0,1-16.38-2v13.31a55.49,55.49,0,0,0,15.36,2c24.58,0,34.82-12.29,44-39.94l51.2-148.48h-16.38l-38.91,112.64h-1l-37.89-112.64ZM1153,605.18c-43,0-57.34,34.82-57.34,71.68,0,37.89,14.34,72.7,57.34,72.7s57.34-34.82,57.34-72.7C1210.37,640,1196,605.18,1153,605.18Zm0,12.29c28.67,0,41,22.53,41,59.39,0,37.89-12.29,59.39-41,59.39s-41-21.5-41-59.39c0-36.86,12.29-59.39,41-59.39Zm133.12,3.07V608.26h-28.67V585.73c0-15.36,6.14-21.5,18.43-21.5a79.59,79.59,0,0,1,16.38,2V553c-6.14-1-11.26-2-17.41-2-23.55,0-33.79,13.31-33.79,36.86v20.48h-22.53v12.29h22.53v126h16.38v-126h28.67ZM1096.7,1024h17.41V845.82L1217.54,1024H1236V831.49h-17.41V992.26h-1L1126.4,831.49h-29.7V1024Zm277.5-68.61c0-43-18.43-72.7-56.32-72.7-34.82,0-56.32,28.67-56.32,71.68,0,49.15,22.53,71.68,59.39,71.68,25.6,0,39.94-9.22,54.27-33.79l-13.31-6.14c-13.31,21.5-22.53,27.65-39.94,27.65-31.74,0-45.06-27.65-45.06-58.37h97.28Zm-97.28-13.31c1-18.43,12.29-47.1,41-47.1,24.58,0,36.86,18.43,39.94,47.1ZM1425.41,1024h16.38l31.74-111.62L1505.28,1024h15.36l39.94-139.26h-16.38l-30.72,111.62h-1l-30.72-111.62h-15.36l-31.74,111.62h-1l-30.72-111.62H1386.5Zm248.83,0h18.43V942.08l60.42-110.59h-19.46l-50.18,95.23-48.13-95.23h-19.46l58.37,110.59V1024ZM1792,882.69c-43,0-57.34,33.79-57.34,71.68S1749,1026,1792,1026s57.34-33.79,57.34-71.68S1835,882.69,1792,882.69Zm0,12.29c28.67,0,41,21.5,41,59.39s-12.29,59.39-41,59.39-41-21.5-41-59.39S1763.33,895,1792,895Zm95.23,129V945.15c0-26.62,23.55-47.1,41-47.1h7.17V882.69h-7.17c-17.41,0-32.77,11.26-39.94,28.67h-1V884.74h-15.36V1024h15.36Zm86,0V978.94l27.65-30.72,44,75.78h18.43l-52.22-87,45.06-52.22h-18.43l-64.51,73.73v-127h-15.36V1024h15.36Z" transform="translate(0 3.07)"/></svg>