<?xml version="1.0" encoding="utf-8"?>
<!-- Generator: Adobe Illustrator 17.0.2, SVG Export Plug-In . SVG Version: 6.00 Build 0)  -->
<!DOCTYPE svg PUBLIC "-//W3C//DTD SVG 1.1//EN" "http://www.w3.org/Graphics/SVG/1.1/DTD/svg11.dtd">
<svg version="1.1" id="Calque_1" xmlns="http://www.w3.org/2000/svg" xmlns:xlink="http://www.w3.org/1999/xlink" x="0px" y="0px"
	 width="17.113px" height="53px" viewBox="0 0 17.113 53" enable-background="new 0 0 17.113 53" xml:space="preserve">
<path fill="#FFFFFF" d="M-30.438,48.099c-0.17,0-0.335-0.086-0.429-0.243l-9.967-16.632l9.967-16.632
	c0.143-0.238,0.45-0.314,0.686-0.172c0.237,0.142,0.314,0.449,0.172,0.686l-9.658,16.118l9.658,16.118
	c0.143,0.237,0.065,0.544-0.172,0.686C-30.261,48.076-30.35,48.099-30.438,48.099z"/>
<path fill="#FFFFFF" d="M-9.987,67.42c-0.267,0-0.527-0.136-0.674-0.382l-15.673-26.153l15.673-26.153
	c0.224-0.374,0.708-0.494,1.078-0.27c0.373,0.223,0.494,0.706,0.27,1.078L-24.5,40.885L-9.312,66.23
	c0.224,0.372,0.103,0.855-0.27,1.078C-9.709,67.384-9.848,67.42-9.987,67.42z"/>
<rect x="-26.333" y="14.349" fill="#FFFFFF" width="17.11" height="53"/>
<path fill="#FFFFFF" d="M16.328,53.009c-0.267,0-0.526-0.136-0.673-0.382L0,26.505L15.654,0.382c0.224-0.373,0.707-0.493,1.077-0.27
	c0.373,0.222,0.494,0.705,0.27,1.077L1.831,26.505l15.17,25.316c0.224,0.372,0.103,0.854-0.27,1.077
	C16.605,52.973,16.466,53.009,16.328,53.009z"/>
</svg>
