<?xml version="1.0" encoding="utf-8"?>
<!-- Generator: Adobe Illustrator 15.0.0, SVG Export Plug-In . SVG Version: 6.00 Build 0)  -->
<!DOCTYPE svg PUBLIC "-//W3C//DTD SVG 1.1//EN" "http://www.w3.org/Graphics/SVG/1.1/DTD/svg11.dtd">
<svg version="1.1" id="Layer_1" xmlns="http://www.w3.org/2000/svg" xmlns:xlink="http://www.w3.org/1999/xlink" x="0px" y="0px"
	 width="43.233px" height="42.345px" viewBox="0 0 43.233 42.345" enable-background="new 0 0 43.233 42.345" xml:space="preserve">
<path fill="#FFFFFF" d="M37.63,21.462c3.201-1.382,5.602-4.097,5.602-7.372v-1.396v-2.278V8.361V8.36V1.053l-5.618-0.001h-0.126
	v7.31v4.332c0,0.512-0.079,0.975-0.24,1.396c-0.205,0.535-0.542,1.002-1.016,1.407c-0.882,0.755-2.165,1.207-3.436,1.211
	l-0.001-0.002h-0.003h-0.004l-0.001,0.002c-1.27-0.004-2.553-0.456-3.434-1.211c-0.476-0.405-0.812-0.872-1.018-1.407
	c-0.161-0.422-0.24-0.885-0.24-1.396V8.361v-7.31H27.97l-5.616,0.001v7.306c-0.002-4.709-4.964-8.265-10.136-8.355
	c-0.015,0-0.026,0-0.039-0.001C12.124,0.001,12.071,0,12.018,0c-0.021,0-0.04,0.001-0.063,0.001h-0.034L11.923,0h-0.007h-0.004
	h-0.004v0.001h-0.039C11.85,0.001,11.828,0,11.809,0c-0.055,0-0.108,0.001-0.161,0.002h-0.42c-4.112,0-7.704,2.209-9.66,5.505
	C0.572,7.181,0,9.136,0,11.225v0.001v0.001c0,2.089,0.572,4.044,1.567,5.719c1.956,3.294,5.548,5.503,9.66,5.503h0.42
	c0.053,0.001,0.106,0.002,0.161,0.002c0.02,0,0.041,0,0.061-0.001c0.013,0,0.027,0.001,0.039,0.001h0.004h0.004h0.005
	c0.013,0,0.023-0.001,0.034-0.001c0.022,0.001,0.041,0.001,0.063,0.001c0.054,0,0.106-0.001,0.161-0.002
	c0.013,0,0.024-0.001,0.039-0.001c1.522-0.026,3.023-0.36,4.389-0.929v11.137L6.623,21.462H1.464v20.883h5.744V31.151l9.843,11.193
	h5.299V21.463l7.57,15.436v5.446h5.744v-5.446l7.569-15.437H37.63z M11.62,16.698c-0.023,0.001-0.048,0.001-0.073,0.001
	c-2.944,0-5.335-2.45-5.336-5.474c0.001-3.023,2.392-5.475,5.336-5.475c0.025,0,0.05,0.001,0.073,0.001
	c1.894,0.026,3.547,1.063,4.475,2.609h6.259v2.054v2.278v1.396h-6.259C15.167,15.636,13.514,16.673,11.62,16.698 M22.349,21.462
	h-5.601c3.201-1.381,5.604-4.096,5.605-7.371c0,3.219,2.426,5.972,5.651,7.371H22.349L22.349,21.462z M32.792,31.043l-4.678-9.536
	c1.372,0.579,2.881,0.92,4.411,0.941c0.055,0.001,0.106,0.002,0.163,0.002c0.02,0,0.041-0.001,0.061-0.001
	c0.012,0,0.026,0.001,0.039,0.001h0.004h0.003H32.8c0.014-0.001,0.023-0.001,0.035-0.001c0.021,0,0.041,0.001,0.062,0.001
	c0.054,0,0.106-0.001,0.162-0.002c1.524-0.021,3.029-0.352,4.399-0.918L32.792,31.043z"/>
</svg>
