<?xml version="1.0" encoding="utf-8"?>
<!-- Generator: Adobe Illustrator 17.0.2, SVG Export Plug-In . SVG Version: 6.00 Build 0)  -->
<!DOCTYPE svg PUBLIC "-//W3C//DTD SVG 1.1//EN" "http://www.w3.org/Graphics/SVG/1.1/DTD/svg11.dtd">
<svg version="1.1" id="Calque_1" xmlns="http://www.w3.org/2000/svg" xmlns:xlink="http://www.w3.org/1999/xlink" x="0px" y="0px"
	 width="40px" height="40px" viewBox="840.417 236 40 40" enable-background="new 840.417 236 40 40" xml:space="preserve">
<circle fill="#FFFFFF" cx="860.417" cy="256" r="17.264"/>
<path id="linkedin-circle-icon" fill="#333333" d="M860.417,236c-11.046,0-20,8.954-20,20c0,11.046,8.954,20,20,20s20-8.954,20-20
	C880.417,244.954,871.463,236,860.417,236z M855.081,265.669h-4.391v-14.187h4.391V265.669z M852.864,249.625
	c-1.434,0-2.597-1.172-2.597-2.618c0-1.446,1.163-2.618,2.597-2.618s2.597,1.172,2.597,2.618
	C855.461,248.453,854.298,249.625,852.864,249.625z M871.537,265.669h-4.37c0,0,0-5.404,0-7.447s-0.776-3.183-2.391-3.183
	c-1.758,0-2.676,1.187-2.676,3.183c0,2.185,0,7.447,0,7.447h-4.212v-14.187h4.212v1.911c0,0,1.267-2.343,4.275-2.343
	c3.008,0,5.162,1.837,5.162,5.637C871.537,260.486,871.537,265.669,871.537,265.669z"/>
</svg>
