<?xml version="1.0" encoding="utf-8"?>
<!-- Generator: Adobe Illustrator 17.0.2, SVG Export Plug-In . SVG Version: 6.00 Build 0)  -->
<!DOCTYPE svg PUBLIC "-//W3C//DTD SVG 1.1//EN" "http://www.w3.org/Graphics/SVG/1.1/DTD/svg11.dtd">
<svg version="1.1" id="Calque_1" xmlns="http://www.w3.org/2000/svg" xmlns:xlink="http://www.w3.org/1999/xlink" x="0px" y="0px"
	 width="40px" height="40px" viewBox="671.5 85.417 40 40" enable-background="new 671.5 85.417 40 40" xml:space="preserve">
<circle fill="#FFFFFF" cx="691.5" cy="105.417" r="18.625"/>
<path id="facebook-circle-icon_1_" fill="#333333" d="M691.5,85.417c-11.046,0-20,8.954-20,20s8.954,20,20,20s20-8.954,20-20
	S702.546,85.417,691.5,85.417z M697.419,97.183c0,0-2,0-2.795,0c-0.987,0-1.192,0.404-1.192,1.425c0,0.85,0,2.466,0,2.466h3.987
	l-0.384,4.33h-3.604v12.935h-5.165v-12.88h-2.686v-4.384h2.686c0,0,0-0.63,0-3.453c0-3.241,1.733-4.933,5.576-4.933
	c0.63,0,3.576,0,3.576,0L697.419,97.183L697.419,97.183z"/>
</svg>
